# Blender 4.4.3
# www.blender.org
o LVL2-CastleWall_A
v 0.000001 25.962185 -48.326710
v -0.846324 25.962185 -48.326710
v -0.846324 48.855515 -48.326710
v 0.000001 48.855515 -48.326710
v 0.000001 25.962185 20.396500
v -0.846324 25.962185 20.396500
v -0.846324 48.855515 20.396500
v 0.000001 48.855515 20.396500
v 0.000001 0.000001 -48.326710
v -0.846324 0.000001 -48.326710
v -0.846324 48.855515 0.000000
v -0.846324 25.962185 0.000000
v 0.000001 25.962185 0.000000
v 0.000001 48.855515 0.000000
v -0.846324 0.000001 0.000000
v 0.000001 0.000001 0.000000
vn -0.0000 -0.0000 -1.0000
vn -0.0000 -0.0000 1.0000
vn -1.0000 -0.0000 -0.0000
vn 1.0000 -0.0000 -0.0000
vn -0.0000 1.0000 -0.0000
vn -0.0000 -1.0000 -0.0000
vt 0.765947 0.449309
vt 0.765947 0.614990
vt 0.759837 0.614990
vt 0.759837 0.449309
vt 0.078355 0.680241
vt 0.084465 0.680241
vt 0.084465 0.845922
vt 0.078355 0.845922
vt 0.779105 0.165681
vt 0.779105 0.000000
vt 0.783537 0.000000
vt 0.783537 0.165681
vt 0.773037 0.356237
vt 0.773037 0.521918
vt 0.768606 0.521918
vt 0.768606 0.356237
vt 0.116170 0.888139
vt 0.122279 0.888139
vt 0.122279 0.892581
vt 0.116170 0.892581
vt 0.765947 0.802880
vt 0.759837 0.802880
vt 0.687388 0.242018
vt 0.687388 0.429909
vt 0.681279 0.429909
vt 0.681279 0.242018
vt 0.783537 0.521918
vt 0.783537 0.709808
vt 0.773037 0.709808
vt 0.658525 0.239352
vt 0.654094 0.239352
vt 0.654094 0.233228
vt 0.658525 0.233228
vt 0.768606 0.165681
vt 0.779105 0.353571
vt 0.768606 0.353571
vt 0.681279 0.432575
vt 0.687388 0.432575
vt 0.687388 0.443100
vt 0.681279 0.443100
vt 0.116170 0.877613
vt 0.122279 0.877613
vt 0.783537 0.356237
vt 0.768606 0.000000
s 0
f 3/1/1 4/4/1 1/3/1 2/2/1
f 7/5/2 6/8/2 5/7/2 8/6/2
f 12/9/3 6/12/3 7/11/3 11/10/3
f 14/13/4 8/16/4 5/15/4 13/14/4
f 11/17/5 7/20/5 8/19/5 14/18/5
f 1/3/1 9/22/1 10/21/1 2/2/1
f 13/23/2 12/26/2 15/25/2 16/24/2
f 13/14/4 16/29/4 9/28/4 1/27/4
f 5/30/6 6/33/6 12/32/6 13/31/6
f 2/34/3 10/36/3 15/35/3 12/9/3
f 9/37/6 16/40/6 15/39/6 10/38/6
f 3/41/5 11/17/5 14/18/5 4/42/5
f 4/43/4 14/13/4 13/14/4 1/27/4
f 2/34/3 12/9/3 11/10/3 3/44/3
