# Blender 4.4.3
# www.blender.org
o LVL1-CeillingA
v -3.333267 0.000000 -9.397903
v -3.333267 0.000000 92.119263
v 3.333267 0.000000 -9.397903
v -3.333267 0.000000 -28.593887
v 3.333267 0.000000 -28.593887
v 3.333268 2.150753 -97.114334
v -3.333266 2.150753 -97.114334
v 3.333267 2.150753 -28.593887
v -3.333267 2.150753 -28.593887
v 3.333267 2.150757 -9.397903
v -3.333267 2.150757 -9.397903
v 3.333267 2.150757 92.119263
v -3.333267 2.150757 92.119263
v 3.333267 0.000000 92.119263
v 3.333267 2.150757 97.114319
v -3.333267 2.150757 97.114319
v 3.333267 0.000000 97.114319
v -3.333267 0.000000 97.114319
v 3.333267 0.000000 -97.114334
v -3.333267 0.000000 -97.114334
vn -0.0000 -1.0000 -0.0000
vn 1.0000 -0.0000 -0.0000
vn -0.0000 1.0000 -0.0000
vn -0.0000 -0.0000 1.0000
vn -0.0000 -0.0000 -1.0000
vt 0.709359 0.446907
vt 0.709359 0.020958
vt 0.740647 0.020958
vt 0.740647 0.446907
vt 0.740647 0.527450
vt 0.709359 0.527450
vt 0.709359 0.814950
vt 0.740647 0.814950
vt 0.806783 0.527450
vt 0.816877 0.527450
vt 0.816877 0.814950
vt 0.806783 0.814950
vt 0.758071 0.814950
vt 0.758071 0.527450
vt 0.789359 0.527450
vt 0.789359 0.814950
vt 0.758071 0.446907
vt 0.789359 0.446907
vt 0.806783 0.446907
vt 0.816877 0.446907
vt 0.758071 0.020958
vt 0.789359 0.020958
vt 0.806783 0.020958
vt 0.816877 0.020958
vt 0.758071 0.000000
vt 0.789359 0.000000
vt 0.806783 0.000000
vt 0.816877 0.000000
vt 0.350255 0.816773
vt 0.360349 0.816773
vt 0.360349 0.844744
vt 0.350255 0.844744
vt 0.709359 0.000000
vt 0.740647 0.000000
vt 0.377773 0.816773
vt 0.387867 0.816773
vt 0.387867 0.844744
vt 0.377773 0.844744
s 0
f 3/1/1 14/2/1 2/3/1 1/4/1
f 3/1/1 1/4/1 4/5/1 5/6/1
f 19/7/1 5/6/1 4/5/1 20/8/1
f 8/9/2 5/10/2 19/11/2 6/12/2
f 7/13/3 9/14/3 8/15/3 6/16/3
f 11/17/3 10/18/3 8/15/3 9/14/3
f 10/19/2 3/20/2 5/10/2 8/9/2
f 11/17/3 13/21/3 12/22/3 10/18/3
f 12/23/2 14/24/2 3/20/2 10/19/2
f 12/22/3 13/21/3 16/25/3 15/26/3
f 14/24/2 12/23/2 15/27/2 17/28/2
f 16/29/4 18/30/4 17/31/4 15/32/4
f 2/3/1 14/2/1 17/33/1 18/34/1
f 6/35/5 19/36/5 20/37/5 7/38/5
