# Blender 4.4.3
# www.blender.org
o LVL3-Interior.002
v 6.729514 -82.489151 -121.071091
v 6.666368 -82.517502 -148.285843
v 7.173353 -86.651245 -148.285812
v 7.236500 -86.622894 -121.071075
v -3.389608 -87.129936 -148.285843
v -3.326463 -87.101578 -121.071091
v -3.389608 -82.517502 -148.285843
v -3.326463 -82.489151 -121.071091
v 7.173353 -82.996216 -148.285812
v 7.236500 -82.967865 -121.071075
v -4.737744 -82.489090 -121.086288
v -4.800890 -82.517441 -148.301025
v 6.729514 -87.101578 -121.071091
v 6.666368 -87.129936 -148.285843
v 1.701526 -82.489151 -121.071091
v 1.638380 -82.517502 -148.285843
v -4.800890 -87.129936 -148.285843
v -4.737744 -87.101578 -121.071091
v 1.638380 -87.129936 -148.285843
v 1.701525 -87.101578 -121.071091
vn -0.0000 1.0000 -0.0010
vn 0.6865 -0.7271 -0.0008
vn 0.0001 1.0000 -0.0010
vn -0.0000 -1.0000 0.0010
vn 1.0000 -0.0000 -0.0023
vn 0.6865 0.7271 -0.0024
vn -0.0000 -0.0000 1.0000
vn -0.0054 0.0016 1.0000
vn -1.0000 -0.0000 0.0023
vn 0.0054 -0.0016 -1.0000
vn -0.0000 -0.0000 -1.0000
vn 0.0001 -0.0000 -1.0000
vt 0.196327 0.651044
vt 0.189677 0.651060
vt 0.189677 0.615094
vt 0.196327 0.615078
vt 0.202976 0.651028
vt 0.202976 0.615062
vt 0.368368 0.656615
vt 0.367696 0.656561
vt 0.367696 0.620713
vt 0.368368 0.620767
vt 0.187811 0.651085
vt 0.187811 0.615119
vt 0.375019 0.656629
vt 0.375019 0.620781
vt 0.645128 0.699712
vt 0.640294 0.699707
vt 0.640294 0.663740
vt 0.645128 0.663745
vt 0.203659 0.651031
vt 0.203659 0.615065
vt 0.381670 0.656643
vt 0.381670 0.620796
vt 0.383536 0.620800
vt 0.383536 0.656647
vt 0.764426 0.763440
vt 0.763796 0.762770
vt 0.769871 0.762771
vt 0.769240 0.763441
vt 0.763796 0.756125
vt 0.769871 0.756126
vt 0.763796 0.749480
vt 0.769871 0.749481
vt 0.763794 0.747615
vt 0.769871 0.747616
vt 0.674582 0.631638
vt 0.674582 0.667603
vt 0.668481 0.667590
vt 0.668481 0.631624
vt 0.734341 0.763440
vt 0.734340 0.761575
vt 0.740441 0.761575
vt 0.740441 0.763440
vt 0.734340 0.754930
vt 0.740441 0.754930
vt 0.734340 0.748285
vt 0.740441 0.748285
vt 0.734974 0.747615
vt 0.739808 0.747615
s 0
f 16/1/1 7/2/1 8/3/1 15/4/1
f 2/5/1 16/1/1 15/4/1 1/6/1
f 14/7/2 3/8/2 4/9/2 13/10/2
f 7/2/3 12/11/3 11/12/3 8/3/3
f 19/13/4 14/7/4 13/10/4 20/14/4
f 3/15/5 9/16/5 10/17/5 4/18/5
f 9/19/6 2/5/6 1/6/6 10/20/6
f 5/21/4 6/22/4 18/23/4 17/24/4
f 5/21/4 19/13/4 20/14/4 6/22/4
f 10/25/7 1/26/7 13/27/7 4/28/7
f 1/26/7 15/29/7 20/30/7 13/27/7
f 15/29/7 8/31/7 6/32/7 20/30/7
f 8/31/8 11/33/8 18/34/8 6/32/8
f 11/35/9 12/36/9 17/37/9 18/38/9
f 12/39/10 7/40/10 5/41/10 17/42/10
f 7/40/11 16/43/11 19/44/11 5/41/11
f 16/43/11 2/45/11 14/46/11 19/44/11
f 2/45/12 9/47/12 3/48/12 14/46/12
