# Blender 4.4.3
# www.blender.org
o LVL3-Interior.001
v -7.586465 -41.229122 -46.121880
v -7.586465 -41.229122 -67.835472
v -6.596279 -41.229073 -67.835472
v -6.596279 -41.229073 -46.121880
v 6.760209 -37.368431 -46.121880
v 6.760209 -37.368431 -67.835472
v -3.295768 -37.368431 -67.835472
v -3.295768 -37.368431 -46.121880
v -6.596279 -37.368431 -46.121880
v -6.596279 -37.368431 -67.835472
v -7.586465 -37.368481 -67.835472
v -7.586465 -37.368481 -46.121880
v -3.295768 -41.229073 -46.121880
v -3.295768 -41.229073 -67.835472
v 6.760209 -41.229073 -67.835472
v 6.760209 -41.229073 -46.121880
v -9.016226 -38.962482 -46.121880
v -9.016226 -38.962482 -67.835472
v -9.016226 -41.229160 -67.835472
v -9.016226 -41.229160 -46.121880
v -8.107854 -41.229153 -46.121880
v -8.107854 -41.229153 -67.835472
v -8.107854 -37.368515 -46.121880
v -8.107854 -37.368515 -67.835472
v -9.016226 -37.368523 -67.835472
v -9.016226 -37.368523 -46.121880
v -4.707156 -37.368431 -67.835472
v -4.707156 -37.368431 -46.121880
v 6.760209 -38.962395 -67.835472
v 6.760209 -38.962395 -46.121880
v 7.266028 -38.557522 -67.835472
v 7.266028 -38.557522 -46.121880
v 7.266028 -37.773308 -46.121880
v 7.266028 -37.773308 -67.835472
v -4.707156 -41.229073 -46.121880
v -4.707156 -41.229073 -67.835472
v -7.586465 -38.962444 -46.121880
v -7.586465 -38.962444 -67.835472
v -6.596279 -38.962395 -67.835472
v -6.596279 -38.962395 -46.121880
v -3.295768 -38.962395 -46.121880
v -3.295768 -38.962395 -67.835472
v -8.107854 -38.962475 -46.121880
v -8.107854 -38.962475 -67.835472
v -4.707156 -38.962395 -46.121880
v -4.707156 -38.962395 -67.835472
vn -0.0000 1.0000 -0.0000
vn -0.0000 -1.0000 -0.0000
vn 1.0000 -0.0000 -0.0000
vn 0.6249 0.7807 -0.0000
vn -0.0001 1.0000 -0.0000
vn 0.6249 -0.7807 -0.0000
vn -1.0000 -0.0000 -0.0000
vn 0.0001 -1.0000 -0.0000
vn -0.0000 -0.0000 -1.0000
vn -0.0000 -0.0000 1.0000
vt 0.412615 0.645466
vt 0.410116 0.645467
vt 0.410116 0.616771
vt 0.412615 0.616771
vt 0.331687 0.657484
vt 0.329188 0.657484
vt 0.329188 0.628885
vt 0.331687 0.628885
vt 0.333686 0.628885
vt 0.334888 0.628884
vt 0.334888 0.657483
vt 0.333686 0.657483
vt 0.747508 0.232098
vt 0.746471 0.232098
vt 0.746471 0.203402
vt 0.747508 0.203402
vt 0.327321 0.628886
vt 0.327321 0.657485
vt 0.427780 0.616769
vt 0.428460 0.616772
vt 0.428460 0.645468
vt 0.427780 0.645464
vt 0.408117 0.616771
vt 0.408807 0.616771
vt 0.408807 0.645467
vt 0.408117 0.645467
vt 0.751802 0.028643
vt 0.751131 0.028599
vt 0.751131 0.000000
vt 0.751802 0.000044
vt 0.668481 0.690936
vt 0.671479 0.690936
vt 0.671479 0.719632
vt 0.668481 0.719632
vt 0.520635 0.681609
vt 0.522744 0.681609
vt 0.522744 0.710305
vt 0.520635 0.710305
vt 0.414481 0.616770
vt 0.414481 0.645466
vt 0.406916 0.645467
vt 0.406916 0.616771
vt 0.332997 0.628885
vt 0.332997 0.657484
vt 0.517637 0.710306
vt 0.517637 0.681610
vt 0.314020 0.657487
vt 0.314020 0.628888
vt 0.645128 0.743362
vt 0.645128 0.744563
vt 0.642130 0.744563
vt 0.642130 0.743362
vt 0.146628 0.731983
vt 0.146628 0.745272
vt 0.143642 0.745272
vt 0.143642 0.731982
vt 0.645128 0.738868
vt 0.645128 0.741365
vt 0.642130 0.741364
vt 0.642130 0.738868
vt 0.645128 0.737003
vt 0.642130 0.737003
vt 0.146628 0.727621
vt 0.146628 0.730117
vt 0.143642 0.730117
vt 0.143642 0.727620
vt 0.645128 0.742673
vt 0.642130 0.742673
vt 0.146628 0.725623
vt 0.146628 0.726312
vt 0.143642 0.726311
vt 0.143642 0.725622
vt 0.146628 0.724423
vt 0.143642 0.724422
vt 0.645128 0.723713
vt 0.642130 0.723713
vt 0.640022 0.744563
vt 0.640022 0.743362
vt 0.640022 0.742673
vt 0.640022 0.741364
vt 0.640022 0.738868
vt 0.141543 0.731981
vt 0.141543 0.730116
vt 0.640022 0.737003
vt 0.640022 0.723713
vt 0.141543 0.727619
vt 0.141543 0.726311
vt 0.141543 0.745271
vt 0.141543 0.725622
vt 0.141543 0.724421
vt 0.142076 0.745940
vt 0.143109 0.745940
vt 0.641595 0.723044
vt 0.640557 0.723044
s 0
f 27/1/1 10/2/1 9/3/1 28/4/1
f 3/5/2 36/6/2 35/7/2 4/8/2
f 21/9/2 20/10/2 19/11/2 22/12/2
f 31/13/3 34/14/3 33/15/3 32/16/3
f 13/17/2 35/7/2 36/6/2 14/18/2
f 5/19/4 33/20/4 34/21/4 6/22/4
f 23/23/5 12/24/5 11/25/5 24/26/5
f 29/27/6 31/28/6 32/29/6 30/30/6
f 30/31/3 16/32/3 15/33/3 29/34/3
f 17/35/7 26/36/7 25/37/7 18/38/7
f 28/4/1 8/39/1 7/40/1 27/1/1
f 24/26/1 25/41/1 26/42/1 23/23/1
f 1/43/8 21/9/8 22/12/8 2/44/8
f 18/38/7 19/45/7 20/46/7 17/35/7
f 14/18/2 15/47/2 16/48/2 13/17/2
f 10/2/5 11/25/5 12/24/5 9/3/5
f 6/22/1 7/40/1 8/39/1 5/19/1
f 2/44/8 3/5/8 4/8/8 1/43/8
f 22/49/9 19/50/9 18/51/9 44/52/9
f 13/53/10 16/54/10 30/55/10 41/56/10
f 36/57/9 3/58/9 39/59/9 46/60/9
f 14/61/9 36/57/9 46/60/9 42/62/9
f 4/63/10 35/64/10 45/65/10 40/66/10
f 3/58/9 2/67/9 38/68/9 39/59/9
f 21/69/10 1/70/10 37/71/10 43/72/10
f 20/73/10 21/69/10 43/72/10 17/74/10
f 15/75/9 14/61/9 42/62/9 29/76/9
f 1/70/10 4/63/10 40/66/10 37/71/10
f 35/64/10 13/53/10 41/56/10 45/65/10
f 2/67/9 22/49/9 44/52/9 38/68/9
f 44/52/9 18/51/9 25/77/9 24/78/9
f 39/59/9 38/68/9 11/79/9 10/80/9
f 46/60/9 39/59/9 10/80/9 27/81/9
f 38/68/9 44/52/9 24/78/9 11/79/9
f 45/65/10 41/56/10 8/82/10 28/83/10
f 29/76/9 42/62/9 7/84/9 6/85/9
f 37/71/10 40/66/10 9/86/10 12/87/10
f 40/66/10 45/65/10 28/83/10 9/86/10
f 42/62/9 46/60/9 27/81/9 7/84/9
f 41/56/10 30/55/10 5/88/10 8/82/10
f 17/74/10 43/72/10 23/89/10 26/90/10
f 43/72/10 37/71/10 12/87/10 23/89/10
f 33/91/10 5/88/10 30/55/10 32/92/10
f 31/93/9 29/76/9 6/85/9 34/94/9
