# Blender 4.4.3
# www.blender.org
o LVL2-FirePlace
v -3.366289 7.866606 6.067238
v -3.443446 7.866606 -6.066765
v 3.443445 7.866606 6.067238
v 3.366288 7.866606 -6.066765
v -3.366289 12.875412 3.491096
v -3.443446 12.875412 -3.490623
v 0.271366 12.875412 3.491096
v 0.194209 12.875412 -3.490623
v 3.366288 9.003893 -6.066765
v -3.443446 9.003893 -6.066765
v -3.366289 9.003893 6.067238
v 3.443445 9.003893 6.067238
v -3.366289 0.000000 6.067238
v -3.443446 0.000000 -6.066765
v 3.443445 0.000000 6.067238
v 3.366288 0.000000 -6.066765
v 3.880509 7.866606 6.501534
v 3.797829 7.866606 -6.501060
v -3.443446 7.866606 -6.501060
v -3.366289 7.866606 6.501534
v -3.443446 9.003893 -6.501060
v -3.366289 9.003893 6.501534
v 3.880509 9.003893 6.501534
v 3.797829 9.003893 -6.501060
v 4.261774 8.352804 6.880379
v 4.176677 8.352804 -6.882324
v -3.443446 8.352804 -7.038544
v -3.366289 8.352804 7.039017
v -3.443446 9.003893 -7.038544
v -3.366289 9.003893 7.039017
v 4.261774 9.003893 6.880379
v 4.176677 9.003893 -6.882324
v -3.374001 13.542538 3.301529
v -3.443446 13.542538 -3.301056
v 0.070830 13.542538 3.301529
v 0.001385 13.542538 -3.301056
v -3.381804 13.542538 3.109718
v -3.443446 13.542538 -3.109245
v -0.132080 13.542538 3.109718
v -0.193721 13.542538 -3.109245
v -3.381804 33.657303 2.522331
v -3.443446 33.657303 -2.521858
v -3.366289 2.454086 6.067238
v 3.443445 2.454086 6.067238
v 3.366288 2.454086 -6.066765
v -3.443446 2.454086 -6.066765
v 3.443445 5.135302 6.067238
v 3.366288 5.135302 -6.066765
v -3.443446 5.135302 -6.066765
v -3.366289 5.135302 6.067238
v 3.443445 6.480854 6.067238
v 3.366288 6.480854 -6.066765
v -3.443446 6.480854 -6.066765
v -3.366289 6.480854 6.067238
v -3.380153 7.866606 3.886902
v -3.429581 7.866606 -3.886444
v 3.380152 7.866606 -3.886444
v 3.429581 7.866606 3.886902
v -3.429582 12.875412 -2.236099
v -3.380153 12.875412 2.236572
v 0.257502 12.875412 2.236572
v 0.208074 12.875412 -2.236099
v 3.380152 9.003893 -3.886444
v 3.429581 9.003893 3.886902
v -3.380153 9.003893 3.886902
v -3.429581 9.003893 -3.886444
v -3.429581 0.000000 -3.576355
v -3.380153 0.000000 3.576363
v 3.429581 0.000000 3.576363
v 3.380152 0.000000 -3.576355
v 3.812685 7.866606 -4.164658
v 3.865652 7.866606 4.165131
v 3.812685 9.003893 -4.164658
v 3.865652 9.003893 4.165131
v 4.246483 8.352804 4.407394
v 4.191968 8.352804 -4.409332
v 4.246483 9.003893 4.407394
v 4.191968 9.003893 -4.409332
v -3.392880 33.657303 1.615952
v -3.432369 33.657303 -1.615479
v 0.058352 13.542538 2.115128
v 0.013864 13.542538 -2.114655
v -3.392880 13.542538 1.992249
v -3.432369 13.542538 -1.991776
v -0.182645 13.542538 -1.991776
v -0.143156 13.542538 1.992249
v -3.429581 2.454086 -3.576355
v -3.380153 2.454086 3.576363
v 3.429581 2.454086 3.576363
v 3.380152 2.454086 -3.576355
v 3.429581 5.135302 3.576363
v 3.380152 5.135302 -3.576355
v -3.429581 5.135302 -3.576355
v -3.380153 5.135302 3.576363
v -3.429581 6.480854 -3.576355
v -3.380153 6.480854 3.576363
v 3.422700 6.576029 2.271004
v 3.387033 6.576029 -2.271629
v 3.418579 5.643217 1.746140
v 3.391154 5.643217 -1.746765
v 3.423870 4.513428 2.749916
v 3.385863 4.513428 -2.749908
v 3.423870 2.454086 2.749916
v 3.385863 2.454086 -2.749908
v -3.443446 0.000000 -6.638435
v 3.934333 0.000000 -6.638435
v 4.018760 0.000000 6.638908
v -3.366289 0.000000 6.638908
v -3.366289 2.454086 6.638908
v 4.018760 2.454086 6.638908
v 3.934333 2.454086 -6.638435
v -3.443446 2.454086 -6.638435
v 3.994358 6.576029 2.268059
v 3.958689 6.576029 -2.274567
v 4.001238 5.135302 3.573021
v 3.951809 2.454086 -3.579697
v 3.957520 2.454086 -2.753250
v 3.951809 5.135302 -3.579697
v 4.001238 2.454086 3.573021
v 3.951809 0.000000 -3.579697
v 4.001238 0.000000 3.573021
v 3.990237 5.643217 1.743195
v 3.962811 5.643217 -1.749702
v 3.995527 4.513428 2.746574
v 3.957520 4.513428 -2.753250
v 3.995527 2.454086 2.746574
v -3.443446 0.000000 -6.842857
v 4.137461 0.000000 -6.842857
v 4.224488 0.000000 6.843330
v -3.366289 0.000000 6.843330
v -3.366289 2.454086 6.843330
v 4.224488 2.454086 6.843330
v 4.137461 2.454086 -6.842857
v -3.443446 2.454086 -6.842857
v 4.197942 6.386967 2.160629
v 4.163944 6.386967 -2.169235
v 4.204500 5.009260 3.404327
v 4.157386 2.454086 -3.413391
v 4.189528 2.335840 -2.942383
v 4.157386 5.009260 -3.413391
v 4.204500 2.454086 3.404327
v 4.156229 0.000000 -3.580894
v 4.205657 0.000000 3.571831
v 4.195592 5.855154 1.745811
v 4.166294 5.855154 -1.870003
v 4.201244 4.654718 2.933151
v 4.160643 4.654718 -2.942215
v 4.231664 2.335840 2.932549
v -3.443446 0.000000 -7.045593
v 4.338913 0.000000 -7.045593
v 4.428518 0.000000 7.046066
v -3.366289 0.000000 7.046066
v -3.366289 2.039127 7.046066
v 4.428518 2.039127 7.046066
v 4.338913 2.039127 -7.045593
v -3.443446 2.039127 -7.045593
v 4.358961 2.039127 -3.582077
v 4.364672 2.039127 -2.755630
v 4.408390 2.039127 3.570641
v 4.358961 0.000000 -3.582077
v 4.408390 0.000000 3.570641
v 4.402679 2.039127 2.744194
v -3.366289 5.896101 6.067238
v 3.443445 5.896101 6.067238
v 3.366288 5.896101 -6.066765
v -3.443446 5.896101 -6.066765
v -3.429581 5.896101 -3.576355
v -3.380153 5.896101 3.576363
v 3.427815 5.896101 3.107216
v 3.381918 5.896101 -3.088295
v 3.422512 5.194426 2.391365
v 3.387221 5.194426 -2.372444
v 3.999472 5.896101 3.104103
v 3.953575 5.896101 -3.091408
v 3.994169 5.194426 2.388245
v 3.958878 5.194426 -2.375565
v 4.202817 5.753885 2.957901
v 4.159070 5.753885 -2.947441
v 4.199793 5.353848 2.549782
v 4.162093 5.353848 -2.539322
v 2.800280 5.643230 1.750603
v 2.772854 5.643230 -1.742302
v 2.804213 5.194439 2.395828
v 2.805570 4.513441 2.754379
v 2.767564 4.513441 -2.745445
v 2.768922 5.194439 -2.367981
v 2.805570 2.454100 2.754379
v 2.767564 2.454100 -2.745445
v -3.443446 13.208975 -3.490623
v 0.194209 13.208975 -3.490623
v -3.366289 13.208975 3.491096
v 0.271366 13.208975 3.491096
v 0.208074 13.208975 -2.236099
v 0.257502 13.208975 2.236572
v -3.386544 13.210421 2.113884
v -3.430979 13.209764 -2.113647
v -0.493660 16.153116 2.839874
v -0.919153 27.606806 2.522331
v -0.794522 20.780302 2.615341
v -3.381804 16.153116 2.839874
v -3.381804 27.606806 2.522331
v -3.381804 20.780302 2.615349
v -0.555301 16.153116 -2.839401
v -0.980795 27.606806 -2.521858
v -0.856163 20.780302 -2.614868
v -3.443446 16.153116 -2.839401
v -3.443446 27.606806 -2.521858
v -3.443446 20.780302 -2.614876
v -3.392880 16.153116 1.819382
v -3.392880 27.606806 1.615952
v -3.392880 20.780302 1.675537
v -3.432369 27.606806 -1.615479
v -3.432369 16.153116 -1.818909
v -3.432369 20.780302 -1.675064
v -0.544225 16.153116 -1.818909
v -0.969719 27.606806 -1.615479
v -0.845095 20.780302 -1.675064
v -0.930230 27.606806 1.615952
v -0.504736 16.153116 1.819382
v -0.805605 20.780302 1.675537
v -3.382542 31.254686 2.522339
v -0.916875 32.819450 2.522308
v -0.927879 32.818787 1.615929
v -3.393546 31.254019 1.615959
v -0.967108 32.816383 -1.615509
v -0.978112 32.815712 -2.521889
v -3.443779 31.250944 -2.521858
v -3.432775 31.251619 -1.615471
v -3.443446 35.360580 -3.676132
v 0.156712 35.361710 -3.673347
v 0.243044 35.368530 3.670410
v -3.381804 35.369514 3.667671
v -3.392880 35.365067 1.615952
v -3.432369 35.365067 -1.615479
v 0.219476 35.365067 1.601898
v 0.179987 35.365067 -1.629532
v 0.156546 33.492027 3.762779
v 0.214818 33.544052 1.601952
v 0.068999 33.488838 -3.757652
v -3.444591 31.258432 -3.671631
v -3.381730 31.247198 3.672119
v 0.175589 33.541664 -1.629486
v -3.468185 35.381645 -5.225769
v 0.131972 35.382774 -5.222977
v 0.214879 35.393944 5.219917
v -3.409968 35.394928 5.217178
v 0.128381 34.568291 5.312286
v 0.044259 34.568291 -5.307281
v -3.469331 34.568291 -5.221260
v -3.409894 34.568291 5.221626
vn -0.0000 -1.0000 -0.0000
vn -0.0000 0.4941 -0.8694
vn -0.0000 0.5540 -0.8325
vn -1.0000 0.0044 0.0081
vn -0.0000 0.5540 0.8325
vn 0.8597 0.5107 -0.0093
vn -0.0000 1.0000 -0.0000
vn 1.0000 -0.0009 -0.0058
vn -1.0000 -0.0000 0.0056
vn 0.7871 -0.6168 -0.0049
vn 0.0049 -0.4849 0.8746
vn 0.7886 -0.6149 -0.0049
vn 0.0077 -0.6874 0.7262
vn -1.0000 -0.0000 -0.0000
vn 1.0000 0.0009 -0.0058
vn -0.9999 -0.0009 0.0104
vn 0.0208 -0.0000 0.9998
vn 0.0205 -0.0000 -0.9998
vn 0.0076 -0.6883 -0.7254
vn -0.9999 0.0009 0.0104
vn -0.0000 0.4941 0.8694
vn 0.7752 0.6317 -0.0063
vn 0.9906 0.1363 -0.0103
vn -0.9999 0.0002 0.0122
vn -1.0000 0.0002 0.0005
vn 1.0000 -0.0000 -0.0056
vn -0.0000 -0.0000 -1.0000
vn 1.0000 0.0006 -0.0054
vn -0.0000 -0.0000 1.0000
vn -1.0000 -0.0000 0.0064
vn -1.0000 -0.0044 0.0081
vn 1.0000 -0.0005 -0.0054
vn 0.5358 -0.8443 -0.0059
vn -0.0000 0.1028 -0.9947
vn -1.0000 0.0001 0.0003
vn 1.0000 -0.0000 -0.0062
vn -1.0000 -0.0007 0.0059
vn 0.8630 0.5050 -0.0093
vn 0.7718 0.6358 -0.0062
vn 1.0000 -0.0000 -0.0069
vn -1.0000 -0.0000 0.0066
vn -1.0000 -0.0000 0.0069
vn 0.0048 0.5248 0.8512
vn -0.9999 -0.0000 0.0104
vn 0.8614 0.5079 -0.0093
vn 0.9905 0.1372 -0.0103
vn 0.7878 -0.6159 -0.0049
vn 0.7735 0.6338 -0.0062
vn -1.0000 -0.0000 0.0081
vn -1.0000 0.0007 0.0059
vn -0.0041 -0.8209 -0.5710
vn -0.0030 -0.8209 -0.5710
vn -0.0058 -0.0000 -1.0000
vn 0.7189 -0.6950 -0.0057
vn 0.6289 -0.0000 -0.7775
vn 0.6558 0.0043 0.7549
vn 0.6386 -0.0000 0.7695
vn 0.4509 0.8926 -0.0032
vn 0.7100 0.5415 -0.4502
vn -0.0034 0.7686 -0.6398
vn 0.0058 -0.0000 1.0000
vn -0.0000 0.4390 0.8985
vn 0.8984 0.4392 -0.0052
vn -0.0000 0.4390 -0.8985
vn 0.8986 0.4387 -0.0052
vn 0.6790 0.7341 -0.0053
vn 0.6977 -0.5973 -0.3955
vn 0.7088 0.3677 0.6020
vn 0.7460 -0.3290 0.5790
vn 0.6445 0.0046 -0.7646
vn 1.0000 -0.0000 -0.0058
vn 0.8835 0.4681 0.0169
vn 0.8638 0.5039 -0.0061
vn 1.0000 0.0009 -0.0080
vn 1.0000 0.0006 -0.0068
vn 1.0000 -0.0013 -0.0060
vn 0.9994 0.0059 -0.0346
vn 0.9997 0.0062 0.0222
vn 0.8840 0.4666 -0.0279
vn 1.0000 -0.0005 -0.0060
vn 1.0000 0.0014 -0.0059
vn 0.7544 -0.5315 0.3852
vn 0.7158 0.5464 0.4348
vn 0.7372 -0.3187 -0.5958
vn -0.0048 0.5400 -0.8416
vn 0.7023 0.3800 -0.6020
vn -0.0050 -0.4658 -0.8849
vn 0.0033 0.7759 0.6309
vn 1.0000 0.0005 -0.0054
vn 1.0000 -0.0006 -0.0054
vn 0.0031 -0.8126 0.5828
vn 1.0000 0.0001 -0.0071
vn 1.0000 -0.0002 -0.0076
vn 0.0042 -0.8126 0.5828
vn -0.0064 -0.4659 -0.8848
vn 0.0063 -0.4848 0.8746
vn 0.0072 -0.0000 1.0000
vn -0.0072 -0.0000 -1.0000
vn 0.9999 -0.0000 -0.0111
vn -0.9999 -0.0092 0.0094
vn -0.9999 -0.0072 0.0130
vn -0.9999 -0.0116 0.0108
vn -0.9999 -0.0116 0.0102
vn -0.9992 -0.0000 0.0406
vn -0.9999 -0.0039 0.0100
vn -0.9996 -0.0233 0.0125
vn -0.9999 0.0003 0.0122
vn -0.9999 -0.0000 0.0122
vn 0.9904 0.1380 -0.0103
vn -1.0000 -0.0025 0.0075
vn -0.0000 0.1028 0.9947
vn 0.9998 0.0183 -0.0120
vn 0.9978 0.0649 -0.0113
vn -0.9999 -0.0000 0.0120
vn -0.9999 -0.0000 0.0113
vn -0.9999 0.0001 0.0120
vn -0.9999 0.0004 0.0113
vn 0.9998 0.0184 -0.0120
vn 0.9978 0.0653 -0.0113
vn -0.0000 0.0136 -0.9999
vn -0.0000 0.0485 -0.9988
vn -0.0000 0.0136 0.9999
vn -0.0000 0.0485 0.9988
vn 0.9998 0.0181 -0.0120
vn 0.9979 0.0644 -0.0113
vn -0.9999 -0.0001 0.0120
vn -0.9999 -0.0004 0.0113
vn -0.9999 -0.0001 0.0122
vn 0.9999 -0.0004 -0.0122
vn -0.9999 -0.0002 0.0122
vn 0.9999 -0.0005 -0.0122
vn -0.0002 1.0000 -0.0019
vn 0.0001 1.0000 -0.0019
vn 0.9992 -0.0242 -0.0308
vn 0.9999 -0.0025 -0.0122
vn -0.0003 0.9999 0.0136
vn 0.9997 -0.0244 0.0079
vn -0.9999 0.0005 0.0165
vn -1.0000 0.0025 0.0075
vn -0.0117 0.0496 -0.9987
vn -0.0130 0.0592 0.9982
vn 0.1606 -0.5681 -0.8071
vn 0.1593 -0.5673 0.8079
vn -0.9998 -0.0001 -0.0181
vn 0.0003 0.9999 -0.0164
vn 0.9973 -0.0627 -0.0382
vn 0.9973 -0.0611 0.0399
vt 0.000000 0.000000
s 0
f 13/1/1 15/1/1 107/1/1 108/1/1
f 190/1/2 189/1/2 34/1/2 36/1/2
f 10/1/3 6/1/3 8/1/3 9/1/3
f 11/1/4 5/1/4 60/1/4 65/1/4
f 12/1/5 7/1/5 5/1/5 11/1/5
f 192/1/6 194/1/6 81/1/6 35/1/6
f 4/1/1 2/1/1 19/1/1 18/1/1
f 12/1/7 11/1/7 22/1/7 23/1/7
f 4/1/8 57/1/8 98/1/8 52/1/8
f 10/1/7 9/1/7 24/1/7 21/1/7
f 43/1/9 88/1/9 68/1/9 13/1/9
f 71/1/10 18/1/10 26/1/10 76/1/10
f 172/1/11 102/1/11 125/1/11 176/1/11
f 13/1/1 68/1/1 69/1/1 15/1/1
f 21/1/7 24/1/7 32/1/7 29/1/7
f 17/1/12 72/1/12 75/1/12 25/1/12
f 20/1/13 17/1/13 25/1/13 28/1/13
f 2/1/14 10/1/14 21/1/14 19/1/14
f 9/1/7 63/1/7 73/1/7 24/1/7
f 1/1/1 3/1/1 17/1/1 20/1/1
f 58/1/15 3/1/15 51/1/15 97/1/15
f 11/1/14 1/1/14 20/1/14 22/1/14
f 38/1/16 84/1/16 213/1/16 206/1/16
f 25/1/17 31/1/17 30/1/17 28/1/17
f 27/1/18 29/1/18 32/1/18 26/1/18
f 24/1/7 73/1/7 78/1/7 32/1/7
f 19/1/14 21/1/14 29/1/14 27/1/14
f 18/1/19 19/1/19 27/1/19 26/1/19
f 23/1/7 22/1/7 30/1/7 31/1/7
f 22/1/14 20/1/14 28/1/14 30/1/14
f 83/1/20 37/1/20 200/1/20 209/1/20
f 82/1/7 36/1/7 40/1/7 85/1/7
f 191/1/21 192/1/21 35/1/21 33/1/21
f 64/1/22 61/1/22 7/1/22 12/1/22
f 39/1/23 86/1/23 219/1/23 197/1/23
f 33/1/7 35/1/7 39/1/7 37/1/7
f 35/1/7 81/1/7 86/1/7 39/1/7
f 36/1/7 34/1/7 38/1/7 40/1/7
f 227/1/24 228/1/24 80/1/24 42/1/24
f 227/1/25 42/1/25 229/1/25 240/1/25
f 48/1/26 92/1/26 90/1/26 45/1/26
f 49/1/27 48/1/27 45/1/27 46/1/27
f 165/1/28 170/1/28 92/1/28 48/1/28
f 47/1/29 50/1/29 43/1/29 44/1/29
f 164/1/29 163/1/29 50/1/29 47/1/29
f 163/1/9 168/1/9 94/1/9 50/1/9
f 166/1/27 165/1/27 48/1/27 49/1/27
f 1/1/30 11/1/30 65/1/30 55/1/30
f 2/1/27 4/1/27 52/1/27 53/1/27
f 66/1/31 59/1/31 6/1/31 10/1/31
f 3/1/29 1/1/29 54/1/29 51/1/29
f 3/1/1 58/1/1 72/1/1 17/1/1
f 56/1/30 66/1/30 10/1/30 2/1/30
f 167/1/9 166/1/9 49/1/9 93/1/9
f 169/1/32 164/1/32 47/1/32 91/1/32
f 91/1/26 47/1/26 44/1/26 89/1/26
f 93/1/9 49/1/9 46/1/9 87/1/9
f 225/1/33 226/1/33 239/1/33 242/1/33
f 40/1/34 38/1/34 206/1/34 203/1/34
f 64/1/7 12/1/7 23/1/7 74/1/7
f 41/1/35 221/1/35 241/1/35 232/1/35
f 50/1/9 94/1/9 88/1/9 43/1/9
f 26/1/36 32/1/36 78/1/36 76/1/36
f 75/1/36 77/1/36 31/1/36 25/1/36
f 57/1/1 4/1/1 18/1/1 71/1/1
f 87/1/9 46/1/9 14/1/9 67/1/9
f 74/1/7 23/1/7 31/1/7 77/1/7
f 70/1/1 16/1/1 106/1/1 120/1/1
f 16/1/1 14/1/1 105/1/1 106/1/1
f 67/1/1 14/1/1 16/1/1 70/1/1
f 1/1/37 55/1/37 96/1/37 54/1/37
f 193/1/38 190/1/38 36/1/38 82/1/38
f 9/1/39 8/1/39 62/1/39 63/1/39
f 58/1/40 97/1/40 98/1/40 57/1/40
f 56/1/41 95/1/41 96/1/41 55/1/41
f 167/1/42 93/1/42 94/1/42 168/1/42
f 169/1/43 91/1/43 115/1/43 173/1/43
f 15/1/1 69/1/1 121/1/1 107/1/1
f 93/1/42 87/1/42 88/1/42 94/1/42
f 83/1/44 209/1/44 213/1/44 84/1/44
f 82/1/7 85/1/7 86/1/7 81/1/7
f 193/1/45 82/1/45 81/1/45 194/1/45
f 222/1/33 223/1/33 238/1/33 237/1/33
f 85/1/46 215/1/46 219/1/46 86/1/46
f 74/1/7 77/1/7 78/1/7 73/1/7
f 77/1/36 75/1/36 76/1/36 78/1/36
f 57/1/1 71/1/1 72/1/1 58/1/1
f 64/1/7 74/1/7 73/1/7 63/1/7
f 71/1/47 76/1/47 75/1/47 72/1/47
f 87/1/42 67/1/42 68/1/42 88/1/42
f 69/1/1 70/1/1 120/1/1 121/1/1
f 67/1/1 70/1/1 69/1/1 68/1/1
f 66/1/30 56/1/30 55/1/30 65/1/30
f 61/1/48 64/1/48 63/1/48 62/1/48
f 59/1/49 66/1/49 65/1/49 60/1/49
f 56/1/50 2/1/50 53/1/50 95/1/50
f 103/1/7 104/1/7 188/1/7 187/1/7
f 99/1/51 171/1/51 183/1/51 181/1/51
f 171/1/52 99/1/52 122/1/52 175/1/52
f 98/1/7 97/1/7 113/1/7 114/1/7
f 99/1/1 100/1/1 123/1/1 122/1/1
f 44/1/7 43/1/7 109/1/7 110/1/7
f 90/1/53 92/1/53 118/1/53 116/1/53
f 122/1/54 123/1/54 145/1/54 144/1/54
f 110/1/7 109/1/7 131/1/7 132/1/7
f 116/1/55 118/1/55 140/1/55 138/1/55
f 119/1/7 110/1/7 132/1/7 141/1/7
f 112/1/7 111/1/7 133/1/7 134/1/7
f 111/1/7 116/1/7 138/1/7 133/1/7
f 105/1/14 112/1/14 134/1/14 127/1/14
f 125/1/56 117/1/56 139/1/56 147/1/56
f 115/1/57 119/1/57 141/1/57 137/1/57
f 120/1/1 106/1/1 128/1/1 142/1/1
f 117/1/58 126/1/58 148/1/58 139/1/58
f 174/1/59 114/1/59 136/1/59 178/1/59
f 170/1/60 98/1/60 114/1/60 174/1/60
f 103/1/53 101/1/53 124/1/53 126/1/53
f 43/1/14 13/1/14 108/1/14 109/1/14
f 45/1/7 90/1/7 116/1/7 111/1/7
f 91/1/61 89/1/61 119/1/61 115/1/61
f 104/1/7 103/1/7 126/1/7 117/1/7
f 89/1/7 44/1/7 110/1/7 119/1/7
f 14/1/14 46/1/14 112/1/14 105/1/14
f 102/1/61 104/1/61 117/1/61 125/1/61
f 46/1/7 45/1/7 111/1/7 112/1/7
f 128/1/1 127/1/1 149/1/1 150/1/1
f 132/1/62 131/1/62 153/1/62 154/1/62
f 141/1/63 132/1/63 154/1/63 159/1/63
f 134/1/64 133/1/64 155/1/64 156/1/64
f 133/1/65 138/1/65 157/1/65 155/1/65
f 127/1/14 134/1/14 156/1/14 149/1/14
f 106/1/1 105/1/1 127/1/1 128/1/1
f 114/1/66 113/1/66 135/1/66 136/1/66
f 175/1/67 122/1/67 144/1/67 179/1/67
f 108/1/1 107/1/1 129/1/1 130/1/1
f 121/1/1 120/1/1 142/1/1 143/1/1
f 173/1/68 115/1/68 137/1/68 177/1/68
f 176/1/69 125/1/69 147/1/69 180/1/69
f 109/1/14 108/1/14 130/1/14 131/1/14
f 126/1/70 124/1/70 146/1/70 148/1/70
f 107/1/1 121/1/1 143/1/1 129/1/1
f 154/1/29 153/1/29 152/1/29 151/1/29
f 156/1/27 155/1/27 150/1/27 149/1/27
f 155/1/71 157/1/71 160/1/71 150/1/71
f 159/1/71 154/1/71 151/1/71 161/1/71
f 158/1/72 157/1/72 138/1/72 139/1/72
f 162/1/40 159/1/40 161/1/40
f 160/1/40 157/1/40 158/1/40
f 162/1/40 161/1/40 160/1/40 158/1/40
f 130/1/1 129/1/1 151/1/1 152/1/1
f 143/1/1 142/1/1 160/1/1 161/1/1
f 131/1/14 130/1/14 152/1/14 153/1/14
f 129/1/1 143/1/1 161/1/1 151/1/1
f 139/1/73 148/1/73 162/1/73 158/1/73
f 142/1/1 128/1/1 150/1/1 160/1/1
f 136/1/74 135/1/74 144/1/74 145/1/74
f 178/1/75 136/1/75 145/1/75 180/1/75
f 177/1/76 137/1/76 146/1/76 179/1/76
f 138/1/77 140/1/77 147/1/77 139/1/77
f 137/1/78 141/1/78 148/1/78 146/1/78
f 159/1/79 162/1/79 148/1/79 141/1/79
f 135/1/80 177/1/80 179/1/80 144/1/80
f 140/1/81 178/1/81 180/1/81 147/1/81
f 123/1/82 176/1/82 180/1/82 145/1/82
f 113/1/83 173/1/83 177/1/83 135/1/83
f 124/1/84 175/1/84 179/1/84 146/1/84
f 92/1/85 170/1/85 174/1/85 118/1/85
f 118/1/86 174/1/86 178/1/86 140/1/86
f 101/1/87 171/1/87 175/1/87 124/1/87
f 100/1/1 99/1/1 181/1/1 182/1/1
f 97/1/88 169/1/88 173/1/88 113/1/88
f 95/1/42 167/1/42 168/1/42 96/1/42
f 97/1/89 51/1/89 164/1/89 169/1/89
f 95/1/9 53/1/9 166/1/9 167/1/9
f 53/1/27 52/1/27 165/1/27 166/1/27
f 54/1/9 96/1/9 168/1/9 163/1/9
f 51/1/29 54/1/29 163/1/29 164/1/29
f 52/1/90 98/1/90 170/1/90 165/1/90
f 100/1/91 172/1/91 176/1/91 123/1/91
f 183/1/92 184/1/92 185/1/92 186/1/92
f 184/1/40 187/1/40 188/1/40 185/1/40
f 181/1/93 183/1/93 186/1/93 182/1/93
f 172/1/94 100/1/94 182/1/94 186/1/94
f 171/1/95 101/1/95 184/1/95 183/1/95
f 102/1/96 172/1/96 186/1/96 185/1/96
f 104/1/97 102/1/97 185/1/97 188/1/97
f 101/1/98 103/1/98 187/1/98 184/1/98
f 62/1/99 193/1/99 194/1/99 61/1/99
f 62/1/99 8/1/99 190/1/99 193/1/99
f 5/1/29 7/1/29 192/1/29 191/1/29
f 7/1/99 61/1/99 194/1/99 192/1/99
f 8/1/27 6/1/27 189/1/27 190/1/27
f 189/1/100 196/1/100 84/1/100 38/1/100
f 5/1/101 191/1/101 195/1/101 60/1/101
f 196/1/102 59/1/102 60/1/102 195/1/102
f 84/1/103 196/1/103 195/1/103 83/1/103
f 191/1/104 33/1/104 37/1/104
f 189/1/105 6/1/105 59/1/105 196/1/105
f 34/1/14 189/1/14 38/1/14
f 195/1/106 191/1/106 37/1/106 83/1/106
f 223/1/33 225/1/33 242/1/33 238/1/33
f 224/1/107 221/1/107 41/1/107 79/1/107
f 80/1/108 79/1/108 233/1/108 234/1/108
f 85/1/109 40/1/109 203/1/109 215/1/109
f 79/1/110 41/1/110 232/1/110 233/1/110
f 37/1/111 39/1/111 197/1/111 200/1/111
f 224/1/24 79/1/24 80/1/24 228/1/24
f 216/1/112 218/1/112 220/1/112 217/1/112
f 217/1/113 220/1/113 219/1/113 215/1/113
f 210/1/114 212/1/114 214/1/114 211/1/114
f 211/1/115 214/1/115 213/1/115 209/1/115
f 201/1/116 210/1/116 211/1/116 202/1/116
f 202/1/117 211/1/117 209/1/117 200/1/117
f 204/1/118 216/1/118 217/1/118 205/1/118
f 205/1/119 217/1/119 215/1/119 203/1/119
f 207/1/120 204/1/120 205/1/120 208/1/120
f 208/1/121 205/1/121 203/1/121 206/1/121
f 198/1/122 201/1/122 202/1/122 199/1/122
f 199/1/123 202/1/123 200/1/123 197/1/123
f 218/1/124 198/1/124 199/1/124 220/1/124
f 220/1/125 199/1/125 197/1/125 219/1/125
f 212/1/126 207/1/126 208/1/126 214/1/126
f 214/1/127 208/1/127 206/1/127 213/1/127
f 221/1/33 222/1/33 237/1/33 241/1/33
f 201/1/29 198/1/29 222/1/29 221/1/29
f 210/1/128 224/1/128 228/1/128 212/1/128
f 198/1/129 218/1/129 223/1/129 222/1/129
f 204/1/27 207/1/27 227/1/27 226/1/27
f 210/1/130 201/1/130 221/1/130 224/1/130
f 216/1/131 225/1/131 223/1/131 218/1/131
f 216/1/131 204/1/131 226/1/131 225/1/131
f 207/1/128 212/1/128 228/1/128 227/1/128
f 234/1/132 236/1/132 230/1/132 229/1/132
f 232/1/133 231/1/133 235/1/133 233/1/133
f 242/1/134 239/1/134 230/1/134 236/1/134
f 236/1/7 234/1/7 233/1/7 235/1/7
f 242/1/135 236/1/135 235/1/135 238/1/135
f 229/1/136 230/1/136 244/1/136 243/1/136
f 237/1/137 238/1/137 235/1/137 231/1/137
f 240/1/138 229/1/138 243/1/138 249/1/138
f 42/1/139 80/1/139 234/1/139 229/1/139
f 226/1/33 227/1/33 240/1/33 239/1/33
f 248/1/140 249/1/140 243/1/140 244/1/140
f 250/1/141 247/1/141 245/1/141 246/1/141
f 239/1/142 240/1/142 249/1/142 248/1/142
f 241/1/143 237/1/143 247/1/143 250/1/143
f 232/1/144 241/1/144 250/1/144 246/1/144
f 231/1/145 232/1/145 246/1/145 245/1/145
f 230/1/146 239/1/146 248/1/146 244/1/146
f 237/1/147 231/1/147 245/1/147 247/1/147
