# Blender 4.4.3
# www.blender.org
mtllib Rope_2.mtl
o Rope_2
v -0.117070 -1.906255 0.022895
v -0.119238 -0.671958 0.003389
v -0.474390 -1.966783 -0.058450
v -0.456752 -0.611431 -0.140848
v -0.314944 -1.966783 -0.385732
v -0.242310 -0.611431 -0.435045
v -0.029681 -1.906255 -0.153824
v -0.004055 -0.671958 -0.156609
v 0.510189 -1.966783 -0.002979
v 0.502786 -0.611431 0.086661
v 0.172247 -1.906255 0.142095
v 0.146618 -0.671958 0.168416
v 0.106199 -1.906255 -0.206954
v 0.138699 -0.671958 -0.186740
v 0.471455 -1.966783 -0.201267
v 0.499474 -0.611431 -0.115348
v 0.099323 -1.906255 0.195526
v 0.065919 -0.671958 0.209166
v -0.029515 -1.906255 0.337148
v -0.084397 -0.671958 0.327745
v -0.138916 -1.906255 0.180026
v -0.166554 -0.671958 0.154811
v 0.038610 -1.906255 0.108330
v 0.020326 -0.671958 0.113195
v -0.316144 -0.671958 0.013092
v -0.309720 -1.906255 0.064755
v -0.420370 -0.611431 -0.339581
v -0.473472 -1.966783 -0.260483
v -0.057331 -0.671958 -0.346419
v -0.113360 -1.906255 -0.332329
v 0.339751 -0.671958 0.207989
v 0.369255 -1.906255 0.149464
v 0.057141 -0.671958 -0.007255
v 0.055177 -1.906255 -0.016526
v 0.329875 -0.671958 -0.234883
v 0.286894 -1.906255 -0.285794
v 0.019313 -0.671958 0.304650
v 0.069005 -1.906255 0.297359
v -0.167116 -0.671958 0.261060
v -0.122049 -1.906255 0.284929
v -0.083135 -0.671958 0.089005
v -0.067417 -1.906255 0.101432
v -0.319604 -0.000677 -0.014727
v -0.120405 -0.000677 -0.007115
v -0.389900 -0.000677 -0.372637
v -0.442582 -0.000677 -0.178002
v -0.027160 -0.000677 -0.354006
v -0.204881 -0.000677 -0.452801
v 0.009744 -0.000677 -0.158108
v 0.323863 -0.000677 0.239504
v 0.492866 -0.000677 0.127929
v 0.058199 -0.000677 -0.002262
v 0.132817 -0.000677 0.182589
v 0.353020 -0.000677 -0.207468
v 0.156199 -0.000677 -0.175854
v 0.506342 -0.000677 -0.073259
v -0.007445 -0.000677 0.308575
v 0.047932 -0.000677 0.216511
v -0.191384 -0.000677 0.248207
v -0.113950 -0.000677 0.322681
v -0.091599 -0.000677 0.082313
v -0.181436 -0.000677 0.141233
v 0.010480 -0.000677 0.115815
v -0.306508 -2.697227 0.090586
v -0.115986 -2.697227 0.032649
v -0.491168 -2.697227 -0.222676
v -0.476508 -2.697227 -0.021589
v -0.141375 -2.697227 -0.325284
v -0.343092 -2.697227 -0.359513
v -0.042495 -2.697227 -0.152431
v 0.384007 -2.697227 0.120202
v 0.507390 -2.697227 -0.042290
v 0.054194 -2.697227 -0.021161
v 0.185062 -2.697227 0.128935
v 0.265404 -2.697227 -0.311250
v 0.089950 -2.697227 -0.217062
v 0.453566 -2.697227 -0.236594
v 0.093850 -2.697227 0.293714
v 0.116025 -2.697227 0.188706
v -0.099515 -2.697227 0.296864
v -0.002074 -2.697227 0.341849
v -0.059558 -2.697227 0.107646
v -0.125098 -2.697227 0.192634
v 0.047752 -2.697227 0.105898
vn 0.2520 0.0224 0.9675
vn 0.1919 0.0258 0.9811
vn 0.1921 0.0258 0.9810
vn 0.0684 0.0288 0.9972
vn 0.0682 0.0288 0.9973
vn -0.9993 0.0153 0.0341
vn -0.9995 0.0178 -0.0268
vn -0.9993 0.0180 -0.0319
vn -0.9878 0.0217 -0.1541
vn -0.9869 0.0218 -0.1600
vn 0.2164 -0.0293 -0.9759
vn 0.2693 -0.0338 -0.9625
vn 0.2929 -0.0358 -0.9555
vn 0.4068 -0.0410 -0.9126
vn 0.3923 -0.0408 -0.9189
vn 0.9137 -0.0039 0.4063
vn 0.8868 -0.0037 0.4622
vn 0.8872 -0.0037 0.4613
vn 0.8223 -0.0027 0.5691
vn 0.8229 -0.0027 0.5681
vn -0.5790 0.0332 0.8147
vn -0.6329 0.0378 0.7733
vn -0.6199 0.0367 0.7838
vn -0.7113 0.0404 0.7017
vn -0.7283 0.0400 0.6841
vn -0.6497 -0.0129 -0.7601
vn -0.6024 -0.0136 -0.7981
vn -0.5980 -0.0136 -0.8013
vn -0.4956 -0.0138 -0.8684
vn -0.4902 -0.0137 -0.8715
vn 0.8871 -0.0254 -0.4609
vn 0.9135 -0.0294 -0.4057
vn 0.9138 -0.0294 -0.4051
vn 0.9569 -0.0335 -0.2886
vn 0.9569 -0.0335 -0.2884
vn 0.7636 -0.0231 0.6453
vn 0.7269 -0.0271 0.6862
vn 0.7088 -0.0290 0.7048
vn 0.6188 -0.0340 0.7848
vn 0.6303 -0.0337 0.7756
vn -0.7796 -0.0129 0.6261
vn -0.8168 -0.0143 0.5768
vn -0.8165 -0.0143 0.5772
vn -0.8823 -0.0152 0.4704
vn -0.8819 -0.0152 0.4711
vn -0.4368 0.0306 -0.8990
vn -0.3812 0.0339 -0.9239
vn -0.3800 0.0340 -0.9244
vn -0.2636 0.0357 -0.9640
vn -0.2616 0.0356 -0.9645
vn 0.9733 -0.0021 -0.2295
vn 0.9854 -0.0015 -0.1700
vn 0.9864 -0.0014 -0.1646
vn 0.9991 -0.0000 -0.0429
vn 0.9993 -0.0000 -0.0366
vn 0.0034 -0.0267 0.9996
vn -0.0572 -0.0317 0.9979
vn -0.0589 -0.0319 0.9978
vn -0.1811 -0.0376 0.9827
vn -0.1825 -0.0376 0.9825
vn -0.9756 0.0127 -0.2191
vn -0.9602 0.0150 -0.2790
vn -0.9603 0.0149 -0.2784
vn -0.9179 0.0175 -0.3963
vn -0.9181 0.0175 -0.3959
vn 0.3962 0.0264 -0.9178
vn 0.4550 0.0297 -0.8900
vn 0.4417 0.0289 -0.8967
vn 0.5466 0.0307 -0.8368
vn 0.5693 0.0299 -0.8216
vn 0.9690 0.0238 0.2459
vn 0.9522 0.0261 0.3044
vn 0.9518 0.0261 0.3057
vn 0.9070 0.0268 0.4202
vn 0.9061 0.0268 0.4221
vn -0.4555 -0.0050 0.8902
vn -0.5079 -0.0082 0.8613
vn -0.5108 -0.0084 0.8596
vn -0.6111 -0.0140 0.7915
vn -0.6140 -0.0141 0.7892
vn -0.7664 -0.0181 -0.6421
vn -0.7254 -0.0207 -0.6880
vn -0.7255 -0.0207 -0.6880
vn -0.6340 -0.0228 -0.7730
vn -0.6343 -0.0228 -0.7728
vn 0.7965 0.0165 -0.6044
vn 0.8323 0.0193 -0.5540
vn 0.8320 0.0192 -0.5544
vn 0.8947 0.0220 -0.4462
vn 0.8946 0.0220 -0.4463
vn 0.4120 0.0142 0.9111
vn 0.3566 0.0138 0.9342
vn 0.3537 0.0138 0.9353
vn 0.2379 0.0109 0.9712
vn 0.2342 0.0107 0.9721
vn -0.9798 -0.0194 0.1989
vn -0.9900 -0.0236 0.1392
vn -0.9903 -0.0237 0.1372
vn -0.9995 -0.0290 0.0148
vn -0.9995 -0.0290 0.0130
vn 0.0241 -0.0021 -0.9997
vn 0.0862 -0.0016 -0.9963
vn 0.0850 -0.0016 -0.9964
vn 0.2096 -0.0001 -0.9778
vn 0.2083 -0.0001 -0.9781
vn 0.2702 0.0008 -0.9628
vn -0.9983 -0.0301 -0.0492
vn 0.1743 0.0081 0.9847
vn 0.9210 0.0220 -0.3889
vn -0.5841 -0.0224 -0.8114
vn -0.6611 -0.0165 0.7501
vn 0.8782 0.0253 0.4776
vn 0.6143 0.0284 -0.7886
vn -0.8912 0.0177 -0.4532
vn -0.2434 -0.0384 0.9692
vn 0.9997 0.0008 0.0252
vn -0.2012 0.0340 -0.9790
vn -0.9101 -0.0146 0.4142
vn 0.5781 -0.0346 0.8152
vn 0.9732 -0.0334 -0.2275
vn -0.4354 -0.0132 -0.9001
vn -0.7649 0.0390 0.6430
vn 0.7851 -0.0018 0.6194
vn 0.4532 -0.0415 -0.8904
vn -0.9751 0.0229 -0.2208
vn 0.0053 0.0286 0.9996
vn -0.0000 1.0000 -0.0000
vn -0.0000 -1.0000 -0.0000
vt 0.768563 0.295040
vt 0.744034 0.295052
vt 0.744036 0.208506
vt 0.768647 0.208496
vt 0.744048 0.073453
vt 0.768826 0.073447
vt 0.089892 0.602250
vt 0.064577 0.603473
vt 0.065294 0.523421
vt 0.090511 0.522204
vt 0.068183 0.374809
vt 0.092496 0.373639
vt 0.564299 0.295412
vt 0.539583 0.296663
vt 0.539490 0.216653
vt 0.563595 0.208794
vt 0.541873 0.068066
vt 0.564076 0.073551
vt 0.654679 0.295361
vt 0.632556 0.295216
vt 0.633149 0.208671
vt 0.654034 0.208806
vt 0.634076 0.073620
vt 0.652486 0.073737
vt 0.788575 0.295052
vt 0.787867 0.215132
vt 0.047309 0.517671
vt 0.047332 0.382457
vt 0.519202 0.297631
vt 0.517964 0.217683
vt 0.518319 0.069209
vt 0.609578 0.295054
vt 0.609674 0.208507
vt 0.609608 0.073451
vt 0.256129 0.594334
vt 0.238820 0.594774
vt 0.236981 0.514866
vt 0.256212 0.507755
vt 0.235336 0.366549
vt 0.257301 0.372626
vt 0.674796 0.593158
vt 0.654220 0.592751
vt 0.654508 0.506190
vt 0.675958 0.506617
vt 0.654311 0.371100
vt 0.677510 0.371565
vt 0.023233 0.603707
vt 0.000000 0.604186
vt -0.000000 0.517614
vt 0.023676 0.517119
vt 0.000831 0.382500
vt 0.025393 0.381973
vt 0.697827 0.889809
vt 0.672853 0.891592
vt 0.671809 0.811539
vt 0.697072 0.809735
vt 0.672342 0.662822
vt 0.697579 0.661018
vt 0.281143 0.593729
vt 0.280800 0.507162
vt 0.281035 0.372058
vt 0.698787 0.593650
vt 0.699053 0.507091
vt 0.698814 0.372005
vt 0.045721 0.603179
vt 0.045722 0.523222
vt 0.044796 0.374872
vt 0.931018 0.892133
vt 0.918196 0.892155
vt 0.918684 0.805606
vt 0.930996 0.805584
vt 0.919718 0.670546
vt 0.931011 0.670525
vt 0.923341 0.294939
vt 0.911656 0.295357
vt 0.911893 0.208744
vt 0.922880 0.208353
vt 0.913747 0.073534
vt 0.923341 0.073195
vt 0.893134 0.892361
vt 0.883767 0.892169
vt 0.883716 0.805613
vt 0.893740 0.805814
vt 0.882954 0.670535
vt 0.894291 0.670753
vt 0.906899 0.892169
vt 0.906942 0.805621
vt 0.907089 0.670564
vt 0.899098 0.295819
vt 0.899105 0.209214
vt 0.900500 0.074017
vt 0.945450 0.592762
vt 0.932066 0.592953
vt 0.932641 0.506387
vt 0.945989 0.506197
vt 0.934333 0.371290
vt 0.947607 0.371103
vt 0.906573 0.892591
vt 0.906899 0.806035
vt 0.906891 0.670959
vt 0.894601 0.597300
vt 0.906899 0.597496
vt 0.935233 0.297817
vt 0.948468 0.297631
vt 0.901226 0.000491
vt 0.914720 -0.000000
vt 0.907166 0.597112
vt 0.920274 0.597093
vt 0.882556 0.597072
vt 0.924850 0.371431
vt 0.924850 0.297970
vt 0.931018 0.597072
vt 0.026302 0.308473
vt 0.043612 0.308038
vt 0.678361 0.298116
vt 0.698700 0.298538
vt 0.257869 0.299136
vt 0.281143 0.298581
vt 0.672923 0.595782
vt 0.697827 0.594001
vt 0.001263 0.309017
vt 0.654220 0.297631
vt 0.235429 0.299693
vt 0.609578 0.000000
vt 0.634580 0.000171
vt 0.519261 0.002263
vt 0.543472 0.001081
vt 0.047309 0.308921
vt 0.069401 0.307845
vt 0.651657 0.000279
vt 0.564299 0.000000
vt 0.092977 0.306712
vt 0.744055 0.000003
vt 0.768921 -0.000000
vt 0.268010 0.969681
vt 0.243563 0.975260
vt 0.223959 0.959626
vt 0.223959 0.934551
vt 0.243563 0.918917
vt 0.268530 0.923974
vt 0.279575 0.946807
vt 0.721568 0.856703
vt 0.708392 0.859710
vt 0.697826 0.851284
vt 0.697826 0.837770
vt 0.708392 0.829344
vt 0.721568 0.832351
vt 0.727431 0.844527
vt 0.116667 0.946159
vt 0.091620 0.940977
vt 0.080575 0.918144
vt 0.091540 0.895272
vt 0.116667 0.889816
vt 0.136271 0.905450
vt 0.136271 0.930525
vt 0.967037 0.950108
vt 0.942067 0.945120
vt 0.931018 0.922291
vt 0.942616 0.899397
vt 0.967037 0.893823
vt 0.986622 0.909441
vt 0.986622 0.934490
vt 0.587818 0.919707
vt 0.574657 0.922711
vt 0.564102 0.914294
vt 0.564102 0.900794
vt 0.574657 0.892376
vt 0.587818 0.895381
vt 0.593676 0.907544
vt 0.763243 0.948621
vt 0.743659 0.933003
vt 0.743659 0.907954
vt 0.763243 0.892336
vt 0.788325 0.897559
vt 0.799374 0.920387
vt 0.788415 0.943259
s 1
usemtl Material.016
f 64/1/1 65/2/1 1/3/2 26/4/3
f 26/4/3 1/3/2 2/5/4 25/6/5
f 66/7/6 67/8/6 3/9/7 28/10/8
f 28/10/8 3/9/7 4/11/9 27/12/10
f 68/13/11 69/14/11 5/15/12 30/16/13
f 30/16/13 5/15/12 6/17/14 29/18/15
f 65/19/16 70/20/16 7/21/17 1/22/18
f 1/22/18 7/21/17 8/23/19 2/24/20
f 67/25/21 64/1/21 26/4/22 3/26/23
f 3/9/23 26/27/22 25/28/24 4/11/25
f 69/14/26 66/29/26 28/30/27 5/15/28
f 5/15/28 28/30/27 27/31/29 6/17/30
f 70/20/31 68/32/31 30/33/32 7/21/33
f 7/21/33 30/33/32 29/34/34 8/23/35
f 71/35/36 72/36/36 9/37/37 32/38/38
f 32/38/38 9/37/37 10/39/39 31/40/40
f 73/41/41 74/42/41 11/43/42 34/44/43
f 34/44/43 11/43/42 12/45/44 33/46/45
f 75/47/46 76/48/46 13/49/47 36/50/48
f 36/50/48 13/49/47 14/51/49 35/52/50
f 72/53/51 77/54/51 15/55/52 9/56/53
f 9/56/53 15/55/52 16/57/54 10/58/55
f 74/59/56 71/35/56 32/38/57 11/60/58
f 11/60/58 32/38/57 31/40/59 12/61/60
f 76/62/61 73/41/61 34/44/62 13/63/63
f 13/63/63 34/44/62 33/46/64 14/64/65
f 77/65/66 75/47/66 36/50/67 15/66/68
f 15/66/68 36/50/67 35/52/69 16/67/70
f 78/68/71 79/69/71 17/70/72 38/71/73
f 38/71/73 17/70/72 18/72/74 37/73/75
f 80/74/76 81/75/76 19/76/77 40/77/78
f 40/77/78 19/76/77 20/78/79 39/79/80
f 82/80/81 83/81/81 21/82/82 42/83/83
f 42/83/83 21/82/82 22/84/84 41/85/85
f 79/69/86 84/86/86 23/87/87 17/70/88
f 17/70/88 23/87/87 24/88/89 18/72/90
f 81/75/91 78/89/91 38/90/92 19/76/93
f 19/76/93 38/90/92 37/91/94 20/78/95
f 83/92/96 80/93/96 40/94/97 21/95/98
f 21/95/98 40/94/97 39/96/99 22/97/100
f 84/98/101 82/80/101 42/83/102 23/99/103
f 23/99/103 42/83/102 41/85/104 24/100/105
f 24/100/105 41/85/104 61/101/106 63/102/106
f 22/97/100 39/96/99 59/103/107 62/104/107
f 20/78/95 37/91/94 57/105/108 60/106/108
f 18/72/90 24/88/89 63/107/109 58/108/109
f 41/85/85 22/84/84 62/109/110 61/101/110
f 39/96/80 20/110/79 60/111/111 59/103/111
f 37/73/75 18/72/74 58/108/112 57/112/112
f 16/67/70 35/52/69 54/113/113 56/114/113
f 14/64/65 33/46/64 52/115/114 55/116/114
f 12/61/60 31/40/59 50/117/115 53/118/115
f 10/58/55 16/57/54 56/119/116 51/120/116
f 35/52/50 14/51/49 55/121/117 54/113/117
f 33/46/45 12/45/44 53/122/118 52/115/118
f 31/40/40 10/39/39 51/123/119 50/117/119
f 8/23/35 29/34/34 47/124/120 49/125/120
f 6/17/30 27/31/29 45/126/121 48/127/121
f 4/11/25 25/28/24 43/128/122 46/129/122
f 2/24/20 8/23/19 49/125/123 44/130/123
f 29/18/15 6/17/14 48/127/124 47/131/124
f 27/12/10 4/11/9 46/129/125 45/132/125
f 25/6/5 2/5/4 44/133/126 43/134/126
f 54/135/127 55/136/127 52/137/127 53/138/127 50/139/127 51/140/127 56/141/127
f 61/142/127 62/143/127 59/144/127 60/145/127 57/146/127 58/147/127 63/148/127
f 47/149/127 48/150/127 45/151/127 46/152/127 43/153/127 44/154/127 49/155/127
f 75/156/128 77/157/128 72/158/128 71/159/128 74/160/128 73/161/128 76/162/128
f 82/163/128 84/164/128 79/165/128 78/166/128 81/167/128 80/168/128 83/169/128
f 68/170/128 70/171/128 65/172/128 64/173/128 67/174/128 66/175/128 69/176/128
