# Blender 4.4.3
# www.blender.org
mtllib Rope_1.mtl
o Rope_1
v -0.116116 -0.000024 -0.050834
v 0.067186 -0.000024 -0.152308
v 0.102136 -0.000024 -0.358886
v -0.037582 -0.000024 -0.515012
v -0.246758 -0.000024 -0.503118
v -0.367879 -0.000024 -0.332162
v -0.309737 -0.000024 -0.130877
v 0.434871 -0.000024 0.301394
v 0.520101 -0.000024 0.109999
v 0.423602 -0.000024 -0.075970
v 0.218040 -0.000024 -0.116473
v 0.058207 -0.000024 0.018988
v 0.064461 -0.000024 0.228409
v 0.232092 -0.000024 0.354092
v -0.031581 -0.000024 0.230942
v -0.031838 -0.000024 0.118026
v -0.120279 -0.000024 0.047824
v -0.230308 -0.000024 0.073201
v -0.279069 -0.000024 0.175046
v -0.229845 -0.000024 0.276669
v -0.119703 -0.000024 0.301545
v -0.121406 -2.134863 -0.016091
v -0.430437 -2.134863 -0.209819
v -0.172801 -2.134863 -0.467993
v 0.021571 -2.134863 -0.159368
v 0.484365 -2.134863 0.163325
v 0.120988 -2.134863 0.194763
v 0.171198 -2.134863 -0.166499
v 0.512229 -2.134863 -0.037160
v 0.032515 -2.134863 0.222832
v -0.139279 -2.134863 0.318367
v -0.194192 -2.134863 0.129622
v 0.002041 -2.134863 0.118086
v -0.322569 -2.134863 -0.038544
v -0.363784 -2.134863 -0.400942
v -0.001302 -2.134863 -0.360483
v 0.310246 -2.134863 0.266540
v 0.059106 -2.134863 0.002042
v 0.372856 -2.134863 -0.183945
v -0.030378 -2.134863 0.311965
v -0.212183 -2.134863 0.237216
v -0.098853 -2.134863 0.076603
v -0.319604 -2.697879 -0.014701
v -0.120405 -2.697879 -0.007089
v -0.389900 -2.697879 -0.372611
v -0.442582 -2.697879 -0.177976
v -0.027160 -2.697879 -0.353980
v -0.204881 -2.697879 -0.452775
v 0.009744 -2.697879 -0.158082
v 0.323863 -2.697879 0.239530
v 0.492866 -2.697879 0.127955
v 0.058199 -2.697879 -0.002236
v 0.132817 -2.697879 0.182615
v 0.353020 -2.697879 -0.207442
v 0.156199 -2.697879 -0.175828
v 0.506342 -2.697879 -0.073233
v -0.007445 -2.697879 0.308601
v 0.047932 -2.697879 0.216537
v -0.191384 -2.697879 0.248232
v -0.113950 -2.697879 0.322707
v -0.091599 -2.697879 0.082339
v -0.181436 -2.697879 0.141259
v 0.010480 -2.697879 0.115841
vn -0.0000 1.0000 -0.0000
vn 0.6001 -0.0020 0.7999
vn 0.6698 -0.0014 0.7426
vn 0.6685 -0.0014 0.7437
vn -0.9128 0.0366 0.4067
vn -0.8725 0.0358 0.4872
vn -0.8702 0.0358 0.4914
vn -0.1935 -0.0228 -0.9808
vn -0.2761 -0.0202 -0.9609
vn -0.2841 -0.0200 -0.9586
vn -0.2512 0.0299 0.9675
vn -0.1640 0.0295 0.9860
vn -0.1636 0.0295 0.9861
vn -0.8876 0.0131 -0.4603
vn -0.9235 0.0149 -0.3832
vn -0.9266 0.0150 -0.3757
vn 0.6457 -0.0442 -0.7623
vn 0.5809 -0.0436 -0.8128
vn 0.5771 -0.0436 -0.8155
vn 0.9990 -0.0349 0.0296
vn 0.9976 -0.0347 -0.0597
vn 0.9976 -0.0347 -0.0598
vn 0.9607 -0.0092 0.2773
vn 0.9808 -0.0068 0.1948
vn 0.9824 -0.0066 0.1864
vn -0.4837 -0.0401 0.8743
vn -0.4046 -0.0403 0.9136
vn -0.4029 -0.0403 0.9144
vn -0.7452 0.0185 -0.6666
vn -0.8019 0.0185 -0.5971
vn -0.8016 0.0185 -0.5976
vn 0.3820 -0.0374 0.9234
vn 0.4551 -0.0371 0.8897
vn 0.4604 -0.0371 0.8869
vn -0.9858 -0.0152 0.1670
vn -0.9668 -0.0147 0.2550
vn -0.9671 -0.0147 0.2538
vn 0.0565 0.0356 -0.9978
vn -0.0313 0.0343 -0.9989
vn -0.0344 0.0343 -0.9988
vn 0.8156 0.0233 -0.5781
vn 0.7598 0.0230 -0.6498
vn 0.7549 0.0229 -0.6554
vn 0.9899 0.0230 -0.1398
vn 0.9734 0.0228 -0.2278
vn 0.9735 0.0228 -0.2276
vn -0.0840 0.0086 0.9964
vn 0.0026 0.0069 1.0000
vn 0.0081 0.0067 0.9999
vn -0.9523 -0.0314 -0.3035
vn -0.9753 -0.0319 -0.2184
vn -0.9759 -0.0319 -0.2160
vn 0.7264 0.0265 0.6867
vn 0.7839 0.0253 0.6203
vn 0.7859 0.0252 0.6179
vn -0.8313 -0.0171 0.5555
vn -0.7800 -0.0186 0.6255
vn -0.7767 -0.0187 0.6296
vn -0.3565 -0.0234 -0.9340
vn -0.4389 -0.0230 -0.8983
vn -0.4383 -0.0230 -0.8985
vn 0.5081 0.0008 -0.8613
vn 0.4282 0.0014 -0.9037
vn 0.4299 0.0013 -0.9029
vn -0.0749 0.0288 0.9968
vn -0.9552 0.0167 -0.2955
vn 0.5082 -0.0427 -0.8602
vn 0.7329 -0.0008 0.6803
vn -0.8226 0.0348 0.5676
vn -0.3645 -0.0172 -0.9310
vn 0.9883 -0.0341 -0.1488
vn 0.5302 -0.0365 0.8471
vn -0.9403 -0.0141 0.3400
vn -0.1221 0.0327 -0.9920
vn 0.9947 -0.0042 0.1024
vn -0.3203 -0.0402 0.9465
vn -0.8520 0.0184 -0.5232
vn 0.6924 0.0223 -0.7212
vn 0.8372 0.0238 0.5464
vn -0.7191 -0.0200 0.6946
vn -0.5172 -0.0224 -0.8556
vn 0.9492 0.0225 -0.3138
vn 0.0948 0.0049 0.9955
vn -0.9911 -0.0321 -0.1291
vn 0.3465 0.0019 -0.9380
vn -0.0000 -1.0000 -0.0000
vt 0.666925 0.889376
vt 0.655490 0.913120
vt 0.629796 0.918985
vt 0.609192 0.902553
vt 0.609192 0.876198
vt 0.629796 0.859766
vt 0.655490 0.865631
vt 0.281692 0.876130
vt 0.281692 0.902485
vt 0.261087 0.918917
vt 0.235394 0.913052
vt 0.223959 0.889308
vt 0.235394 0.865563
vt 0.261087 0.859699
vt 0.501014 0.836727
vt 0.501014 0.850931
vt 0.489909 0.859786
vt 0.476062 0.856626
vt 0.469899 0.843829
vt 0.476062 0.831032
vt 0.489909 0.827871
vt 0.282585 -0.000000
vt 0.306706 0.000264
vt 0.305102 0.233848
vt 0.285554 0.233643
vt 0.330043 0.299635
vt 0.355984 0.298368
vt 0.352944 0.532379
vt 0.330063 0.533502
vt 0.612965 0.299053
vt 0.639244 0.297631
vt 0.634295 0.531817
vt 0.609525 0.533135
vt 0.330043 0.000543
vt 0.330043 0.234138
vt 0.375654 0.297420
vt 0.375887 0.531268
vt 0.471167 -0.000000
vt 0.492619 0.000006
vt 0.491009 0.233592
vt 0.475195 0.233583
vt 0.517964 -0.000000
vt 0.516470 0.233590
vt 0.259877 0.001387
vt 0.282585 0.000000
vt 0.280214 0.234172
vt 0.255579 0.235673
vt 0.309165 0.296317
vt 0.328718 0.295735
vt 0.328442 0.529450
vt 0.305566 0.530142
vt 0.424171 0.000000
vt 0.446025 0.000035
vt 0.440962 0.233649
vt 0.424619 0.233598
vt 0.283173 0.297122
vt 0.282585 0.530861
vt 0.701270 -0.000000
vt 0.727532 0.000579
vt 0.724503 0.234161
vt 0.699556 0.233616
vt 0.471167 0.000000
vt 0.466416 0.233636
vt 0.235336 0.002875
vt 0.235336 0.236896
vt 0.923341 0.000000
vt 0.937462 0.000014
vt 0.937087 0.233610
vt 0.923570 0.233595
vt 0.843932 0.597537
vt 0.857436 0.597072
vt 0.854692 0.830895
vt 0.840985 0.831371
vt 0.577484 0.596706
vt 0.589536 0.596377
vt 0.588451 0.830091
vt 0.575254 0.830455
vt 0.832093 0.597957
vt 0.832093 0.831691
vt 0.564102 0.597080
vt 0.564102 0.830769
vt 0.875156 0.297631
vt 0.889261 0.297885
vt 0.887425 0.531468
vt 0.874774 0.531229
vt 0.899348 0.298032
vt 0.899465 0.531661
vt 0.329242 0.295734
vt 0.304378 0.295447
vt 0.375710 0.592952
vt 0.352135 0.594095
vt 0.654220 0.592387
vt 0.633397 0.593555
vt 0.654220 0.530694
vt 0.286348 0.295260
vt 0.330043 0.595180
vt 0.609191 0.594838
vt 0.516472 0.295194
vt 0.491469 0.295195
vt 0.305447 0.591783
vt 0.283011 0.592486
vt 0.723696 0.295763
vt 0.699556 0.295237
vt 0.464288 0.295251
vt 0.439243 0.295259
vt 0.279656 0.295925
vt 0.254734 0.297443
vt 0.328718 0.591077
vt 0.744034 0.296220
vt 0.744014 0.234601
vt 0.235868 0.298581
vt 0.947193 0.295223
vt 0.936448 0.295215
vt 0.947361 0.233617
vt 0.575294 0.892083
vt 0.564914 0.892376
vt 0.887166 0.593075
vt 0.875122 0.592844
vt 0.923341 0.295200
vt 0.853711 0.892570
vt 0.840216 0.893039
vt 0.588526 0.891719
vt 0.899465 0.593275
vt 0.703690 0.887069
vt 0.697827 0.874893
vt 0.703690 0.862717
vt 0.716865 0.859710
vt 0.727431 0.868136
vt 0.727431 0.881650
vt 0.716865 0.890076
vt 0.154893 0.949916
vt 0.143328 0.927042
vt 0.154372 0.904209
vt 0.179339 0.899152
vt 0.198944 0.914787
vt 0.198944 0.939862
vt 0.179339 0.955496
vt 0.691414 0.947935
vt 0.671809 0.932301
vt 0.671809 0.907226
vt 0.691414 0.891592
vt 0.716540 0.897049
vt 0.727505 0.919920
vt 0.716460 0.942753
s 1
usemtl Material.016
f 2/1/1 3/2/1 4/3/1 5/4/1 6/5/1 7/6/1 1/7/1
f 9/8/1 10/9/1 11/10/1 12/11/1 13/12/1 14/13/1 8/14/1
f 16/15/1 17/16/1 18/17/1 19/18/1 20/19/1 21/20/1 15/21/1
f 2/22/2 1/23/2 22/24/3 25/25/4
f 7/26/5 6/27/5 23/28/6 34/29/7
f 5/30/8 4/31/8 24/32/9 35/33/10
f 1/23/11 7/34/11 34/35/12 22/24/13
f 6/27/14 5/36/14 35/37/15 23/28/16
f 4/38/17 3/39/17 36/40/18 24/41/19
f 3/39/20 2/42/20 25/43/21 36/40/22
f 9/44/23 8/45/23 26/46/24 29/47/25
f 14/48/26 13/49/26 27/50/27 37/51/28
f 12/52/29 11/53/29 28/54/30 38/55/31
f 8/56/32 14/48/32 37/51/33 26/57/34
f 13/58/35 12/59/35 38/60/36 27/61/37
f 11/53/38 10/62/38 39/63/39 28/54/40
f 10/64/41 9/44/41 29/47/42 39/65/43
f 16/66/44 15/67/44 30/68/45 33/69/46
f 21/70/47 20/71/47 31/72/48 40/73/49
f 19/74/50 18/75/50 32/76/51 41/77/52
f 15/78/53 21/70/53 40/73/54 30/79/55
f 20/80/56 19/74/56 41/77/57 31/81/58
f 18/82/59 17/83/59 42/84/60 32/85/61
f 17/83/62 16/86/62 33/87/63 42/84/64
f 43/88/65 44/89/65 22/24/13 34/35/12
f 45/90/66 46/91/66 23/28/16 35/37/15
f 47/92/67 48/93/67 24/32/19 36/94/18
f 44/89/68 49/95/68 25/25/4 22/24/3
f 46/91/69 43/96/69 34/29/7 23/28/6
f 48/93/70 45/97/70 35/33/10 24/32/9
f 49/98/71 47/99/71 36/40/22 25/43/21
f 50/100/72 51/101/72 26/57/34 37/51/33
f 52/102/73 53/103/73 27/61/37 38/60/36
f 54/104/74 55/105/74 28/54/40 39/63/39
f 51/106/75 56/107/75 29/47/25 26/46/24
f 53/108/76 50/100/76 37/51/28 27/50/27
f 55/109/77 52/102/77 38/60/31 28/110/30
f 56/107/78 54/111/78 39/65/43 29/47/42
f 57/112/79 58/113/79 30/68/55 40/114/54
f 59/115/80 60/116/80 31/81/58 41/77/57
f 61/117/81 62/118/81 32/85/61 42/84/60
f 58/113/82 63/119/82 33/69/46 30/68/45
f 60/120/83 57/121/83 40/73/49 31/72/48
f 62/122/84 59/115/84 41/77/52 32/76/51
f 63/123/85 61/117/85 42/84/64 33/87/63
f 61/124/86 63/125/86 58/126/86 57/127/86 60/128/86 59/129/86 62/130/86
f 54/131/86 56/132/86 51/133/86 50/134/86 53/135/86 52/136/86 55/137/86
f 47/138/86 49/139/86 44/140/86 43/141/86 46/142/86 45/143/86 48/144/86
