# Blender 4.4.3
# www.blender.org
mtllib Rope_4.mtl
o Rope_4
v -0.102372 -2.015829 0.272923
v -0.039935 -2.015829 0.102396
v -0.426981 -2.015829 0.231613
v -0.274623 -2.015829 0.330430
v -0.314474 -2.015829 -0.075665
v -0.444716 -2.015829 0.050884
v -0.134330 -2.015829 -0.052740
v 0.298363 -2.015829 -0.213554
v 0.245518 -2.015829 -0.387292
v 0.014336 -2.015829 -0.051053
v 0.195478 -2.015829 -0.063914
v -0.080888 -2.015829 -0.364119
v -0.108658 -2.015829 -0.184658
v 0.076735 -2.015829 -0.454300
v 0.265362 -2.015829 0.092977
v 0.201085 -2.015829 0.019171
v 0.161475 -2.015829 0.235489
v 0.247733 -2.015829 0.189248
v 0.045653 -2.015829 0.102495
v 0.071541 -2.015829 0.196881
v 0.103306 -2.015829 0.023407
v -0.048189 -1.732435 0.098780
v -0.069861 -0.498138 0.081442
v -0.300775 -1.732435 0.306813
v -0.387016 -0.558665 0.213723
v -0.447387 -1.732435 0.014268
v -0.445236 -0.558665 -0.117926
v -0.129552 -1.732435 -0.063570
v -0.108946 -0.558665 -0.100888
v 0.276435 -1.732435 -0.365868
v 0.380468 -0.558665 -0.279116
v 0.200061 -1.732435 -0.047678
v 0.211302 -0.558665 0.012027
v -0.093156 -1.732435 -0.192940
v -0.034898 -0.558665 -0.217684
v 0.113711 -1.732435 -0.446482
v 0.243838 -0.558665 -0.406595
v 0.198841 -1.732435 0.035587
v 0.185533 -0.558665 0.093750
v 0.231394 -1.732435 0.208914
v 0.166486 -0.558665 0.274222
v 0.055169 -1.732435 0.202082
v -0.005223 -0.558665 0.215494
v 0.101044 -1.732435 0.031796
v 0.087627 -0.498138 0.054945
v -0.124391 -1.732435 0.263616
v -0.200389 -0.558665 0.223179
v -0.444522 -1.732435 0.195843
v -0.495983 -0.558665 0.061917
v -0.307212 -1.732435 -0.101182
v -0.272988 -0.558665 -0.190381
v 0.314864 -1.732435 -0.188383
v 0.365988 -0.558665 -0.092811
v 0.018475 -1.732435 -0.049706
v 0.029714 -0.498138 -0.042399
v -0.050772 -1.732435 -0.369522
v 0.058982 -0.558665 -0.379256
v 0.256853 -1.732435 0.114412
v 0.219465 -0.558665 0.188572
v 0.141636 -1.732435 0.247931
v 0.066491 -0.558665 0.286204
v 0.037103 -1.732435 0.105893
v 0.008961 -0.498138 0.109183
v -0.226770 -0.000023 0.202632
v -0.078824 -0.000023 0.074270
v -0.506734 -0.000023 0.007236
v -0.413801 -0.000023 0.172346
v -0.253939 -0.000023 -0.222228
v -0.435588 -0.000023 -0.168366
v -0.098571 -0.000023 -0.113792
v 0.379170 -0.000023 -0.052829
v 0.414484 -0.000023 -0.238976
v 0.034362 -0.000023 -0.039377
v 0.211617 -0.000023 0.035622
v 0.101628 -0.000023 -0.375654
v -0.010954 -0.000023 -0.223263
v 0.290967 -0.000023 -0.382647
v 0.200208 -0.000023 0.214453
v 0.176557 -0.000023 0.115117
v 0.035182 -0.000023 0.295832
v 0.137290 -0.000023 0.294878
v -0.002680 -0.000023 0.110545
v -0.029227 -0.000023 0.216595
v 0.082077 -0.000023 0.064520
v 0.108150 -2.697227 0.005446
v 0.063960 -2.697227 0.095221
v 0.106597 -2.697227 0.185743
v 0.203954 -2.697227 0.208848
v 0.282719 -2.697227 0.147137
v 0.283581 -2.697227 0.047080
v 0.205890 -2.697227 -0.015979
v 0.007074 -2.697227 -0.469028
v -0.137625 -2.697227 -0.353940
v -0.137864 -2.697227 -0.169053
v 0.009137 -2.697227 -0.052746
v 0.186842 -2.697227 -0.094501
v 0.267276 -2.697227 -0.260974
v 0.187271 -2.697227 -0.427655
v -0.142133 -2.697227 -0.035051
v -0.326336 -2.697227 -0.033990
v -0.440354 -2.697227 0.110688
v -0.398331 -2.697227 0.290036
v -0.231909 -2.697227 0.369002
v -0.066409 -2.697227 0.288124
v -0.026455 -2.697227 0.108303
vn 0.1894 0.0717 0.9793
vn 0.1812 0.0710 0.9809
vn 0.3262 0.0692 0.9428
vn 0.3301 0.0684 0.9415
vn -0.9991 -0.0318 -0.0292
vn -0.9984 -0.0325 -0.0458
vn -0.9941 -0.0198 0.1062
vn -0.9932 -0.0183 0.1148
vn 0.2578 -0.0629 -0.9642
vn 0.2590 -0.0628 -0.9638
vn 0.1137 -0.0556 -0.9920
vn 0.1128 -0.0554 -0.9921
vn 0.9135 -0.0070 -0.4067
vn 0.9124 -0.0070 -0.4093
vn 0.8471 -0.0068 -0.5314
vn 0.8480 -0.0068 -0.5300
vn 0.8779 0.0527 0.4759
vn 0.8780 0.0528 0.4757
vn 0.9423 0.0486 0.3312
vn 0.9422 0.0486 0.3314
vn -0.6460 0.0336 0.7626
vn -0.6580 0.0323 0.7523
vn -0.5362 0.0390 0.8432
vn -0.5295 0.0387 0.8474
vn -0.5962 -0.0748 -0.7994
vn -0.5880 -0.0746 -0.8054
vn -0.7028 -0.0617 -0.7087
vn -0.7067 -0.0602 -0.7049
vn 0.7398 -0.0704 0.6692
vn 0.7367 -0.0702 0.6726
vn 0.8315 -0.0640 0.5518
vn 0.8332 -0.0635 0.5493
vn -0.8244 0.0317 0.5652
vn -0.8234 0.0317 0.5666
vn -0.7217 0.0295 0.6916
vn -0.7224 0.0296 0.6909
vn -0.3806 0.0507 -0.9234
vn -0.3683 0.0495 -0.9284
vn -0.5080 0.0567 -0.8595
vn -0.5146 0.0565 -0.8556
vn 0.4837 -0.0067 -0.8752
vn 0.4983 -0.0076 -0.8670
vn 0.3569 0.0041 -0.9341
vn 0.3475 0.0051 -0.9376
vn 0.9844 -0.0607 -0.1654
vn 0.9864 -0.0607 -0.1526
vn 0.9514 -0.0497 -0.3040
vn 0.9490 -0.0482 -0.3116
vn -0.0652 -0.0288 0.9975
vn -0.0634 -0.0289 0.9976
vn 0.0908 -0.0282 0.9955
vn 0.0898 -0.0283 0.9956
vn -0.9571 0.0679 -0.2818
vn -0.9557 0.0676 -0.2866
vn -0.9883 0.0680 -0.1362
vn -0.9887 0.0677 -0.1335
vn 0.9517 0.0219 0.3062
vn 0.9485 0.0213 0.3160
vn 0.9866 0.0297 0.1607
vn 0.9876 0.0300 0.1538
vn -0.5116 -0.0540 0.8575
vn -0.5165 -0.0539 0.8546
vn -0.3745 -0.0501 0.9259
vn -0.3707 -0.0498 0.9274
vn -0.7277 -0.0027 -0.6859
vn -0.7297 -0.0027 -0.6838
vn -0.8222 -0.0035 -0.5692
vn -0.8208 -0.0035 -0.5712
vn 0.1118 0.0398 -0.9929
vn 0.1105 0.0398 -0.9931
vn -0.0668 0.0408 -0.9969
vn -0.0659 0.0408 -0.9970
vn 0.8333 0.0513 -0.5504
vn 0.8361 0.0510 -0.5461
vn 0.7387 0.0556 -0.6717
vn 0.7365 0.0556 -0.6742
vn 0.3541 -0.0251 0.9349
vn 0.3442 -0.0254 0.9386
vn 0.4895 -0.0175 0.8719
vn 0.4959 -0.0168 0.8682
vn -0.9923 -0.0417 0.1167
vn -0.9922 -0.0418 0.1172
vn -0.9570 -0.0439 0.2866
vn -0.9571 -0.0439 0.2863
vn -0.8563 -0.0050 -0.5164
vn -0.3127 -0.0441 0.9488
vn 0.9951 0.0328 0.0937
vn -0.1300 0.0377 -0.9908
vn -0.9369 -0.0414 0.3472
vn 0.5474 -0.0111 0.8368
vn 0.6930 0.0545 -0.7189
vn -0.5609 0.0548 -0.8261
vn -0.6791 0.0246 0.7337
vn 0.8638 -0.0539 0.5009
vn 0.2966 0.0108 -0.9549
vn -0.9952 0.0613 -0.0765
vn 0.1504 -0.0249 0.9883
vn 0.9309 -0.0376 -0.3633
vn 0.0598 -0.0443 -0.9972
vn -0.9865 -0.0097 0.1637
vn 0.3785 0.0583 0.9238
vn 0.8178 -0.0066 -0.5755
vn -0.7423 -0.0457 -0.6685
vn -0.4867 0.0366 0.8728
vn 0.9591 0.0391 0.2803
vn 0.7500 0.0443 0.6599
vn 0.7721 0.0451 0.6339
vn -0.7814 0.0217 0.6237
vn -0.7905 0.0211 0.6121
vn -0.4300 -0.0672 -0.9003
vn -0.4233 -0.0667 -0.9035
vn 0.9663 -0.0059 -0.2572
vn 0.9733 -0.0055 -0.2294
vn -0.0025 0.0570 0.9984
vn -0.0114 0.0564 0.9983
vn -0.9744 -0.0339 -0.2223
vn -0.9712 -0.0336 -0.2360
vn 0.4395 -0.0535 -0.8966
vn 0.4394 -0.0535 -0.8967
vn 0.9980 -0.0565 0.0287
vn 0.9977 -0.0560 0.0389
vn -0.2364 -0.0244 0.9713
vn -0.2665 -0.0238 0.9635
vn -0.8857 0.0552 -0.4609
vn -0.8831 0.0549 -0.4660
vn 0.6440 -0.0127 -0.7649
vn 0.6551 -0.0127 -0.7554
vn 0.5966 -0.0611 0.8002
vn 0.5945 -0.0610 0.8018
vn -0.9291 0.0276 0.3687
vn -0.9147 0.0280 0.4031
vn -0.1955 0.0372 -0.9800
vn -0.1830 0.0366 -0.9824
vn 0.9240 0.0411 -0.3801
vn 0.9262 0.0409 -0.3749
vn 0.1667 -0.0256 0.9857
vn 0.1579 -0.0254 0.9871
vn -0.9972 -0.0355 -0.0659
vn -0.9916 -0.0343 -0.1245
vn 0.3589 0.0336 -0.9328
vn 0.2976 0.0345 -0.9541
vn 0.8749 0.0142 0.4841
vn 0.8702 0.0139 0.4924
vn -0.6680 -0.0478 0.7426
vn -0.6709 -0.0476 0.7400
vn -0.5973 -0.0015 -0.8020
vn -0.5995 -0.0015 -0.8004
vn -0.5229 0.0003 -0.8524
vn -0.7397 -0.0431 0.6715
vn 0.8200 0.0117 0.5722
vn 0.4296 0.0323 -0.9025
vn -0.9798 -0.0326 -0.1972
vn 0.0639 -0.0236 0.9977
vn 0.9581 0.0362 -0.2841
vn -0.0913 0.0319 -0.9953
vn -0.9571 0.0266 0.2885
vn 0.5136 -0.0549 0.8563
vn 0.7215 -0.0127 -0.6923
vn -0.8345 0.0488 -0.5488
vn -0.3425 -0.0220 0.9393
vn 0.9899 -0.0513 0.1323
vn 0.5261 -0.0479 -0.8491
vn -0.9455 -0.0314 -0.3242
vn -0.1056 0.0500 0.9931
vn 0.9877 -0.0043 -0.1562
vn -0.3355 -0.0606 -0.9401
vn -0.8433 0.0179 0.5372
vn 0.6909 0.0420 0.7217
vn -0.0000 1.0000 -0.0000
vn -0.0000 -1.0000 -0.0000
vt 0.384845 0.189591
vt 0.407434 0.189769
vt 0.404179 0.220749
vt 0.381944 0.220576
vt 0.848638 0.490789
vt 0.871264 0.488506
vt 0.869788 0.519821
vt 0.847062 0.522116
vt 0.396879 0.780701
vt 0.418566 0.780199
vt 0.418506 0.811213
vt 0.396305 0.811721
vt 0.282700 0.782133
vt 0.304111 0.782848
vt 0.303648 0.813859
vt 0.282957 0.813167
vt 0.323655 0.783491
vt 0.324093 0.814533
vt 0.424171 0.189920
vt 0.422134 0.220908
vt 0.377762 0.781087
vt 0.378277 0.812077
vt 0.548100 0.487427
vt 0.564102 0.487186
vt 0.562461 0.518221
vt 0.545177 0.518481
vt 0.424384 0.780590
vt 0.443839 0.780715
vt 0.442806 0.811716
vt 0.424398 0.811599
vt 0.095606 0.783675
vt 0.117134 0.781599
vt 0.115650 0.812903
vt 0.094793 0.814909
vt 0.136271 0.779695
vt 0.135728 0.810913
vt 0.525380 0.487758
vt 0.522727 0.518807
vt 0.809029 0.189792
vt 0.831751 0.190039
vt 0.831920 0.221052
vt 0.809083 0.220805
vt 0.465328 0.780868
vt 0.464857 0.811871
vt 0.942291 0.787493
vt 0.953738 0.786871
vt 0.953185 0.817957
vt 0.941410 0.818596
vt 0.960381 0.487697
vt 0.970667 0.487033
vt 0.970580 0.518114
vt 0.959778 0.518812
vt 0.760897 0.786354
vt 0.769265 0.786731
vt 0.768908 0.817754
vt 0.759829 0.817346
vt 0.963706 0.786931
vt 0.975878 0.787208
vt 0.975667 0.818226
vt 0.963386 0.817944
vt 0.931649 0.788067
vt 0.931308 0.819140
vt 0.948716 0.488462
vt 0.948468 0.519555
vt 0.748632 0.785810
vt 0.747681 0.816809
vt 0.767781 0.892336
vt 0.757180 0.891862
vt 0.970924 0.592809
vt 0.959018 0.593581
vt 0.952444 0.892667
vt 0.939964 0.893343
vt 0.975024 0.892802
vt 0.962512 0.892508
vt 0.745283 0.891337
vt 0.948468 0.594277
vt 0.931018 0.893823
vt 0.114419 0.887943
vt 0.094827 0.889816
vt 0.440750 0.886260
vt 0.424171 0.886157
vt 0.559606 0.592829
vt 0.539907 0.593122
vt 0.136271 0.885790
vt 0.463861 0.886420
vt 0.831749 0.295612
vt 0.809012 0.295371
vt 0.517964 0.593439
vt 0.418936 0.885773
vt 0.395897 0.886290
vt 0.869779 0.594759
vt 0.846890 0.597072
vt 0.398671 0.295260
vt 0.377015 0.295095
vt 0.302097 0.888407
vt 0.282585 0.887753
vt 0.379646 0.886600
vt 0.418614 0.295432
vt 0.324015 0.889132
vt 0.306128 0.647784
vt 0.321815 0.654922
vt 0.832852 0.492394
vt 0.832718 0.363315
vt 0.853103 0.361249
vt 0.377015 0.652689
vt 0.399546 0.652210
vt 0.282585 0.653627
vt 0.394934 0.061242
vt 0.418203 0.061432
vt 0.874774 0.359067
vt 0.418814 0.651743
vt 0.535790 0.359165
vt 0.558880 0.358826
vt 0.809687 0.061350
vt 0.831881 0.054976
vt 0.447004 0.652306
vt 0.465902 0.652445
vt 0.120315 0.652227
vt 0.135559 0.650686
vt 0.793039 0.189637
vt 0.789111 0.061141
vt 0.424240 0.645531
vt 0.096936 0.654503
vt 0.931781 0.659437
vt 0.944087 0.658772
vt 0.949214 0.359716
vt 0.961850 0.358891
vt 0.753484 0.657461
vt 0.766859 0.651427
vt 0.964840 0.651858
vt 0.976389 0.658731
vt 0.954048 0.658229
vt 0.970008 0.358369
vt 0.954692 0.786697
vt 0.954259 0.651595
vt 0.954048 0.597072
vt 0.965278 0.597347
vt 0.743659 0.657031
vt 0.745598 0.595928
vt 0.756388 0.596402
vt 0.943746 0.597573
vt 0.952918 0.597072
vt 0.976389 0.597581
vt 0.769265 0.596976
vt 0.949120 0.298463
vt 0.961895 0.297631
vt 0.931018 0.598262
vt 0.096261 0.593150
vt 0.119918 0.590839
vt 0.424171 0.591026
vt 0.447788 0.591186
vt 0.788575 -0.000000
vt 0.810575 0.000227
vt 0.517964 0.359417
vt 0.520717 0.298247
vt 0.540386 0.297967
vt 0.465279 0.591316
vt 0.831920 0.000469
vt 0.563169 0.297631
vt 0.401014 0.591048
vt 0.418936 0.590604
vt 0.853912 0.299730
vt 0.874774 0.297631
vt 0.398494 0.000145
vt 0.421576 0.000337
vt 0.283145 0.592486
vt 0.306918 0.593276
vt 0.377565 0.591555
vt 0.832093 0.301940
vt 0.377015 0.054492
vt 0.378493 -0.000000
vt 0.466039 0.993886
vt 0.442804 0.999190
vt 0.424171 0.984330
vt 0.424171 0.960497
vt 0.442804 0.945638
vt 0.466941 0.950580
vt 0.476380 0.972414
vt -0.000000 0.960047
vt 0.018633 0.945187
vt 0.041959 0.950030
vt 0.052209 0.971963
vt 0.041869 0.993436
vt 0.018633 0.998739
vt -0.000000 0.983880
vt 0.887808 0.937324
vt 0.893397 0.924759
vt 0.905920 0.921901
vt 0.915962 0.929910
vt 0.915962 0.942754
vt 0.905920 0.950763
vt 0.892638 0.948453
vt 0.292638 0.952030
vt 0.315228 0.946873
vt 0.333344 0.961320
vt 0.333344 0.984491
vt 0.315228 0.998938
vt 0.292638 0.993782
vt 0.282585 0.972906
vt 0.361203 0.971779
vt 0.371401 0.950877
vt 0.394101 0.945818
vt 0.412090 0.960089
vt 0.412090 0.983668
vt 0.393833 0.998075
vt 0.371186 0.992784
vt 0.799374 0.943105
vt 0.799374 0.930518
vt 0.809215 0.922670
vt 0.821486 0.925471
vt 0.826947 0.936811
vt 0.821486 0.948151
vt 0.809215 0.950952
s 1
usemtl Material.016
f 46/1/1 24/2/2 4/3/3 1/4/4
f 48/5/5 26/6/6 6/7/7 3/8/8
f 50/9/9 28/10/10 7/11/11 5/12/12
f 28/13/13 22/14/14 2/15/15 7/16/16
f 22/14/17 46/17/18 1/18/19 2/15/20
f 24/2/21 48/19/22 3/20/23 4/3/24
f 26/21/25 50/9/26 5/12/27 6/22/28
f 52/23/29 32/24/30 11/25/31 8/26/32
f 54/27/33 34/28/34 13/29/35 10/30/36
f 56/31/37 36/32/38 14/33/39 12/34/40
f 36/32/41 30/35/42 9/36/43 14/33/44
f 30/37/45 52/23/46 8/26/47 9/38/48
f 32/39/49 54/40/50 10/41/51 11/42/52
f 34/28/53 56/43/54 12/44/55 13/29/56
f 58/45/57 40/46/58 18/47/59 15/48/60
f 60/49/61 42/50/62 20/51/63 17/52/64
f 62/53/65 44/54/66 21/55/67 19/56/68
f 44/57/69 38/58/70 16/59/71 21/60/72
f 38/61/73 58/45/74 15/48/75 16/62/76
f 40/63/77 60/49/78 17/52/79 18/64/80
f 42/65/81 62/53/82 19/56/83 20/66/84
f 85/67/85 86/68/85 19/56/68 21/55/67
f 87/69/86 88/70/86 17/52/64 20/51/63
f 89/71/87 90/72/87 15/48/60 18/47/59
f 91/73/88 85/74/88 21/60/72 16/59/71
f 86/68/89 87/75/89 20/66/84 19/56/83
f 88/70/90 89/76/90 18/64/80 17/52/79
f 90/72/91 91/77/91 16/62/76 15/48/75
f 92/78/92 93/79/92 12/34/40 14/33/39
f 94/80/93 95/81/93 10/30/36 13/29/35
f 96/82/94 97/83/94 8/26/32 11/25/31
f 98/84/95 92/78/95 14/33/44 9/36/43
f 93/85/96 94/80/96 13/29/56 12/44/55
f 95/86/97 96/87/97 11/42/52 10/41/51
f 97/83/98 98/88/98 9/38/48 8/26/47
f 99/89/99 100/90/99 5/12/12 7/11/11
f 101/91/100 102/92/100 3/8/8 6/7/7
f 103/93/101 104/94/101 1/4/4 4/3/3
f 105/95/102 99/96/102 7/16/16 2/15/15
f 100/90/103 101/97/103 6/22/28 5/12/27
f 102/98/104 103/93/104 4/3/24 3/20/23
f 104/99/105 105/95/105 2/15/20 1/18/19
f 46/17/18 22/14/17 23/100/106 47/101/107
f 48/5/22 24/102/21 25/103/108 49/104/109
f 50/9/26 26/21/25 27/105/110 51/106/111
f 22/14/14 28/13/13 29/107/112 23/100/113
f 24/2/2 46/1/1 47/108/114 25/109/115
f 26/6/6 48/5/5 49/104/116 27/110/117
f 28/10/10 50/9/9 51/106/118 29/111/119
f 52/23/46 30/37/45 31/112/120 53/113/121
f 54/40/50 32/39/49 33/114/122 55/115/123
f 56/43/54 34/28/53 35/116/124 57/117/125
f 30/35/42 36/32/41 37/118/126 31/119/127
f 32/39/30 52/120/29 53/121/128 33/114/129
f 34/28/34 54/27/33 55/122/130 35/116/131
f 36/32/38 56/31/37 57/123/132 37/118/133
f 58/45/74 38/61/73 39/124/134 59/125/135
f 60/49/78 40/63/77 41/126/136 61/127/137
f 62/53/82 42/65/81 43/128/138 63/129/139
f 38/58/70 44/57/69 45/130/140 39/131/141
f 40/46/58 58/45/57 59/125/142 41/132/143
f 42/50/62 60/49/61 61/127/144 43/133/145
f 44/57/66 62/134/65 63/135/146 45/130/147
f 45/130/147 63/135/146 82/136/148 84/137/148
f 43/128/145 61/138/144 80/139/149 83/140/149
f 41/132/143 59/125/142 78/141/150 81/142/150
f 39/131/141 45/130/140 84/137/151 79/143/151
f 63/129/139 43/128/138 83/140/152 82/144/152
f 61/127/137 41/126/136 81/145/153 80/146/153
f 59/125/135 39/124/134 79/147/154 78/141/154
f 37/118/133 57/123/132 75/148/155 77/149/155
f 35/116/131 55/122/130 73/150/156 76/151/156
f 33/114/129 53/121/128 71/152/157 74/153/157
f 31/112/127 37/154/126 77/155/158 72/156/158
f 57/117/125 35/116/124 76/151/159 75/157/159
f 55/115/123 33/114/122 74/153/160 73/158/160
f 53/113/121 31/112/120 72/156/161 71/159/161
f 29/111/119 51/106/118 68/160/162 70/161/162
f 27/110/117 49/104/116 66/162/163 69/163/163
f 25/109/115 47/108/114 64/164/164 67/165/164
f 23/100/113 29/107/112 70/166/165 65/167/165
f 51/106/111 27/105/110 69/168/166 68/160/166
f 49/104/109 25/103/108 67/169/167 66/162/167
f 47/108/107 23/170/106 65/171/168 64/164/168
f 68/172/169 69/173/169 66/174/169 67/175/169 64/176/169 65/177/169 70/178/169
f 75/179/169 76/180/169 73/181/169 74/182/169 71/183/169 72/184/169 77/185/169
f 82/186/169 83/187/169 80/188/169 81/189/169 78/190/169 79/191/169 84/192/169
f 105/193/170 104/194/170 103/195/170 102/196/170 101/197/170 100/198/170 99/199/170
f 98/200/170 97/201/170 96/202/170 95/203/170 94/204/170 93/205/170 92/206/170
f 91/207/170 90/208/170 89/209/170 88/210/170 87/211/170 86/212/170 85/213/170
