# Blender 4.4.3
# www.blender.org
o LVL2-NavPathCastle2
v 2.777174 0.000000 -44.220856
v 2.777174 0.000000 0.000000
v 2.451845 0.454506 -44.220856
v 1.835672 0.000000 -44.220856
v -1.835672 0.000000 -44.220856
v 1.834242 0.454506 -44.220856
v 1.835672 0.000000 0.000000
v -1.835670 0.000000 0.000000
v 1.834242 0.454506 0.000000
v -1.837103 0.454506 0.000000
v 2.451845 0.454506 0.000000
v 1.834242 0.454506 0.000000
v -1.837103 0.454506 0.000000
v 1.834242 0.454506 -44.220856
v 1.698067 0.562008 0.000000
v -1.711306 0.562008 0.000000
v 1.698067 0.562008 -44.220856
v -1.711306 0.562008 -44.220856
v -1.837103 0.454506 -44.220856
v -1.837103 0.454506 -44.220856
v -2.454704 0.454506 -44.220856
v -2.454704 0.454506 0.000000
v -2.777176 0.000000 -44.220856
v -2.777176 0.000000 0.000000
vn 0.8132 0.5820 -0.0000
vn -0.0000 -1.0000 -0.0000
vn -0.0000 -0.0000 -1.0000
vn -0.0000 -0.0000 1.0000
vn -0.0000 1.0000 -0.0000
vn 0.6196 0.7849 -0.0000
vn -0.0000 -0.0001 -1.0000
vn -0.6497 0.7602 -0.0000
vn -0.8156 0.5787 -0.0000
vt 0.834002 0.000000
vt 0.846075 0.113391
vt 0.841348 0.113804
vt 0.829274 0.000413
vt 0.661767 0.618459
vt 0.661767 0.761235
vt 0.653306 0.761235
vt 0.653306 0.618459
vt 0.843758 0.115197
vt 0.839828 0.114988
vt 0.620311 0.761235
vt 0.620311 0.618459
vt 0.834724 0.122239
vt 0.830794 0.122030
vt 0.991536 0.941448
vt 0.987456 0.941443
vt 0.987456 0.929564
vt 0.991536 0.929568
vt 0.991536 0.944494
vt 0.987456 0.943442
vt 0.995920 0.403065
vt 0.962451 0.609257
vt 0.968001 0.609257
vt 0.968001 0.752012
vt 0.962451 0.752012
vt 0.996885 0.221426
vt 0.996885 0.233305
vt 0.995920 0.232865
vt 0.995920 0.221833
vt 0.715407 0.142778
vt 0.715409 0.000024
vt 0.716633 0.000000
vt 0.716631 0.142755
vt 0.747274 0.000000
vt 0.747271 0.142755
vt 0.995920 0.375768
vt 0.995920 0.368012
vt 0.996821 0.368183
vt 0.996821 0.375386
vt 0.748404 0.000024
vt 0.748402 0.142778
vt 0.832408 0.124044
vt 0.829274 0.123214
vt 0.962451 0.752682
vt 0.968001 0.752682
vt 0.968001 0.895436
vt 0.962451 0.895436
vt 0.984129 0.676303
vt 0.984129 0.819390
vt 0.980044 0.819390
vt 0.980044 0.676303
vt 0.611850 0.761235
vt 0.611850 0.618459
vt 0.991536 0.926522
vt 0.987456 0.927565
s 0
f 2/1/1 1/2/1 3/3/1 11/4/1
f 1/5/2 2/6/2 7/7/2 4/8/2
f 1/2/3 4/9/3 6/10/3 3/3/3
f 8/11/2 5/12/2 4/8/2 7/7/2
f 5/13/3 20/14/3 6/10/3 4/9/3
f 7/15/4 9/16/4 10/17/4 8/18/4
f 7/15/4 2/19/4 11/20/4 9/16/4
f 10/21/5 9/21/5 12/21/5 13/21/5
f 9/21/5 6/21/5 14/21/5 12/21/5
f 3/22/5 6/23/5 9/24/5 11/25/5
f 13/26/4 12/27/4 15/28/4 16/29/4
f 12/30/6 14/31/6 17/32/6 15/33/6
f 18/34/5 16/35/5 15/33/5 17/32/5
f 14/36/7 19/37/7 18/38/7 17/39/7
f 19/40/8 13/41/8 16/35/8 18/34/8
f 20/21/5 10/21/5 13/21/5 19/21/5
f 6/21/5 20/21/5 19/21/5 14/21/5
f 5/13/3 23/42/3 21/43/3 20/14/3
f 20/44/5 21/45/5 22/46/5 10/47/5
f 23/48/9 24/49/9 22/50/9 21/51/9
f 5/12/2 8/11/2 24/52/2 23/53/2
f 24/54/4 8/18/4 10/17/4 22/55/4
