# Blender 4.4.3
# www.blender.org
o LVL2-NavPathCastle1
v 2.777174 0.000000 -59.938782
v 2.777174 0.000000 0.000000
v 2.451845 0.454506 -59.938782
v 1.835672 0.000000 -59.938782
v -1.835672 0.000000 -59.938782
v 1.834242 0.454506 -59.938782
v 1.835672 0.000000 0.000000
v -1.835670 0.000000 0.000000
v 1.834242 0.454506 0.000000
v -1.837103 0.454506 0.000000
v 2.451845 0.454506 0.000000
v 1.834242 0.454506 0.000000
v -1.837103 0.454506 0.000000
v 1.834242 0.454506 -59.938782
v 1.698067 0.562008 0.000000
v -1.711306 0.562008 0.000000
v 1.698067 0.562008 -59.938782
v -1.711306 0.562008 -59.938782
v -1.837103 0.454506 -59.938782
v -1.837103 0.454506 -59.938782
v -2.454704 0.454506 -59.938782
v -2.454704 0.454506 0.000000
v -2.777176 0.000000 -59.938782
v -2.777176 0.000000 0.000000
vn -0.0000 -1.0000 -0.0000
vn 0.8132 0.5820 -0.0000
vn -0.0000 -0.0000 -1.0000
vn -0.0000 -0.0000 1.0000
vn -0.0000 1.0000 -0.0000
vn 0.6196 0.7849 -0.0000
vn -0.6497 0.7602 -0.0000
vn -0.8156 0.5787 -0.0000
vt 0.592290 0.000000
vt 0.592290 0.193525
vt 0.583829 0.193525
vt 0.583829 0.000000
vt 0.771924 0.128030
vt 0.784244 0.281774
vt 0.779507 0.282170
vt 0.767186 0.128426
vt 0.781880 0.283572
vt 0.777956 0.283350
vt 0.550834 0.193525
vt 0.550834 0.000000
vt 0.772661 0.290582
vt 0.768737 0.290360
vt 0.991536 0.922805
vt 0.987456 0.922801
vt 0.987456 0.910921
vt 0.991536 0.910926
vt 0.991536 0.925852
vt 0.987456 0.924799
vt 0.995920 0.406415
vt 0.934124 0.388331
vt 0.939675 0.388331
vt 0.939675 0.581826
vt 0.934124 0.581826
vt 0.996885 0.208876
vt 0.996885 0.220756
vt 0.995920 0.220315
vt 0.995920 0.209283
vt 0.611850 0.955424
vt 0.611850 0.761928
vt 0.613074 0.761905
vt 0.613074 0.955400
vt 0.643714 0.761905
vt 0.643714 0.955400
vt 0.995920 0.358915
vt 0.995920 0.351159
vt 0.996821 0.351330
vt 0.996821 0.358533
vt 0.644845 0.761928
vt 0.644845 0.955424
vt 0.770297 0.292380
vt 0.767186 0.291539
vt 0.934124 0.194166
vt 0.939674 0.194166
vt 0.939674 0.387661
vt 0.934124 0.387661
vt 0.966535 0.156953
vt 0.966535 0.350900
vt 0.962451 0.350900
vt 0.962451 0.156953
vt 0.542372 0.193525
vt 0.542372 0.000000
vt 0.991536 0.907879
vt 0.987456 0.908923
s 0
f 1/1/1 2/2/1 7/3/1 4/4/1
f 2/5/2 1/6/2 3/7/2 11/8/2
f 1/6/3 4/9/3 6/10/3 3/7/3
f 8/11/1 5/12/1 4/4/1 7/3/1
f 5/13/3 20/14/3 6/10/3 4/9/3
f 7/15/4 9/16/4 10/17/4 8/18/4
f 7/15/4 2/19/4 11/20/4 9/16/4
f 10/21/5 9/21/5 12/21/5 13/21/5
f 9/21/5 6/21/5 14/21/5 12/21/5
f 3/22/5 6/23/5 9/24/5 11/25/5
f 13/26/4 12/27/4 15/28/4 16/29/4
f 12/30/6 14/31/6 17/32/6 15/33/6
f 18/34/5 16/35/5 15/33/5 17/32/5
f 14/36/3 19/37/3 18/38/3 17/39/3
f 19/40/7 13/41/7 16/35/7 18/34/7
f 6/21/5 20/21/5 19/21/5 14/21/5
f 20/21/5 10/21/5 13/21/5 19/21/5
f 5/13/3 23/42/3 21/43/3 20/14/3
f 20/44/5 21/45/5 22/46/5 10/47/5
f 23/48/8 24/49/8 22/50/8 21/51/8
f 5/12/1 8/11/1 24/52/1 23/53/1
f 24/54/4 8/18/4 10/17/4 22/55/4
