# Blender 4.4.3
# www.blender.org
o LVL2-NavPathCastle5
v 2.777174 0.000000 -95.447891
v 2.777174 0.000000 0.000000
v 2.451845 0.454506 -95.447891
v 1.835672 0.000000 -95.447891
v -1.835672 0.000000 -95.447891
v 1.834242 0.454506 -95.447891
v 1.835672 0.000000 0.000000
v -1.835670 0.000000 0.000000
v 1.834242 0.454506 0.000000
v -1.837103 0.454506 0.000000
v 2.451845 0.454506 0.000000
v 1.834242 0.454506 0.000000
v -1.837103 0.454506 0.000000
v 1.834242 0.454506 -95.447891
v 1.698067 0.562008 -0.000015
v -1.711306 0.562008 -0.000015
v 1.698067 0.562008 -95.447891
v -1.711306 0.562008 -95.447891
v -1.837103 0.454506 -95.447891
v -1.837103 0.454506 -95.447891
v -2.454704 0.454506 -95.447891
v -2.454704 0.454506 0.000000
v -2.777176 0.000000 -95.447891
v -2.777176 0.000000 0.000000
vn 0.8132 0.5820 -0.0000
vn -0.0000 -1.0000 -0.0000
vn -0.0000 -0.0000 -1.0000
vn -0.0000 -0.0000 1.0000
vn -0.0000 1.0000 -0.0000
vn -0.0000 0.0002 1.0000
vn 0.6196 0.7849 -0.0000
vn -0.6497 0.7602 -0.0000
vn -0.8156 0.5787 -0.0000
vt 0.720156 0.239953
vt 0.732745 0.484839
vt 0.727996 0.485217
vt 0.715407 0.240332
vt 0.488732 0.330990
vt 0.488732 0.639163
vt 0.480271 0.639163
vt 0.480271 0.330990
vt 0.730330 0.486628
vt 0.726412 0.486391
vt 0.447276 0.639163
vt 0.447276 0.330990
vt 0.720910 0.493603
vt 0.716992 0.493366
vt 0.991536 0.960090
vt 0.987456 0.960086
vt 0.987456 0.948206
vt 0.991536 0.948211
vt 0.991536 0.963137
vt 0.987456 0.962084
vt 0.995920 0.409096
vt 0.829275 0.190472
vt 0.834825 0.190472
vt 0.834825 0.498598
vt 0.829275 0.498598
vt 0.996885 0.271624
vt 0.996885 0.283504
vt 0.995920 0.283063
vt 0.995920 0.272031
vt 0.490594 0.859361
vt 0.490594 0.551234
vt 0.491817 0.551210
vt 0.491817 0.859337
vt 0.522458 0.551210
vt 0.522458 0.859337
vt 0.995920 0.316783
vt 0.995920 0.309027
vt 0.996821 0.309198
vt 0.996821 0.316400
vt 0.523588 0.551234
vt 0.523588 0.859360
vt 0.718494 0.495392
vt 0.715407 0.494540
vt 0.829274 0.499268
vt 0.834825 0.499268
vt 0.834825 0.807395
vt 0.829274 0.807395
vt 0.919994 0.331711
vt 0.919994 0.640556
vt 0.915909 0.640556
vt 0.915909 0.331711
vt 0.438815 0.639163
vt 0.438815 0.330990
vt 0.991536 0.945164
vt 0.987456 0.946208
s 0
f 2/1/1 1/2/1 3/3/1 11/4/1
f 1/5/2 2/6/2 7/7/2 4/8/2
f 1/2/3 4/9/3 6/10/3 3/3/3
f 8/11/2 5/12/2 4/8/2 7/7/2
f 5/13/3 20/14/3 6/10/3 4/9/3
f 7/15/4 9/16/4 10/17/4 8/18/4
f 7/15/4 2/19/4 11/20/4 9/16/4
f 10/21/5 9/21/5 12/21/5 13/21/5
f 9/21/5 6/21/5 14/21/5 12/21/5
f 3/22/5 6/23/5 9/24/5 11/25/5
f 13/26/6 12/27/6 15/28/6 16/29/6
f 12/30/7 14/31/7 17/32/7 15/33/7
f 18/34/5 16/35/5 15/33/5 17/32/5
f 14/36/3 19/37/3 18/38/3 17/39/3
f 19/40/8 13/41/8 16/35/8 18/34/8
f 6/21/5 20/21/5 19/21/5 14/21/5
f 20/21/5 10/21/5 13/21/5 19/21/5
f 5/13/3 23/42/3 21/43/3 20/14/3
f 20/44/5 21/45/5 22/46/5 10/47/5
f 23/48/9 24/49/9 22/50/9 21/51/9
f 5/12/2 8/11/2 24/52/2 23/53/2
f 24/54/4 8/18/4 10/17/4 22/55/4
