# Blender 4.4.3
# www.blender.org
o LVL2-NavPathCastle3
v 2.777174 0.000000 -68.007446
v 2.777174 0.000000 0.000000
v 2.451845 0.185165 -68.007446
v 1.835695 0.000000 -68.007446
v -1.835695 0.000000 -68.007446
v 1.834265 0.185165 -68.007446
v 1.835695 0.000000 0.000000
v -1.835695 0.000000 0.000000
v 1.834265 0.185165 0.000000
v 1.834265 0.185165 0.000000
v -1.837126 0.185165 0.000000
v 2.451845 0.185165 0.000000
v -1.837126 0.185165 -68.007446
v -2.454704 0.185165 0.000000
v -1.837126 0.185165 0.000000
v -1.837126 0.185165 -68.007446
v -1.711327 0.292667 0.000000
v 1.698090 0.292667 0.000000
v -1.711327 0.292667 -68.007446
v 1.698090 0.292667 -68.007446
v 1.834265 0.185165 -68.007446
v -2.454704 0.185165 -68.007446
v -2.777176 0.000000 0.000000
v -2.777176 0.000000 -68.007446
vn 0.4947 0.8691 -0.0000
vn -0.0000 -1.0000 -0.0000
vn -0.0000 0.0001 -1.0000
vn -0.0000 -0.0000 -1.0000
vn -0.0000 -0.0000 1.0000
vn -0.0000 1.0000 -0.0000
vn -0.6497 0.7602 -0.0000
vn -0.0000 -0.0001 -1.0000
vn 0.6196 0.7849 -0.0000
vn -0.4980 0.8672 -0.0000
vt 0.864130 0.219584
vt 0.864130 0.000041
vt 0.867054 0.000000
vt 0.867054 0.219543
vt 0.540511 0.330964
vt 0.540511 0.550540
vt 0.532050 0.550540
vt 0.532050 0.330964
vt 0.995920 0.132823
vt 0.995920 0.130834
vt 0.997473 0.130667
vt 0.997473 0.131972
vt 0.499055 0.550540
vt 0.499055 0.330964
vt 0.995920 0.123077
vt 0.997473 0.122911
vt 0.997582 0.086324
vt 0.995920 0.086320
vt 0.995920 0.074440
vt 0.997582 0.074445
vt 0.997582 0.089371
vt 0.995920 0.088318
vt 0.995920 0.407755
vt 0.872604 0.000000
vt 0.872604 0.219543
vt 0.997582 0.071398
vt 0.995920 0.072442
vt 0.864130 0.220254
vt 0.869681 0.220254
vt 0.869681 0.439797
vt 0.864130 0.439797
vt 0.996885 0.158678
vt 0.996885 0.170557
vt 0.995920 0.170117
vt 0.995920 0.159085
vt 0.644847 0.398246
vt 0.644845 0.617788
vt 0.643714 0.617765
vt 0.643717 0.398222
vt 0.613074 0.617765
vt 0.613076 0.398222
vt 0.995920 0.350489
vt 0.995920 0.342732
vt 0.996821 0.342903
vt 0.996821 0.350106
vt 0.611850 0.617789
vt 0.611852 0.398246
vt 0.872579 0.220295
vt 0.872579 0.439837
vt 0.490594 0.550540
vt 0.490594 0.330964
vt 0.995920 0.121088
vt 0.997473 0.121606
s 0
f 2/1/1 1/2/1 3/3/1 12/4/1
f 1/5/2 2/6/2 7/7/2 4/8/2
f 1/9/3 4/10/3 6/11/3 3/12/3
f 8/13/2 5/14/2 4/8/2 7/7/2
f 5/15/4 13/16/4 6/11/4 4/10/4
f 7/17/5 9/18/5 11/19/5 8/20/5
f 7/17/5 2/21/5 12/22/5 9/18/5
f 11/23/6 9/23/6 10/23/6 15/23/6
f 9/23/6 6/23/6 21/23/6 10/23/6
f 3/3/6 6/24/6 9/25/6 12/4/6
f 23/26/5 8/20/5 11/19/5 14/27/5
f 13/23/6 11/23/6 15/23/6 16/23/6
f 13/28/6 22/29/6 14/30/6 11/31/6
f 15/32/5 10/33/5 18/34/5 17/35/5
f 16/36/7 15/37/7 17/38/7 19/39/7
f 19/39/6 17/38/6 18/40/6 20/41/6
f 21/42/8 16/43/8 19/44/8 20/45/8
f 10/46/9 21/47/9 20/41/9 18/40/9
f 6/23/6 13/23/6 16/23/6 21/23/6
f 24/48/10 23/49/10 14/30/10 22/29/10
f 5/14/2 8/13/2 23/50/2 24/51/2
f 5/15/4 24/52/4 22/53/4 13/16/4
