# Blender 4.4.3
# www.blender.org
o LVL2-NavPathCastle7
v 2.777174 0.000000 -102.307312
v 2.777174 0.000000 0.000000
v 2.451845 0.454506 -102.307312
v 1.835672 0.000000 -102.307312
v -1.835672 0.000000 -102.307312
v 1.834242 0.454506 -102.307312
v 1.835672 0.000000 0.000000
v -1.835670 0.000000 0.000000
v 1.834242 0.454506 0.000000
v -1.837103 0.454506 0.000000
v 2.451845 0.454506 0.000000
v 1.834242 0.454506 0.000000
v -1.837103 0.454506 0.000000
v 1.834242 0.454506 -102.307312
v 1.698067 0.562008 0.000000
v -1.711306 0.562008 0.000000
v 1.698067 0.562008 -102.307312
v -1.711306 0.562008 -102.307312
v -1.837103 0.454506 -102.307312
v -1.837103 0.454506 -102.307312
v -2.454704 0.454506 -102.307312
v -2.454704 0.454506 0.000000
v -2.777176 0.000000 -102.307312
v -2.777176 0.000000 0.000000
vn 0.8132 0.5820 -0.0000
vn -0.0000 -1.0000 -0.0000
vn -0.0000 -0.0000 -1.0000
vn -0.0000 -0.0000 1.0000
vn -0.0000 1.0000 -0.0000
vn 0.6196 0.7849 -0.0000
vn -0.6497 0.7602 -0.0000
vn -0.0000 0.0001 -1.0000
vn -0.8156 0.5787 -0.0000
vt 0.668379 0.610697
vt 0.680999 0.873187
vt 0.676249 0.873564
vt 0.663629 0.611074
vt 0.488732 0.000000
vt 0.488732 0.330320
vt 0.480271 0.330320
vt 0.480271 0.000000
vt 0.678577 0.874975
vt 0.674660 0.874737
vt 0.447276 0.330320
vt 0.447276 0.000000
vt 0.669134 0.881947
vt 0.665217 0.881708
vt 1.000000 0.014926
vt 0.995920 0.014922
vt 0.995920 0.003042
vt 1.000000 0.003047
vt 1.000000 0.017973
vt 0.995920 0.016920
vt 0.995920 0.410436
vt 0.818965 0.241263
vt 0.824515 0.241263
vt 0.824515 0.571533
vt 0.818965 0.571533
vt 0.996885 0.183777
vt 0.996885 0.195657
vt 0.995920 0.195216
vt 0.995920 0.184184
vt 0.490594 0.330294
vt 0.490594 0.000024
vt 0.491817 0.000000
vt 0.491817 0.330270
vt 0.522458 0.000000
vt 0.522458 0.330270
vt 0.995920 0.401047
vt 0.995920 0.393291
vt 0.996821 0.393462
vt 0.996821 0.400665
vt 0.523588 0.000024
vt 0.523588 0.330294
vt 0.666713 0.883735
vt 0.663629 0.882881
vt 0.818965 0.572203
vt 0.824515 0.572203
vt 0.824515 0.902473
vt 0.818965 0.902473
vt 0.919994 0.000000
vt 0.919994 0.331041
vt 0.915909 0.331041
vt 0.915909 0.000000
vt 0.438815 0.330320
vt 0.438815 0.000000
vt 1.000000 0.000000
vt 0.995920 0.001044
s 0
f 2/1/1 1/2/1 3/3/1 11/4/1
f 1/5/2 2/6/2 7/7/2 4/8/2
f 1/2/3 4/9/3 6/10/3 3/3/3
f 8/11/2 5/12/2 4/8/2 7/7/2
f 5/13/3 20/14/3 6/10/3 4/9/3
f 7/15/4 9/16/4 10/17/4 8/18/4
f 7/15/4 2/19/4 11/20/4 9/16/4
f 10/21/5 9/21/5 12/21/5 13/21/5
f 9/21/5 6/21/5 14/21/5 12/21/5
f 3/22/5 6/23/5 9/24/5 11/25/5
f 13/26/4 12/27/4 15/28/4 16/29/4
f 12/30/6 14/31/6 17/32/6 15/33/6
f 18/34/5 16/35/5 15/33/5 17/32/5
f 14/36/3 19/37/3 18/38/3 17/39/3
f 19/40/7 13/41/7 16/35/7 18/34/7
f 6/21/5 20/21/5 19/21/5 14/21/5
f 20/21/5 10/21/5 13/21/5 19/21/5
f 5/13/8 23/42/8 21/43/8 20/14/8
f 20/44/5 21/45/5 22/46/5 10/47/5
f 23/48/9 24/49/9 22/50/9 21/51/9
f 5/12/2 8/11/2 24/52/2 23/53/2
f 24/54/4 8/18/4 10/17/4 22/55/4
