# Blender 4.4.3
# www.blender.org
o LVL2-NavPathCastle4
v 2.778605 -0.185165 -74.515335
v 2.778605 -0.185165 0.000000
v 2.453276 0.000000 -74.515335
v 1.837126 -0.185165 -74.515335
v -1.834265 -0.185165 -74.515335
v 1.835695 0.000000 -74.515335
v 1.837126 -0.185165 0.000000
v -1.834265 -0.185165 0.000000
v 1.835695 0.000000 0.000000
v -1.835695 0.000000 0.000000
v 2.453276 0.000000 0.000000
v 1.835695 0.000000 0.000000
v -1.835695 0.000000 0.000000
v 1.835695 0.000000 -74.515335
v 1.699520 0.107506 -0.000004
v -1.709896 0.107506 -0.000004
v 1.699520 0.107506 -74.515320
v -1.709896 0.107506 -74.515320
v -1.835695 0.000000 -74.515335
v -1.835695 0.000000 -74.515335
v -2.453274 0.000000 -74.515335
v -2.453274 0.000000 0.000000
v -2.775745 -0.185165 -74.515335
v -2.775745 -0.185165 0.000000
vn 0.4947 0.8691 -0.0000
vn -0.0000 -1.0000 -0.0000
vn -0.0000 -0.0000 -1.0000
vn -0.0000 -0.0000 1.0000
vn -0.0000 1.0000 -0.0000
vn 0.6196 0.7849 -0.0000
vn -0.0000 0.0002 -1.0000
vn -0.6497 0.7602 -0.0000
vn -0.4980 0.8672 -0.0000
vt 0.767186 0.834121
vt 0.767186 0.593569
vt 0.770110 0.593529
vt 0.770110 0.834080
vt 0.488732 0.639833
vt 0.488732 0.880421
vt 0.480271 0.880421
vt 0.480271 0.639833
vt 0.995920 0.120418
vt 0.995920 0.118429
vt 0.997473 0.118263
vt 0.997473 0.119567
vt 0.447276 0.880421
vt 0.447276 0.639833
vt 0.995920 0.110673
vt 0.997473 0.110506
vt 0.997582 0.104967
vt 0.995920 0.104962
vt 0.995920 0.093083
vt 0.997582 0.093087
vt 0.997582 0.108013
vt 0.995920 0.106961
vt 0.995920 0.407085
vt 0.775660 0.593529
vt 0.775660 0.834080
vt 0.996885 0.146128
vt 0.996885 0.158008
vt 0.995920 0.157567
vt 0.995920 0.146535
vt 0.611850 0.240575
vt 0.611852 0.000024
vt 0.613076 0.000000
vt 0.613074 0.240552
vt 0.643717 0.000000
vt 0.643714 0.240552
vt 0.995920 0.325210
vt 0.995920 0.317453
vt 0.996821 0.317624
vt 0.996821 0.324827
vt 0.644847 0.000024
vt 0.644845 0.240575
vt 0.995920 0.108683
vt 0.997473 0.109201
vt 0.818965 0.000000
vt 0.824515 0.000000
vt 0.824515 0.240552
vt 0.818965 0.240552
vt 0.827413 0.000041
vt 0.827413 0.240593
vt 0.438815 0.880421
vt 0.438815 0.639833
vt 0.997582 0.090041
vt 0.995920 0.091084
s 0
f 2/1/1 1/2/1 3/3/1 11/4/1
f 1/5/2 2/6/2 7/7/2 4/8/2
f 1/9/3 4/10/3 6/11/3 3/12/3
f 8/13/2 5/14/2 4/8/2 7/7/2
f 5/15/3 20/16/3 6/11/3 4/10/3
f 7/17/4 9/18/4 10/19/4 8/20/4
f 7/17/4 2/21/4 11/22/4 9/18/4
f 10/23/5 9/23/5 12/23/5 13/23/5
f 9/23/5 6/23/5 14/23/5 12/23/5
f 3/3/5 6/24/5 9/25/5 11/4/5
f 13/26/4 12/27/4 15/28/4 16/29/4
f 12/30/6 14/31/6 17/32/6 15/33/6
f 18/34/5 16/35/5 15/33/5 17/32/5
f 14/36/7 19/37/7 18/38/7 17/39/7
f 19/40/8 13/41/8 16/35/8 18/34/8
f 6/23/5 20/23/5 19/23/5 14/23/5
f 20/23/5 10/23/5 13/23/5 19/23/5
f 5/15/3 23/42/3 21/43/3 20/16/3
f 20/44/5 21/45/5 22/46/5 10/47/5
f 23/48/9 24/49/9 22/46/9 21/45/9
f 5/14/2 8/13/2 24/50/2 23/51/2
f 24/52/4 8/20/4 10/19/4 22/53/4
