# Blender 4.4.3
# www.blender.org
o LVL2-NavPathLeft3
v 2.777174 0.000000 -48.411560
v 2.777174 0.000000 0.000000
v 2.451845 0.454506 -48.411560
v 1.835672 0.000000 -48.411560
v -1.835672 0.000000 -48.411560
v 1.834242 0.454506 -48.411560
v 1.835672 0.000000 0.000000
v -1.835670 0.000000 0.000000
v 1.834242 0.454506 0.000000
v -1.837103 0.454506 0.000000
v 2.451845 0.454506 0.000000
v 1.834242 0.454506 0.000000
v -1.837103 0.454506 0.000000
v 1.834242 0.454506 -48.411560
v 1.698067 0.562008 0.000000
v -1.711306 0.562008 0.000000
v 1.698067 0.562008 -48.411560
v -1.711306 0.562008 -48.411560
v -1.837103 0.454506 -48.411560
v -1.837103 0.454506 -48.411560
v -2.454704 0.454506 -48.411560
v -2.454704 0.454506 0.000000
v -2.777176 0.000000 -48.411560
v -2.777176 0.000000 0.000000
vn -0.0000 -1.0000 -0.0000
vn 0.8132 0.5820 -0.0000
vn -0.0000 -0.0000 -1.0000
vn -0.0000 -0.0000 1.0000
vn -0.0000 1.0000 -0.0000
vn 0.6196 0.7849 -0.0000
vn -0.6497 0.7602 -0.0000
vn -0.8156 0.5787 -0.0000
vt 0.661767 0.241246
vt 0.661767 0.397552
vt 0.653306 0.397552
vt 0.653306 0.241246
vt 0.771917 0.458070
vt 0.784071 0.582221
vt 0.779340 0.582628
vt 0.767186 0.458477
vt 0.781739 0.584024
vt 0.777810 0.583811
vt 0.620311 0.397552
vt 0.620311 0.241246
vt 0.772644 0.591055
vt 0.768716 0.590842
vt 0.991536 0.829592
vt 0.987456 0.829588
vt 0.987456 0.817708
vt 0.991536 0.817713
vt 0.991536 0.832639
vt 0.987456 0.831586
vt 0.995920 0.405745
vt 0.934124 0.821443
vt 0.939675 0.821443
vt 0.939675 0.977726
vt 0.934124 0.977726
vt 0.996885 0.233975
vt 0.996885 0.245855
vt 0.995920 0.245414
vt 0.995920 0.234382
vt 0.663629 0.610027
vt 0.663629 0.453744
vt 0.664852 0.453720
vt 0.664852 0.610003
vt 0.695493 0.453720
vt 0.695493 0.610003
vt 0.995920 0.384194
vt 0.995920 0.376438
vt 0.996821 0.376609
vt 0.996821 0.383812
vt 0.696623 0.453744
vt 0.696623 0.610027
vt 0.770312 0.592858
vt 0.767186 0.592025
vt 0.962451 0.000000
vt 0.968001 0.000000
vt 0.968001 0.156283
vt 0.962451 0.156283
vt 0.984129 0.518985
vt 0.984129 0.675633
vt 0.980044 0.675633
vt 0.980044 0.518985
vt 0.611850 0.397552
vt 0.611850 0.241246
vt 0.991536 0.814666
vt 0.987456 0.815710
s 0
f 1/1/1 2/2/1 7/3/1 4/4/1
f 2/5/2 1/6/2 3/7/2 11/8/2
f 1/6/3 4/9/3 6/10/3 3/7/3
f 8/11/1 5/12/1 4/4/1 7/3/1
f 5/13/3 20/14/3 6/10/3 4/9/3
f 7/15/4 9/16/4 10/17/4 8/18/4
f 7/15/4 2/19/4 11/20/4 9/16/4
f 10/21/5 9/21/5 12/21/5 13/21/5
f 9/21/5 6/21/5 14/21/5 12/21/5
f 3/22/5 6/23/5 9/24/5 11/25/5
f 13/26/4 12/27/4 15/28/4 16/29/4
f 12/30/6 14/31/6 17/32/6 15/33/6
f 18/34/5 16/35/5 15/33/5 17/32/5
f 14/36/3 19/37/3 18/38/3 17/39/3
f 19/40/7 13/41/7 16/35/7 18/34/7
f 6/21/5 20/21/5 19/21/5 14/21/5
f 20/21/5 10/21/5 13/21/5 19/21/5
f 5/13/3 23/42/3 21/43/3 20/14/3
f 20/44/5 21/45/5 22/46/5 10/47/5
f 23/48/8 24/49/8 22/50/8 21/51/8
f 5/12/1 8/11/1 24/52/1 23/53/1
f 24/54/4 8/18/4 10/17/4 22/55/4
