# Blender 4.4.3
# www.blender.org
o LVL2-NavPathsLeftMIDDLE
v 2.777175 0.000000 0.000000
v 2.451846 0.454506 0.000000
v 1.835671 0.000000 0.000000
v 2.777175 0.000000 -29.682114
v 2.451846 0.454506 -29.682114
v 1.835671 0.000000 -29.682114
v -1.835670 0.000000 -29.682114
v 1.834241 0.454506 -29.682114
v 1.698068 0.562008 -29.682114
v -1.837100 0.454506 -29.682114
v 1.834241 0.454506 0.000000
v 1.698068 0.562008 0.000000
v -1.837100 0.454506 0.000000
v -1.835670 0.000000 0.000000
v -2.454703 0.454506 0.000000
v -1.711303 0.562008 0.000000
v -1.711303 0.562008 -29.682114
v -2.777175 0.000000 0.000000
v -2.454703 0.454506 -29.682114
v -2.777175 0.000000 -29.682114
vn 0.8132 0.5820 -0.0000
vn -0.0000 -0.0000 1.0000
vn -0.0000 -1.0000 -0.0000
vn -0.0000 -0.0000 -1.0000
vn 0.6196 0.7849 -0.0000
vn -0.0000 1.0000 -0.0000
vn -0.6497 0.7602 -0.0000
vn -0.8156 0.5787 -0.0000
vt 0.915909 0.729761
vt 0.920616 0.729320
vt 0.932252 0.805372
vt 0.927544 0.805813
vt 0.992501 0.813996
vt 0.988421 0.812944
vt 0.988421 0.810945
vt 0.992501 0.810950
vt 0.765325 0.239283
vt 0.756864 0.239283
vt 0.756864 0.143448
vt 0.765325 0.143448
vt 0.930019 0.807191
vt 0.926080 0.807006
vt 0.723869 0.239283
vt 0.723869 0.143448
vt 0.921313 0.814286
vt 0.917374 0.814101
vt 0.722182 0.948718
vt 0.720958 0.948742
vt 0.720958 0.852922
vt 0.722182 0.852898
vt 0.916741 0.813813
vt 0.924826 0.807225
vt 0.715407 0.948742
vt 0.715407 0.852922
vt 0.987456 0.810505
vt 0.987456 0.799473
vt 0.988421 0.799066
vt 0.992501 0.799070
vt 0.988421 0.797067
vt 0.992501 0.796024
vt 0.759503 0.948742
vt 0.753953 0.948742
vt 0.753953 0.852922
vt 0.759503 0.852922
vt 0.752822 0.948718
vt 0.752822 0.852898
vt 0.991540 0.323612
vt 0.987456 0.323612
vt 0.987456 0.227568
vt 0.991540 0.227568
vt 0.919080 0.816105
vt 0.915909 0.815294
vt 0.715407 0.239283
vt 0.715407 0.143448
s 0
f 2/1/1 1/2/1 4/3/1 5/4/1
f 1/5/2 2/6/2 11/7/2 3/8/2
f 1/9/3 3/10/3 6/11/3 4/12/3
f 4/3/4 6/13/4 8/14/4 5/4/4
f 3/10/3 14/15/3 7/16/3 6/11/3
f 7/17/4 10/18/4 8/14/4 6/13/4
f 12/19/5 11/20/5 8/21/5 9/22/5
f 8/14/4 10/18/4 17/23/4 9/24/4
f 11/20/6 2/25/6 5/26/6 8/21/6
f 11/7/2 12/27/2 16/28/2 13/29/2
f 14/30/2 3/8/2 11/7/2 13/29/2
f 14/30/2 13/29/2 15/31/2 18/32/2
f 15/33/6 13/34/6 10/35/6 19/36/6
f 13/34/7 16/37/7 17/38/7 10/35/7
f 16/37/6 12/19/6 9/22/6 17/38/6
f 18/39/8 15/40/8 19/41/8 20/42/8
f 7/17/4 20/43/4 19/44/4 10/18/4
f 14/15/3 18/45/3 20/46/3 7/16/3
