# Blender 4.4.3
# www.blender.org
o LVL1-FloorB
v 3.333267 2.471703 -36.571457
v -3.333267 2.471703 -36.571457
v 3.333267 2.471703 34.099747
v 3.333267 0.000000 -34.099747
v 3.333267 -1.226875 -36.540222
v -3.333267 -1.226875 -36.540222
v 3.333267 -1.226860 -34.099747
v -3.333267 -1.226860 -34.099747
v -3.333267 0.000000 -34.099747
v -3.333267 0.000000 34.099747
v 3.333267 0.000000 34.099747
v -3.333267 2.471703 34.099747
vn -0.0000 -0.0084 -1.0000
vn -0.0000 1.0000 -0.0000
vn 1.0000 -0.0000 -0.0000
vn -0.0000 -1.0000 -0.0000
vn -0.0000 -0.0000 1.0000
vt 0.243559 0.794088
vt 0.243559 0.766116
vt 0.260918 0.766116
vt 0.260918 0.794088
vt 0.420160 0.607264
vt 0.420160 0.310739
vt 0.451448 0.310739
vt 0.451448 0.607264
vt 0.931725 0.000000
vt 0.943325 0.000000
vt 0.943325 0.286153
vt 0.931725 0.296524
vt 0.949083 0.286153
vt 0.949083 0.296393
vt 0.255013 0.837637
vt 0.243559 0.837637
vt 0.243559 0.809665
vt 0.255013 0.809665
vt 0.499251 0.799170
vt 0.493493 0.799170
vt 0.493493 0.771199
vt 0.499251 0.771199
vt 0.517584 0.596893
vt 0.517584 0.310739
vt 0.548872 0.310739
vt 0.548872 0.596893
vt 0.322737 0.773224
vt 0.334337 0.773224
vt 0.334337 0.801195
vt 0.322737 0.801195
s 0
f 2/1/1 1/2/1 5/3/1 6/4/1
f 2/5/2 12/6/2 3/7/2 1/8/2
f 3/9/3 11/10/3 4/11/3 1/12/3
f 7/13/3 5/14/3 1/12/3 4/11/3
f 5/15/4 7/16/4 8/17/4 6/18/4
f 7/19/5 4/20/5 9/21/5 8/22/5
f 4/23/4 11/24/4 10/25/4 9/26/4
f 12/27/5 10/28/5 11/29/5 3/30/5
