# Blender 4.4.3
# www.blender.org
o LVL1-CeillingC
v 3.333267 2.471703 16.000885
v -3.333267 2.471703 16.000885
v 3.333267 0.000000 16.000885
v 3.333267 2.471703 -16.000900
v -3.333267 2.471703 -16.000900
v 3.333267 0.000000 -16.000900
v -3.333267 0.000000 -16.000900
v -3.333267 0.000000 16.000885
vn -0.0000 1.0000 -0.0000
vn -0.0000 -0.0000 1.0000
vn 1.0000 -0.0000 -0.0000
vn -0.0000 -0.0000 -1.0000
vn -0.0000 -1.0000 -0.0000
vn -1.0000 -0.0000 -0.0000
vt 0.243559 0.616265
vt 0.274847 0.616265
vt 0.274847 0.750539
vt 0.243559 0.750539
vt 0.048712 0.825444
vt 0.048712 0.797472
vt 0.060312 0.797472
vt 0.060312 0.825444
vt 0.988400 0.581298
vt 1.000000 0.581298
vt 1.000000 0.715572
vt 0.988400 0.715572
vt 0.077736 0.797472
vt 0.089337 0.797472
vt 0.089337 0.825444
vt 0.077736 0.825444
vt 0.468872 0.621347
vt 0.500160 0.621347
vt 0.500160 0.755621
vt 0.468872 0.755621
vt 1.000000 0.865423
vt 0.988400 0.865423
vt 0.988400 0.731149
vt 1.000000 0.731149
s 0
f 2/1/1 1/2/1 4/3/1 5/4/1
f 1/5/2 2/6/2 8/7/2 3/8/2
f 1/9/3 3/10/3 6/11/3 4/12/3
f 4/13/4 6/14/4 7/15/4 5/16/4
f 3/17/5 8/18/5 7/19/5 6/20/5
f 8/21/6 2/22/6 5/23/6 7/24/6
