# Blender 4.4.3
# www.blender.org
o LVL1-FloorA
v 3.333267 1.235851 -53.256119
v 3.333267 1.235851 48.261047
v -3.333267 1.235851 -53.256119
v -3.333267 1.235851 48.261047
v 3.333267 -1.235851 -53.256119
v 3.333267 -1.235851 48.261047
v -3.333267 -1.235851 -53.256119
v -3.333267 -1.235851 48.261047
v -3.333267 1.235851 53.256104
v 3.333267 1.235851 53.256104
v -3.333267 -1.235851 53.256104
v 3.333267 -1.235851 53.256104
vn -0.0000 1.0000 -0.0000
vn 1.0000 -0.0000 -0.0000
vn -0.0000 -0.0000 -1.0000
vn -0.0000 -1.0000 -0.0000
vn -0.0000 -0.0000 1.0000
vn -1.0000 -0.0000 -0.0000
vt 0.322737 0.757646
vt 0.322737 0.331698
vt 0.354024 0.331698
vt 0.354024 0.757646
vt 0.566296 0.331698
vt 0.577896 0.331698
vt 0.577896 0.757646
vt 0.566296 0.757646
vt 0.566296 0.310739
vt 0.577896 0.310739
vt 0.106761 0.797472
vt 0.118361 0.797472
vt 0.118361 0.825444
vt 0.106761 0.825444
vt 0.371448 0.757646
vt 0.371448 0.331698
vt 0.402736 0.331698
vt 0.402736 0.757646
vt 0.292271 0.797472
vt 0.303871 0.797472
vt 0.303871 0.825444
vt 0.292271 0.825444
vt 0.371448 0.310739
vt 0.402736 0.310739
vt 0.322737 0.310739
vt 0.354024 0.310739
vt 0.146136 0.825842
vt 0.157736 0.825842
vt 0.157736 0.846800
vt 0.146136 0.846800
s 0
f 3/1/1 4/2/1 2/3/1 1/4/1
f 2/5/2 6/6/2 5/7/2 1/8/2
f 6/6/2 2/5/2 10/9/2 12/10/2
f 1/11/3 5/12/3 7/13/3 3/14/3
f 5/15/4 6/16/4 8/17/4 7/18/4
f 9/19/5 11/20/5 12/21/5 10/22/5
f 8/17/4 6/16/4 12/23/4 11/24/4
f 2/3/1 4/2/1 9/25/1 10/26/1
f 4/27/6 8/28/6 11/29/6 9/30/6
