# Blender 4.4.3
# www.blender.org
o LVL1-FloorC
v -3.333266 -51.560509 36.232990
v -3.333266 -36.508205 36.232990
v 3.333268 -51.560509 36.232990
v -3.333266 -55.259087 36.264256
v 3.333268 -55.259087 36.264256
v -3.333266 -55.259071 34.113499
v 3.333268 -55.259071 34.113499
v -3.333265 -51.560509 34.082218
v -3.333265 -36.508205 34.082218
v 3.333269 -51.560509 34.082218
v 3.333269 -36.508205 34.082218
v 3.333268 -36.508205 36.232990
v 3.333267 0.000000 34.082233
v 3.333267 0.000000 -34.082249
v 3.333267 2.471703 36.232975
v -3.333265 0.000000 34.082233
v -3.333267 0.000000 -34.082249
v -3.333267 2.471703 -34.082249
v 3.333267 2.471703 -34.082249
v -3.333266 2.471706 36.232990
vn -0.0000 -0.0000 1.0000
vn -0.0000 0.0085 1.0000
vn -0.0000 -1.0000 -0.0000
vn -0.0000 -0.0085 -1.0000
vn -0.0000 -0.0000 -1.0000
vn 1.0000 -0.0000 -0.0000
vn -0.0000 1.0000 -0.0000
vt 0.517584 0.776022
vt 0.548872 0.776022
vt 0.548872 0.839179
vt 0.517584 0.839179
vt 0.517584 0.854698
vt 0.548872 0.854698
vt 0.332831 0.844744
vt 0.322737 0.844744
vt 0.322737 0.816773
vt 0.332831 0.816773
vt 0.000000 0.848122
vt 0.000000 0.832603
vt 0.031288 0.832603
vt 0.031288 0.848122
vt 0.000000 0.769447
vt 0.031288 0.769447
vt 0.505679 0.009155
vt 0.505679 0.000131
vt 0.576324 0.000131
vt 0.576324 0.009155
vt 0.593682 0.000000
vt 0.593682 0.009024
vt 0.031288 0.616265
vt 0.000000 0.616265
vt 0.334337 0.009155
vt 0.322737 0.000131
vt 0.834301 0.286007
vt 0.834301 0.000000
vt 0.865589 0.000000
vt 0.865589 0.286007
vt 0.334337 0.295162
vt 0.322737 0.295162
vt 0.420160 0.804048
vt 0.431761 0.804048
vt 0.431761 0.832020
vt 0.420160 0.832020
vt 0.468872 0.605770
vt 0.468872 0.310739
vt 0.500160 0.310739
vt 0.500160 0.605770
vt 0.548872 0.612470
vt 0.517584 0.612470
s 0
f 12/1/1 2/2/1 1/3/1 3/4/1
f 5/5/2 3/4/2 1/3/2 4/6/2
f 7/7/3 5/8/3 4/9/3 6/10/3
f 6/11/4 8/12/4 10/13/4 7/14/4
f 9/15/5 11/16/5 10/13/5 8/12/5
f 11/17/6 12/18/6 3/19/6 10/20/6
f 5/21/6 7/22/6 10/20/6 3/19/6
f 13/23/5 11/16/5 9/15/5 16/24/5
f 12/18/6 11/17/6 13/25/6 15/26/6
f 14/27/3 13/28/3 16/29/3 17/30/3
f 15/26/6 13/25/6 14/31/6 19/32/6
f 19/33/5 14/34/5 17/35/5 18/36/5
f 18/37/7 20/38/7 15/39/7 19/40/7
f 20/41/1 2/2/1 12/1/1 15/42/1
