# Blender 4.4.3
# www.blender.org
o Cube.002
v 0.328674 4.831700 -5.467946
v 0.328674 4.831700 5.467946
v -1.000000 7.831700 -5.467946
v -1.000000 4.831700 -5.467946
v -1.000000 7.831700 5.467946
v -1.000000 4.831700 5.467946
v 0.328674 4.658907 -5.467946
v 0.328674 4.658907 5.467946
v -1.000000 4.658907 -5.467946
v -1.000000 4.658907 5.467946
v -1.000000 5.831700 5.467946
v -1.000000 6.831700 5.467946
v -1.000000 6.831700 -5.467946
v -1.000000 5.831700 -5.467946
vn 1.0000 -0.0000 -0.0000
vn -0.0000 1.0000 -0.0000
vn -0.0000 -0.0000 1.0000
vn -0.0000 -0.0000 -1.0000
vn -0.0000 -1.0000 -0.0000
vt 0.091442 0.000000
vt 0.091442 1.000000
vt 0.000000 1.000000
vt 0.000000 0.000000
vt 0.274326 1.000000
vt 0.274326 0.000000
vt 0.395823 0.000000
vt 0.395823 1.000000
vt 0.517319 -0.000000
vt 0.533120 -0.000000
vt 0.533120 1.000000
vt 0.517319 1.000000
vt 0.533120 0.000000
vt 0.548921 0.000000
vt 0.548921 0.121497
vt 0.533120 0.121497
vt 0.533120 0.121497
vt 0.548921 0.121497
vt 0.548921 0.242993
vt 0.533120 0.242993
vt 0.517319 0.000000
vt 0.274326 0.000000
vt 0.274326 1.000000
vt 0.182884 1.000000
vt 0.182884 0.000000
s 0
f 12/1/1 13/2/1 3/3/1 5/4/1
f 4/5/2 6/6/2 2/7/2 1/8/2
f 2/9/1 8/10/1 7/11/1 1/12/1
f 6/13/3 10/14/3 8/15/3 2/16/3
f 1/17/4 7/18/4 9/19/4 4/20/4
f 7/8/5 8/7/5 10/21/5 9/12/5
f 6/22/1 4/23/1 14/24/1 11/25/1
f 11/25/1 14/24/1 13/2/1 12/1/1
