# Blender 4.4.3
# www.blender.org
o LVL2-MnoteC
v 0.000000 -1.406094 1.000000
v 0.000000 1.406094 1.000000
v 0.000000 -1.406094 -1.000000
v 0.000000 1.406097 -1.000000
v 0.125244 -1.406094 1.000000
v 0.125244 1.406094 1.000000
v 0.125244 -1.406094 -1.000000
v 0.125244 1.406097 -1.000000
v 0.303251 0.404167 0.097406
v 0.303251 0.287788 0.097406
v 0.303251 0.922657 0.097406
v 0.303251 0.591957 0.097406
v 0.303251 -0.738552 -0.043373
v 0.303251 0.449360 -0.043373
v 0.303251 0.334469 -0.043373
v 0.303251 0.599316 -0.092810
v 0.303251 0.541996 -0.043373
v 0.303251 -0.948505 0.720064
v 0.303251 -0.826069 0.771753
v 0.303251 -0.989040 0.575737
v 0.303251 -0.974678 0.377445
v 0.303251 -0.940609 0.179476
v 0.303251 -0.872986 0.019924
v 0.303251 -0.621277 0.097406
v 0.303251 -0.515053 0.356453
v 0.303251 -0.540375 0.553598
v 0.303251 -0.683693 0.724482
v 0.127081 0.404167 0.097406
v 0.127081 0.287788 0.097406
v 0.127081 0.922657 0.097406
v 0.127081 0.591957 0.097406
v 0.127081 -0.738552 -0.043373
v 0.127081 0.449360 -0.043373
v 0.127081 0.334469 -0.043373
v 0.127081 0.599232 -0.092815
v 0.127081 0.541996 -0.043373
v 0.127081 -0.948505 0.720064
v 0.127081 -0.826069 0.771753
v 0.127081 -0.989040 0.575737
v 0.127081 -0.974678 0.377445
v 0.127081 -0.940609 0.179476
v 0.127081 -0.872986 0.019924
v 0.127081 -0.621281 0.097406
v 0.080885 -0.515053 0.356453
v 0.080885 -0.540375 0.553598
v 0.080885 -0.683693 0.724482
v 0.303251 0.974194 0.097406
v 0.303251 1.011806 0.024776
v 0.127081 0.974194 0.097406
v 0.127081 1.011806 0.024776
v 0.116730 -0.898087 -1.099068
v 0.116730 -0.987732 -1.099068
v 0.116730 -0.459793 -1.099068
v 0.116730 -0.549438 -1.099068
v 0.116730 -0.021500 -1.099068
v 0.116730 -0.111141 -1.099068
v 0.116730 0.416798 -1.099068
v 0.116730 0.327152 -1.099068
v 0.168053 -0.987732 -1.099068
v 0.168053 -0.898087 -1.099068
v 0.168053 -0.549438 -1.099068
v 0.168053 -0.459793 -1.099068
v 0.168051 -0.111141 -1.099068
v 0.168051 -0.021500 -1.099068
v 0.168051 0.327152 -1.099068
v 0.168051 0.416798 -1.099068
v 0.116730 -0.898087 1.099066
v 0.116730 -0.987732 1.099066
v 0.116730 -0.459793 1.099066
v 0.116730 -0.549438 1.099066
v 0.116730 -0.021500 1.099066
v 0.116730 -0.111141 1.099066
v 0.116730 0.416798 1.099066
v 0.116730 0.327152 1.099066
v 0.168053 -0.987732 1.099066
v 0.168053 -0.898087 1.099066
v 0.168053 -0.549438 1.099066
v 0.168053 -0.459793 1.099066
v 0.168051 -0.111141 1.099066
v 0.168051 -0.021500 1.099066
v 0.168051 0.327152 1.099066
v 0.168051 0.416798 1.099066
v 0.116730 0.926369 -1.099068
v 0.116730 0.704735 -1.099068
v 0.168051 0.704735 -1.099068
v 0.168051 0.926369 -1.099068
v 0.116730 0.926369 1.099066
v 0.116730 0.704735 1.099066
v 0.168051 0.704735 1.099066
v 0.168051 0.926369 1.099066
v 0.303251 1.011806 -0.141264
v 0.127081 1.011806 -0.141264
v 0.127081 0.595676 -0.135935
v 0.303251 0.596008 -0.135878
v 0.303251 0.943024 -0.156305
v 0.303251 0.755623 -0.195511
v 0.127081 0.570236 -0.169891
v 0.127081 0.534801 -0.197035
v 0.127081 0.943024 -0.156305
v 0.127081 0.755623 -0.195511
v 0.303251 0.570621 -0.169827
v 0.303251 0.534801 -0.197035
v 0.303251 0.434254 -0.530703
v 0.127081 0.409214 -0.485006
v 0.127081 0.434254 -0.530703
v 0.303251 0.409214 -0.485006
v 0.127081 0.476631 -0.453535
v 0.127081 0.434238 -0.360502
v 0.303251 0.476631 -0.453535
v 0.303251 0.434238 -0.360502
v 0.303251 0.194111 -0.556673
v 0.127081 0.177719 -0.526760
v 0.127081 0.194111 -0.556673
v 0.303251 0.177719 -0.526760
v 0.303251 0.246944 -0.573803
v 0.303251 0.400478 -0.557108
v 0.303251 0.330612 -0.581459
v 0.127081 0.227039 -0.538097
v 0.127081 0.375439 -0.511412
v 0.127081 0.307076 -0.538689
v 0.127081 0.400478 -0.557108
v 0.127081 0.246944 -0.573803
v 0.127081 0.330612 -0.581459
v 0.303251 0.375439 -0.511412
v 0.303251 0.227039 -0.538097
v 0.303251 0.307076 -0.538691
v 0.303251 0.524426 -0.360783
v 0.303251 0.614586 -0.285938
v 0.303251 0.564011 -0.325266
v 0.127081 0.446972 -0.313244
v 0.127081 0.510933 -0.228691
v 0.127081 0.474564 -0.270569
v 0.127081 0.614586 -0.285938
v 0.127081 0.524426 -0.360783
v 0.127081 0.564011 -0.325266
v 0.303251 0.510933 -0.228691
v 0.303251 0.446972 -0.313244
v 0.303251 0.474564 -0.270569
vn -1.0000 -0.0000 -0.0000
vn -0.0000 -0.0000 -1.0000
vn 1.0000 -0.0000 -0.0000
vn -0.0000 -0.0000 1.0000
vn -0.0000 -1.0000 -0.0000
vn -0.0000 1.0000 -0.0000
vn -0.9745 -0.1724 0.1433
vn -0.9939 -0.0275 -0.1071
vn -0.9948 -0.1007 -0.0151
vn -0.9935 -0.1045 -0.0446
vn -0.0000 0.9919 0.1274
vn -0.0000 0.7662 0.6426
vn -0.0000 -0.3889 0.9213
vn -0.0000 -0.4260 -0.9047
vn -0.0000 -0.9628 0.2704
vn -0.0000 0.3151 0.9491
vn -0.0000 -0.9974 -0.0722
vn -0.0000 -0.9855 -0.1696
vn -0.0000 -0.9207 -0.3902
vn -0.0000 0.9252 -0.3794
vn -0.0000 0.8880 0.4599
vn 0.0002 -0.6534 -0.7570
vn 0.0014 -0.8006 0.5992
vn -0.0000 0.2136 -0.9769
vn 0.0012 -0.9968 0.0794
vn -0.0000 0.5397 -0.8418
vn -0.0000 -0.7985 0.6020
vn -0.0000 -0.9656 0.2602
vn 0.0005 -0.6065 0.7951
vn -0.0000 0.8889 -0.4581
vn -0.0000 0.2048 -0.9788
vn -0.0000 0.8765 -0.4814
vn -0.0000 -0.9804 0.1971
vn -0.0000 -0.3084 -0.9513
vn -0.0000 0.2240 0.9746
vn -0.0000 -0.8770 -0.4806
vn -0.0000 -0.6159 0.7878
vn -0.0000 0.6159 -0.7878
vn -0.0000 0.0074 1.0000
vn -0.0000 -0.3706 0.9288
vn -0.0000 -0.0911 -0.9958
vn -0.0000 0.3291 -0.9443
vn -0.0000 -0.8398 0.5430
vn -0.0000 -0.7550 0.6557
vn -0.0000 0.6678 -0.7443
vn -0.0000 0.6139 -0.7894
vt 0.444875 0.313146
vt 0.444875 0.000003
vt 0.667313 0.000000
vt 0.667313 0.313143
vt 0.896270 0.831909
vt 0.896270 0.519560
vt 0.910199 0.519560
vt 0.910199 0.831909
vt 0.000000 0.313176
vt 0.000000 0.000000
vt 0.222438 0.000000
vt 0.222438 0.313176
vt 0.873124 0.313147
vt 0.873124 0.000000
vt 0.887054 0.000000
vt 0.887054 0.313147
vt 0.230082 0.849049
vt 0.216153 0.849049
vt 0.216153 0.626352
vt 0.230082 0.626352
vt 0.299730 0.840872
vt 0.285801 0.840872
vt 0.285801 0.626352
vt 0.299730 0.626352
vt 0.541583 0.644951
vt 0.528571 0.679398
vt 0.511960 0.679055
vt 0.509073 0.671137
vt 0.521182 0.698958
vt 0.516603 0.711080
vt 0.503795 0.700672
vt 0.508315 0.688704
vt 0.480834 0.805770
vt 0.461575 0.812440
vt 0.516123 0.862922
vt 0.543611 0.836977
vt 0.542926 0.853670
vt 0.532732 0.864386
vt 0.462870 0.828936
vt 0.511961 0.804912
vt 0.476807 0.842266
vt 0.531473 0.815316
vt 0.496060 0.853614
vt 0.545639 0.644955
vt 0.578156 0.671139
vt 0.575266 0.679049
vt 0.558656 0.679395
vt 0.566048 0.698952
vt 0.578913 0.688696
vt 0.583435 0.700661
vt 0.570629 0.711072
vt 0.625671 0.812409
vt 0.606412 0.805746
vt 0.571132 0.862901
vt 0.554524 0.864368
vt 0.544328 0.853655
vt 0.543611 0.836896
vt 0.624379 0.828905
vt 0.610444 0.842237
vt 0.575254 0.804826
vt 0.591193 0.853588
vt 0.555744 0.815234
vt 0.799864 0.824762
vt 0.775133 0.824762
vt 0.775133 0.804375
vt 0.799864 0.804375
vt 0.137779 0.702785
vt 0.157372 0.702785
vt 0.157372 0.804013
vt 0.137779 0.804013
vt 0.824596 0.804375
vt 0.824596 0.820077
vt 0.799864 0.820077
vt 0.537535 0.632804
vt 0.543611 0.639583
vt 0.137779 0.689826
vt 0.157372 0.689826
vt 0.799864 0.835860
vt 0.819458 0.835860
vt 0.819458 0.849572
vt 0.799864 0.849572
vt 0.137779 0.632090
vt 0.157372 0.632090
vt 0.157372 0.668915
vt 0.137779 0.668915
vt 0.216153 0.656168
vt 0.196559 0.656168
vt 0.196559 0.643407
vt 0.216153 0.643407
vt 0.216153 0.790791
vt 0.196559 0.790791
vt 0.196559 0.775348
vt 0.216153 0.775348
vt 0.755539 0.804375
vt 0.775132 0.804375
vt 0.775133 0.820519
vt 0.755539 0.820520
vt 0.775133 0.842573
vt 0.755540 0.842573
vt 0.775133 0.864554
vt 0.755539 0.864555
vt 0.775132 0.882197
vt 0.755539 0.882197
vt 0.799864 0.855729
vt 0.780271 0.855730
vt 0.196559 0.633118
vt 0.216153 0.633118
vt 0.263606 0.855630
vt 0.244012 0.855630
vt 0.244012 0.848966
vt 0.263606 0.848966
vt 0.137779 0.626352
vt 0.157372 0.626352
vt 0.543611 0.639588
vt 0.549685 0.632807
vt 0.990033 0.999272
vt 0.984325 0.999272
vt 0.984325 0.763500
vt 0.990033 0.763500
vt 0.984325 0.999272
vt 0.978617 0.999272
vt 0.978617 0.763500
vt 0.984325 0.763500
vt 0.930139 0.519560
vt 0.940108 0.519560
vt 0.940108 0.764352
vt 0.930139 0.764352
vt 0.930139 0.274768
vt 0.940108 0.274768
vt 0.940108 0.519560
vt 0.930139 0.519560
vt 0.238304 0.868959
vt 0.238304 0.859002
vt 0.244012 0.859002
vt 0.244012 0.868959
vt 0.104300 0.868460
vt 0.104300 0.858503
vt 0.110008 0.858503
vt 0.110008 0.868460
vt 0.187935 0.869061
vt 0.187935 0.859104
vt 0.193643 0.859104
vt 0.193643 0.869061
vt 0.115716 0.858503
vt 0.115716 0.868460
vt 0.299730 0.850855
vt 0.299730 0.860837
vt 0.294022 0.860837
vt 0.294022 0.850855
vt 0.123893 0.851401
vt 0.123893 0.861383
vt 0.118185 0.861383
vt 0.118185 0.851401
vt 0.187935 0.854176
vt 0.187935 0.864158
vt 0.182227 0.864158
vt 0.182227 0.854176
vt 0.135309 0.851401
vt 0.135309 0.861383
vt 0.129601 0.861383
vt 0.129601 0.851401
vt 0.388768 0.871144
vt 0.378798 0.871144
vt 0.378798 0.626352
vt 0.388768 0.626352
vt 0.348887 0.871144
vt 0.338917 0.871144
vt 0.338917 0.626352
vt 0.348887 0.626352
vt 0.926631 0.489584
vt 0.920923 0.489584
vt 0.920924 0.244825
vt 0.926632 0.244825
vt 0.920923 0.000000
vt 0.930892 0.000000
vt 0.930892 0.244792
vt 0.920923 0.244792
vt 0.955784 0.764319
vt 0.950076 0.764319
vt 0.950077 0.519560
vt 0.955785 0.519560
vt 0.930892 0.000000
vt 0.940861 0.000000
vt 0.940861 0.244792
vt 0.930892 0.244792
vt 0.995741 0.998578
vt 0.990033 0.998578
vt 0.990033 0.762806
vt 0.995741 0.762806
vt 0.972909 1.000000
vt 0.967201 1.000000
vt 0.967201 0.764228
vt 0.972909 0.764228
vt 0.428650 0.871144
vt 0.418679 0.871144
vt 0.418679 0.626352
vt 0.428650 0.626352
vt 0.920169 0.764352
vt 0.910199 0.764352
vt 0.910199 0.519560
vt 0.920169 0.519560
vt 0.444328 0.871111
vt 0.438620 0.871111
vt 0.438620 0.626352
vt 0.444328 0.626352
vt 0.956537 0.244760
vt 0.950829 0.244760
vt 0.950830 0.000000
vt 0.956538 0.000000
vt 0.978617 1.000000
vt 0.972909 1.000000
vt 0.972909 0.764228
vt 0.978617 0.764228
vt 0.049300 0.626352
vt 0.073947 0.626352
vt 0.073947 0.871144
vt 0.049300 0.871144
vt 0.830304 0.848611
vt 0.830304 0.823994
vt 0.836011 0.823994
vt 0.836011 0.848611
vt 0.193643 0.814458
vt 0.193643 0.839138
vt 0.187935 0.839138
vt 0.187935 0.814458
vt 0.868411 0.764352
vt 0.843761 0.764352
vt 0.843761 0.519560
vt 0.868411 0.519560
vt 0.961493 0.764319
vt 0.955785 0.764319
vt 0.955785 0.519560
vt 0.961493 0.519560
vt 0.196559 0.626361
vt 0.216153 0.626352
vt 0.520263 0.626262
vt 0.504463 0.669785
vt 0.499932 0.671092
vt 0.515992 0.632834
vt 0.582782 0.669810
vt 0.566956 0.626262
vt 0.571228 0.632833
vt 0.587315 0.671121
vt 0.191764 0.794839
vt 0.191758 0.814458
vt 0.187935 0.814458
vt 0.187943 0.794839
vt 0.706500 0.804413
vt 0.726094 0.804413
vt 0.726094 0.811931
vt 0.706500 0.811931
vt 0.196559 0.794839
vt 0.196559 0.814458
vt 0.263606 0.873439
vt 0.244012 0.873439
vt 0.726094 0.847362
vt 0.706500 0.847363
vt 0.706500 0.832429
vt 0.726094 0.832429
vt 0.495692 0.673751
vt 0.504540 0.650810
vt 0.291465 0.851241
vt 0.271871 0.851240
vt 0.271871 0.847672
vt 0.291465 0.847673
vt 0.582683 0.650804
vt 0.591533 0.673741
vt 0.271871 0.860771
vt 0.291465 0.860772
vt 0.291465 0.866057
vt 0.271871 0.866057
vt 0.751395 0.824032
vt 0.751395 0.804413
vt 0.755419 0.804413
vt 0.755376 0.824032
vt 0.098592 0.833733
vt 0.118185 0.833733
vt 0.118185 0.845113
vt 0.098592 0.845113
vt 0.612495 0.677770
vt 0.620504 0.669688
vt 0.630199 0.671060
vt 0.626431 0.675469
vt 0.634275 0.673536
vt 0.630507 0.677945
vt 0.118185 0.854659
vt 0.098592 0.854659
vt 0.291465 0.879966
vt 0.271871 0.879966
vt 0.466721 0.669704
vt 0.474731 0.677785
vt 0.460794 0.675487
vt 0.457026 0.671078
vt 0.491460 0.674990
vt 0.489583 0.661938
vt 0.607078 0.678307
vt 0.608975 0.668367
vt 0.597640 0.661927
vt 0.595766 0.674979
vt 0.639124 0.692348
vt 0.642055 0.688868
vt 0.642353 0.695045
vt 0.639886 0.697931
vt 0.799864 0.866489
vt 0.819458 0.866489
vt 0.819458 0.872496
vt 0.799864 0.872496
vt 0.456719 0.677965
vt 0.452950 0.673556
vt 0.686907 0.868154
vt 0.706500 0.868154
vt 0.706500 0.873629
vt 0.686907 0.873629
vt 0.839308 0.823994
vt 0.839308 0.843613
vt 0.836011 0.843613
vt 0.836011 0.823994
vt 0.686907 0.847788
vt 0.706500 0.847788
vt 0.706500 0.851589
vt 0.686907 0.851589
vt 0.118185 0.858503
vt 0.098592 0.858503
vt 0.448104 0.692371
vt 0.445172 0.688891
vt 0.447668 0.679874
vt 0.451191 0.684011
vt 0.636035 0.683990
vt 0.639558 0.679852
vt 0.686907 0.859243
vt 0.706500 0.859243
vt 0.799864 0.857135
vt 0.819458 0.857135
vt 0.799864 0.849572
vt 0.447342 0.697955
vt 0.444876 0.695069
vt 0.480148 0.678321
vt 0.478250 0.668380
vt 0.483502 0.665656
vt 0.485673 0.677128
vt 0.601553 0.677116
vt 0.603722 0.665644
vt 0.271871 0.855969
vt 0.291465 0.855970
vt 0.098592 0.828737
vt 0.118185 0.828737
vt 0.098592 0.823004
vt 0.118185 0.823004
s 0
f 1/1/1 2/2/1 4/3/1 3/4/1
f 3/5/2 4/6/2 8/7/2 7/8/2
f 7/9/3 8/10/3 6/11/3 5/12/3
f 5/13/4 6/14/4 2/15/4 1/16/4
f 3/17/5 7/18/5 5/19/5 1/20/5
f 8/21/6 4/22/6 2/23/6 6/24/6
f 11/25/3 12/26/3 17/27/3 16/28/3
f 9/29/3 10/30/3 15/31/3 14/32/3
f 12/26/3 9/29/3 14/32/3 17/27/3
f 15/31/3 10/30/3 24/33/3 13/34/3
f 20/35/3 27/36/3 19/37/3 18/38/3
f 13/34/3 24/33/3 23/39/3
f 23/39/3 24/33/3 25/40/3 22/41/3
f 22/41/3 25/40/3 26/42/3 21/43/3
f 21/43/3 26/42/3 27/36/3 20/35/3
f 30/44/1 35/45/1 36/46/1 31/47/1
f 28/48/1 33/49/1 34/50/1 29/51/1
f 31/47/1 36/46/1 33/49/1 28/48/1
f 34/50/1 32/52/1 43/53/1 29/51/1
f 39/54/7 37/55/7 38/56/7 46/57/7
f 32/52/1 42/58/1 43/53/1
f 42/58/8 41/59/8 44/60/8 43/53/8
f 41/59/9 40/61/9 45/62/9 44/60/9
f 40/61/10 39/54/10 46/57/10 45/62/10
f 25/63/11 44/64/11 45/65/11 26/66/11
f 10/67/4 29/68/4 43/69/4 24/70/4
f 26/66/12 45/71/12 46/72/12 27/73/12
f 11/25/3 16/28/3 48/74/3 47/75/3
f 9/76/4 28/77/4 29/68/4 10/67/4
f 19/78/13 38/79/13 37/80/13 18/81/13
f 11/82/4 30/83/4 31/84/4 12/85/4
f 15/86/2 34/87/2 33/88/2 14/89/2
f 23/90/14 42/91/14 32/92/14 13/93/14
f 18/94/15 37/95/15 39/96/15 20/97/15
f 27/73/16 46/72/16 38/79/16 19/78/16
f 20/97/17 39/96/17 40/98/17 21/99/17
f 13/93/2 32/92/2 34/87/2 15/86/2
f 21/99/18 40/98/18 41/100/18 22/101/18
f 12/85/4 31/84/4 28/77/4 9/76/4
f 22/101/19 41/100/19 42/102/19 23/103/19
f 24/104/20 43/105/20 44/64/20 25/63/20
f 14/89/2 33/88/2 36/106/2 17/107/2
f 48/108/21 50/109/21 49/110/21 47/111/21
f 30/83/4 11/82/4 47/112/4 49/113/4
f 35/45/1 30/44/1 49/114/1 50/115/1
f 66/116/6 57/117/6 73/118/6 82/119/6
f 62/120/6 53/121/6 69/122/6 78/123/6
f 57/124/1 58/125/1 74/126/1 73/127/1
f 53/128/1 54/129/1 70/130/1 69/131/1
f 58/132/2 57/133/2 66/134/2 65/135/2
f 54/136/2 53/137/2 62/138/2 61/139/2
f 56/140/2 55/141/2 64/142/2 63/143/2
f 52/139/2 51/138/2 60/144/2 59/145/2
f 67/146/4 68/147/4 75/148/4 76/149/4
f 69/150/4 70/151/4 77/152/4 78/153/4
f 71/154/4 72/155/4 79/156/4 80/157/4
f 73/158/4 74/159/4 81/160/4 82/161/4
f 61/162/3 62/163/3 78/164/3 77/165/3
f 65/166/3 66/167/3 82/168/3 81/169/3
f 54/170/5 61/171/5 77/172/5 70/173/5
f 51/174/1 52/175/1 68/176/1 67/177/1
f 58/178/5 65/179/5 81/180/5 74/181/5
f 55/182/1 56/183/1 72/184/1 71/185/1
f 60/186/6 51/187/6 67/188/6 76/189/6
f 64/190/6 55/191/6 71/192/6 80/193/6
f 59/194/3 60/195/3 76/196/3 75/197/3
f 63/198/3 64/199/3 80/200/3 79/201/3
f 52/202/5 59/203/5 75/204/5 68/205/5
f 56/206/5 63/207/5 79/208/5 72/209/5
f 86/210/6 83/211/6 87/212/6 90/213/6
f 83/214/1 84/215/1 88/216/1 87/217/1
f 84/218/2 83/219/2 86/220/2 85/221/2
f 87/222/4 88/223/4 89/224/4 90/225/4
f 85/226/3 86/227/3 90/228/3 89/229/3
f 84/230/5 85/231/5 89/232/5 88/233/5
f 17/107/22 36/106/22 35/234/22 16/235/22
f 91/236/3 94/237/3 101/238/3 95/239/3
f 93/240/1 92/241/1 99/242/1 97/243/1
f 94/244/23 93/245/23 97/246/23 101/247/23
f 92/248/24 91/249/24 95/250/24 99/251/24
f 48/74/3 16/28/3 94/237/3 91/236/3
f 35/45/1 50/115/1 92/241/1 93/240/1
f 16/252/25 35/253/25 93/245/25 94/244/25
f 50/109/6 48/108/6 91/254/6 92/255/6
f 128/256/26 133/257/26 100/258/26 96/259/26
f 102/260/3 96/261/3 95/239/3 101/238/3
f 131/262/27 136/263/27 102/264/27 98/265/27
f 100/266/1 98/267/1 97/243/1 99/242/1
f 137/268/28 130/269/28 108/270/28 110/271/28
f 98/272/29 102/273/29 101/274/29 97/275/29
f 134/276/30 127/277/30 109/278/30 107/279/30
f 96/259/31 100/258/31 99/251/31 95/250/31
f 108/280/1 107/281/1 105/282/1 104/283/1
f 104/283/1 105/282/1 121/284/1 119/285/1
f 107/279/32 109/278/32 103/286/32 105/287/32
f 110/271/33 108/270/33 104/288/33 106/289/33
f 109/290/3 110/291/3 106/292/3 103/293/3
f 136/294/3 128/295/3 96/261/3 102/260/3
f 130/296/1 134/297/1 107/281/1 108/280/1
f 133/298/1 131/299/1 98/267/1 100/266/1
f 118/300/1 122/301/1 113/302/1 112/303/1
f 122/304/34 115/305/34 111/306/34 113/307/34
f 103/293/3 106/292/3 124/308/3 116/309/3
f 125/310/35 118/311/35 112/312/35 114/313/35
f 114/314/36 112/315/36 113/316/36 111/317/36
f 106/318/37 104/319/37 119/320/37 124/321/37
f 105/287/38 103/286/38 116/322/38 121/323/38
f 125/324/3 115/325/3 117/326/3 126/327/3
f 126/327/3 117/326/3 116/309/3 124/308/3
f 122/301/1 118/300/1 120/328/1 123/329/1
f 123/329/1 120/328/1 119/285/1 121/284/1
f 118/311/39 125/310/39 126/330/39 120/331/39
f 120/331/40 126/330/40 124/321/40 119/320/40
f 115/305/41 122/304/41 123/332/41 117/333/41
f 117/333/42 123/332/42 121/334/42 116/80/42
f 115/325/3 125/324/3 114/335/3 111/336/3
f 137/337/3 127/338/3 129/339/3 138/340/3
f 138/340/3 129/339/3 128/295/3 136/294/3
f 134/297/1 130/296/1 132/341/1 135/342/1
f 135/342/1 132/341/1 131/299/1 133/298/1
f 130/269/43 137/268/43 138/343/43 132/344/43
f 132/344/44 138/343/44 136/263/44 131/262/44
f 127/277/45 134/276/45 135/345/45 129/346/45
f 129/346/46 135/345/46 133/347/46 128/348/46
f 127/338/3 137/337/3 110/291/3 109/290/3
