# Blender 4.4.3
# www.blender.org
o LVL2-MnoteA
v 0.000000 -1.406094 1.000000
v 0.000000 1.406094 1.000000
v 0.000000 -1.406094 -1.000000
v 0.000000 1.406097 -1.000000
v 0.125244 -1.406094 1.000000
v 0.125244 1.406094 1.000000
v 0.125244 -1.406094 -1.000000
v 0.125244 1.406097 -1.000000
v 0.303251 0.202976 0.556547
v 0.303251 0.656010 -0.738773
v 0.303251 0.086597 0.556547
v 0.303251 0.551376 -0.738773
v 0.303251 0.721466 0.556547
v 0.303251 1.174500 -0.738773
v 0.303251 0.390766 0.556547
v 0.303251 0.855545 -0.738773
v 0.303251 -0.880436 0.392353
v 0.303251 -0.427395 -0.752514
v 0.303251 0.260403 0.392353
v 0.303251 0.598583 -0.574579
v 0.303251 0.492462 -0.574579
v 0.303251 0.145512 0.392353
v 0.303251 0.778893 0.392353
v 0.303251 1.117073 -0.574579
v 0.303251 0.796631 -0.574579
v 0.303251 0.449684 0.392353
v 0.303251 -1.077408 0.926374
v 0.303251 -0.573219 -0.298164
v 0.303251 -0.645046 -0.329203
v 0.303251 -0.980938 0.968060
v 0.303251 -0.686417 -0.404104
v 0.303251 -0.686249 -0.502800
v 0.303251 -0.644581 -0.641518
v 0.303251 -0.553658 -0.752514
v 0.303251 -0.385212 -0.562714
v 0.303251 -0.376511 -0.483009
v 0.303251 -0.418179 -0.386965
v 0.303251 -0.490177 -0.319307
v 0.303251 -1.132969 0.825779
v 0.303251 -1.132740 0.693226
v 0.303251 -1.074776 0.517864
v 0.303251 -0.993217 0.439833
v 0.303251 -0.791065 0.556547
v 0.303251 -0.749447 0.719807
v 0.303251 -0.772717 0.848797
v 0.303251 -0.869411 0.939665
v 0.127081 0.202976 0.556547
v 0.127081 0.656010 -0.738773
v 0.127081 0.086597 0.556547
v 0.127081 0.551376 -0.738773
v 0.127081 0.721466 0.556547
v 0.127081 1.174500 -0.738773
v 0.127081 0.390766 0.556547
v 0.127081 0.855545 -0.738773
v 0.127081 -0.880436 0.392353
v 0.127081 -0.427395 -0.752514
v 0.127081 0.260403 0.392353
v 0.127081 0.598583 -0.574579
v 0.127081 0.492462 -0.574579
v 0.127081 0.145512 0.392353
v 0.127081 0.778893 0.392353
v 0.127081 1.117073 -0.574579
v 0.127081 0.796631 -0.574579
v 0.127081 0.449684 0.392353
v 0.127081 -1.077408 0.926374
v 0.127081 -0.573219 -0.298164
v 0.127081 -0.645046 -0.329203
v 0.127081 -0.980938 0.968060
v 0.127081 -0.686417 -0.404104
v 0.127081 -0.686249 -0.502800
v 0.127081 -0.644581 -0.641518
v 0.127081 -0.553658 -0.752514
v 0.127081 -0.385212 -0.562714
v 0.127081 -0.376511 -0.483009
v 0.127081 -0.418179 -0.386965
v 0.127081 -0.490177 -0.319307
v 0.127081 -1.132969 0.825779
v 0.127081 -1.132740 0.693226
v 0.127081 -1.074776 0.517864
v 0.127081 -0.993217 0.439833
v 0.127081 -0.791065 0.556547
v 0.127081 -0.749447 0.719807
v 0.127081 -0.772717 0.848797
v 0.127081 -0.869411 0.939665
v 0.303251 0.772999 0.531849
v 0.303251 1.212219 -0.723959
v 0.303251 0.807693 0.432655
v 0.303251 1.173958 -0.614569
v 0.127081 0.772999 0.531849
v 0.127081 1.212219 -0.723959
v 0.127081 0.807693 0.432655
v 0.127081 1.173958 -0.614569
v 0.116730 -0.898087 -1.099068
v 0.116730 -0.987732 -1.099068
v 0.116730 -0.459793 -1.099068
v 0.116730 -0.549438 -1.099068
v 0.116730 -0.021500 -1.099068
v 0.116730 -0.111141 -1.099068
v 0.116730 0.416798 -1.099068
v 0.116730 0.327152 -1.099068
v 0.168053 -0.987732 -1.099068
v 0.168053 -0.898087 -1.099068
v 0.168053 -0.549438 -1.099068
v 0.168053 -0.459793 -1.099068
v 0.168051 -0.111141 -1.099068
v 0.168051 -0.021500 -1.099068
v 0.168051 0.327152 -1.099068
v 0.168051 0.416798 -1.099068
v 0.116730 -0.898087 1.099066
v 0.116730 -0.987732 1.099066
v 0.116730 -0.459793 1.099066
v 0.116730 -0.549438 1.099066
v 0.116730 -0.021500 1.099066
v 0.116730 -0.111141 1.099066
v 0.116730 0.416798 1.099066
v 0.116730 0.327152 1.099066
v 0.168053 -0.987732 1.099066
v 0.168053 -0.898087 1.099066
v 0.168053 -0.549438 1.099066
v 0.168053 -0.459793 1.099066
v 0.168051 -0.111141 1.099066
v 0.168051 -0.021500 1.099066
v 0.168051 0.327152 1.099066
v 0.168051 0.416798 1.099066
v 0.116730 0.926369 -1.099068
v 0.116730 0.704735 -1.099068
v 0.168051 0.704735 -1.099068
v 0.168051 0.926369 -1.099068
v 0.116730 0.926369 1.099066
v 0.116730 0.704735 1.099066
v 0.168051 0.704735 1.099066
v 0.168051 0.926369 1.099066
vn -1.0000 -0.0000 -0.0000
vn -0.0000 -0.0000 -1.0000
vn 1.0000 -0.0000 -0.0000
vn -0.0000 -0.0000 1.0000
vn -0.0000 -1.0000 -0.0000
vn -0.0000 1.0000 -0.0000
vn -0.0000 -0.7736 -0.6337
vn -0.0000 0.9841 0.1775
vn -0.0000 0.6848 0.7287
vn -0.0000 -0.9412 -0.3377
vn -0.0000 0.9941 -0.1085
vn -0.0000 0.9174 0.3980
vn -0.0000 -0.3967 0.9180
vn -0.0000 0.0140 -0.9999
vn -0.0000 0.2467 0.9691
vn -0.0000 0.0135 0.9999
vn -0.0000 0.9439 0.3301
vn -0.0000 -0.3880 -0.9217
vn -0.0000 -0.8754 0.4835
vn -0.0000 -1.0000 -0.0017
vn -0.0000 -0.9495 -0.3138
vn -0.0000 -0.6913 -0.7226
vn -0.0000 -0.9577 -0.2877
vn -0.0000 0.9690 -0.2470
vn -0.0000 0.9439 0.3302
vn -0.0000 0.4322 0.9018
vn -0.0000 0.3656 -0.9308
vt 0.222438 0.313176
vt 0.222438 0.000000
vt 0.444876 0.000000
vt 0.444876 0.313176
vt 0.859195 0.313176
vt 0.859195 0.000000
vt 0.873124 0.000000
vt 0.873124 0.313176
vt 0.000000 0.626352
vt 0.000000 0.313176
vt 0.222438 0.313176
vt 0.222438 0.626352
vt 0.868411 0.832723
vt 0.868411 0.519560
vt 0.882340 0.519560
vt 0.882340 0.832723
vt 0.230082 0.626352
vt 0.244012 0.626352
vt 0.244012 0.849019
vt 0.230082 0.849019
vt 0.271871 0.626352
vt 0.285801 0.626352
vt 0.285801 0.847672
vt 0.271871 0.847672
vt 0.685629 0.010453
vt 0.685934 0.046137
vt 0.667617 0.039733
vt 0.667313 0.004215
vt 0.811804 0.053427
vt 0.812120 0.090254
vt 0.793803 0.083849
vt 0.793489 0.047189
vt 0.686123 0.068192
vt 0.667808 0.061953
vt 0.686225 0.080009
vt 0.667908 0.073605
vt 0.793983 0.104928
vt 0.794093 0.117722
vt 0.812299 0.111166
vt 0.812410 0.124126
vt 0.688382 0.177735
vt 0.667313 0.182614
vt 0.813247 0.221862
vt 0.795072 0.231971
vt 0.706309 0.211126
vt 0.715552 0.189192
vt 0.717983 0.198419
vt 0.714599 0.206447
vt 0.843516 0.259679
vt 0.855930 0.230220
vt 0.859194 0.242613
vt 0.854650 0.253395
vt 0.667434 0.196675
vt 0.697238 0.176690
vt 0.679865 0.206694
vt 0.707959 0.181238
vt 0.695332 0.211201
vt 0.800460 0.244485
vt 0.831364 0.217071
vt 0.809216 0.253493
vt 0.845732 0.219539
vt 0.828774 0.259780
vt 0.840879 0.270233
vt 0.859194 0.263995
vt 0.858890 0.299513
vt 0.840573 0.305917
vt 0.714704 0.313207
vt 0.733019 0.306969
vt 0.732705 0.343629
vt 0.714388 0.350033
vt 0.858700 0.321733
vt 0.840384 0.327971
vt 0.858600 0.333385
vt 0.840283 0.339789
vt 0.732415 0.377502
vt 0.732524 0.364707
vt 0.714209 0.370946
vt 0.714098 0.383906
vt 0.859194 0.442394
vt 0.838126 0.437515
vt 0.731436 0.491751
vt 0.713261 0.481642
vt 0.820199 0.470906
vt 0.811908 0.466227
vt 0.808525 0.458199
vt 0.810956 0.448971
vt 0.682992 0.519459
vt 0.671857 0.513175
vt 0.667313 0.502393
vt 0.670578 0.490000
vt 0.859074 0.456454
vt 0.846643 0.466474
vt 0.829270 0.436470
vt 0.831176 0.470981
vt 0.818549 0.441018
vt 0.726048 0.504265
vt 0.717292 0.513272
vt 0.695143 0.476851
vt 0.697734 0.519560
vt 0.680776 0.479319
vt 0.137779 0.816629
vt 0.118185 0.816629
vt 0.118185 0.804037
vt 0.137779 0.804037
vt 0.668925 0.000000
vt 0.681127 0.004156
vt 0.686907 0.821960
vt 0.706500 0.821960
vt 0.706500 0.836524
vt 0.686907 0.836524
vt 0.157372 0.702813
vt 0.176966 0.702813
vt 0.176966 0.800549
vt 0.157372 0.800549
vt 0.706500 0.847788
vt 0.686907 0.847788
vt 0.319324 0.879355
vt 0.299730 0.879355
vt 0.299730 0.770809
vt 0.319324 0.770809
vt 0.706500 0.847363
vt 0.726094 0.847363
vt 0.726094 0.856074
vt 0.706500 0.856074
vt 0.797943 0.043943
vt 0.809008 0.047712
vt 0.726094 0.867223
vt 0.706500 0.867223
vt 0.728564 0.303723
vt 0.845381 0.263936
vt 0.726094 0.875610
vt 0.706500 0.875610
vt 0.157372 0.689853
vt 0.176966 0.689853
vt 0.216153 0.861496
vt 0.235746 0.861496
vt 0.235746 0.872199
vt 0.216153 0.872199
vt 0.118185 0.808943
vt 0.098592 0.808943
vt 0.098592 0.699945
vt 0.118185 0.699945
vt 0.833852 0.823994
vt 0.833852 0.804375
vt 0.841810 0.804375
vt 0.841810 0.823994
vt 0.863354 0.872898
vt 0.843761 0.872898
vt 0.843761 0.764352
vt 0.863354 0.764352
vt 0.098592 0.688292
vt 0.118185 0.688292
vt 0.118185 0.823004
vt 0.098592 0.823004
vt 0.157372 0.632114
vt 0.176966 0.632114
vt 0.176966 0.668941
vt 0.157372 0.668941
vt 0.824596 0.823994
vt 0.824596 0.804375
vt 0.878788 0.313176
vt 0.878788 0.410925
vt 0.859195 0.410925
vt 0.319324 0.762255
vt 0.338917 0.762255
vt 0.338917 0.873483
vt 0.319324 0.873483
vt 0.819458 0.849572
vt 0.839051 0.849572
vt 0.839051 0.871626
vt 0.819458 0.871626
vt 0.338917 0.753168
vt 0.319324 0.753168
vt 0.319324 0.740605
vt 0.338917 0.740605
vt 0.686907 0.849901
vt 0.667313 0.849901
vt 0.667313 0.838845
vt 0.686907 0.838845
vt 0.118185 0.666071
vt 0.098592 0.666071
vt 0.098592 0.630551
vt 0.118185 0.630551
vt 0.216153 0.849049
vt 0.235746 0.849049
vt 0.667313 0.824086
vt 0.686907 0.824086
vt 0.319324 0.626352
vt 0.338917 0.626352
vt 0.137779 0.851401
vt 0.118185 0.851401
vt 0.118185 0.843169
vt 0.137779 0.843169
vt 0.667313 0.804413
vt 0.686907 0.804413
vt 0.118185 0.832180
vt 0.137779 0.832180
vt 0.338917 0.762255
vt 0.319324 0.762255
vt 0.706500 0.804413
vt 0.686907 0.870980
vt 0.667313 0.870980
vt 0.667313 0.849901
vt 0.686907 0.849901
vt 0.299730 0.626352
vt 0.319324 0.638935
vt 0.299730 0.638935
vt 0.299730 0.759399
vt 0.319324 0.759399
vt 0.157372 0.626352
vt 0.176966 0.626352
vt 0.717499 0.307492
vt 0.857583 0.259780
vt 0.098592 0.626352
vt 0.118185 0.626352
vt 0.990033 0.519560
vt 0.995741 0.519560
vt 0.995741 0.762805
vt 0.990033 0.762805
vt 0.985077 0.000000
vt 0.990785 0.000000
vt 0.990785 0.243246
vt 0.985077 0.243246
vt 0.348887 0.626352
vt 0.358858 0.626352
vt 0.358858 0.871144
vt 0.348887 0.871144
vt 0.388768 0.626352
vt 0.398739 0.626352
vt 0.398739 0.871144
vt 0.388768 0.871144
vt 0.294022 0.850855
vt 0.294022 0.840872
vt 0.299730 0.840872
vt 0.299730 0.850855
vt 0.187935 0.849121
vt 0.187935 0.839138
vt 0.193643 0.839138
vt 0.193643 0.849121
vt 0.187935 0.859104
vt 0.193643 0.849121
vt 0.193643 0.859104
vt 0.745687 0.839078
vt 0.745687 0.829094
vt 0.751395 0.829094
vt 0.751395 0.839078
vt 0.187936 0.844193
vt 0.187936 0.854176
vt 0.182228 0.854176
vt 0.182228 0.844193
vt 0.271871 0.848303
vt 0.271871 0.858286
vt 0.266163 0.858286
vt 0.266163 0.848303
vt 0.129601 0.851401
vt 0.129601 0.861383
vt 0.123893 0.861383
vt 0.123893 0.851401
vt 0.244012 0.849019
vt 0.244012 0.859002
vt 0.238304 0.859002
vt 0.238304 0.849019
vt 0.408709 0.871144
vt 0.398739 0.871144
vt 0.398739 0.626352
vt 0.408709 0.626352
vt 0.368828 0.871144
vt 0.358858 0.871144
vt 0.358858 0.626352
vt 0.368828 0.626352
vt 0.956538 0.000000
vt 0.962246 0.000000
vt 0.962246 0.244727
vt 0.956538 0.244727
vt 0.428650 0.626352
vt 0.438620 0.626352
vt 0.438620 0.871144
vt 0.428650 0.871144
vt 0.961493 0.519560
vt 0.967201 0.519560
vt 0.967201 0.764286
vt 0.961493 0.764286
vt 0.910953 0.000000
vt 0.920923 0.000000
vt 0.920923 0.244792
vt 0.910953 0.244792
vt 0.988584 0.274768
vt 0.994292 0.274768
vt 0.994292 0.518013
vt 0.988584 0.518013
vt 0.996493 0.000000
vt 0.996493 0.243246
vt 0.910953 0.244792
vt 0.900983 0.244792
vt 0.900983 0.000000
vt 0.910953 0.000000
vt 0.920923 0.489584
vt 0.910953 0.489584
vt 0.920923 0.244792
vt 0.960044 0.274768
vt 0.965752 0.274768
vt 0.965752 0.519494
vt 0.960044 0.519494
vt 0.967954 0.000000
vt 0.967954 0.244727
vt 1.000000 0.274768
vt 1.000000 0.518013
vt 0.642353 0.626262
vt 0.667002 0.626262
vt 0.667002 0.871054
vt 0.642353 0.871054
vt 0.182228 0.819521
vt 0.182228 0.794839
vt 0.187935 0.794839
vt 0.187935 0.819521
vt 0.751395 0.804413
vt 0.751395 0.829094
vt 0.745687 0.804413
vt 0.024650 0.871144
vt 0.000000 0.871144
vt 0.000000 0.626352
vt 0.024650 0.626352
vt 0.971460 0.274768
vt 0.971460 0.519494
s 0
f 1/1/1 2/2/1 4/3/1 3/4/1
f 3/5/2 4/6/2 8/7/2 7/8/2
f 7/9/3 8/10/3 6/11/3 5/12/3
f 5/13/4 6/14/4 2/15/4 1/16/4
f 3/17/5 7/18/5 5/19/5 1/20/5
f 8/21/6 4/22/6 2/23/6 6/24/6
f 24/25/3 25/26/3 16/27/3 14/28/3
f 13/29/3 15/30/3 26/31/3 23/32/3
f 25/26/3 20/33/3 10/34/3 16/27/3
f 20/33/3 21/35/3 12/36/3 10/34/3
f 25/26/3 24/25/3 23/32/3 26/31/3
f 21/35/3 20/33/3 19/37/3 22/38/3
f 9/39/3 11/40/3 22/38/3 19/37/3
f 15/30/3 9/39/3 19/37/3 26/31/3
f 12/36/3 21/35/3 35/41/3 18/42/3
f 22/38/3 11/40/3 43/43/3 17/44/3
f 31/45/3 38/46/3 28/47/3 29/48/3
f 39/49/3 46/50/3 30/51/3 27/52/3
f 18/42/3 35/41/3 34/53/3
f 34/53/3 35/41/3 36/54/3 33/55/3
f 33/55/3 36/54/3 37/56/3 32/57/3
f 32/57/3 37/56/3 38/46/3 31/45/3
f 17/44/3 43/43/3 42/58/3
f 42/58/3 43/43/3 44/59/3 41/60/3
f 41/60/3 44/59/3 45/61/3 40/62/3
f 40/62/3 45/61/3 46/50/3 39/49/3
f 62/63/1 52/64/1 54/65/1 63/66/1
f 51/67/1 61/68/1 64/69/1 53/70/1
f 63/66/1 54/65/1 48/71/1 58/72/1
f 58/72/1 48/71/1 50/73/1 59/74/1
f 63/66/1 64/69/1 61/68/1 62/63/1
f 59/74/1 60/75/1 57/76/1 58/72/1
f 47/77/1 57/76/1 60/75/1 49/78/1
f 53/70/1 64/69/1 57/76/1 47/77/1
f 50/73/1 56/79/1 73/80/1 59/74/1
f 60/75/1 55/81/1 81/82/1 49/78/1
f 69/83/1 67/84/1 66/85/1 76/86/1
f 77/87/1 65/88/1 68/89/1 84/90/1
f 56/79/1 72/91/1 73/80/1
f 72/91/1 71/92/1 74/93/1 73/80/1
f 71/92/1 70/94/1 75/95/1 74/93/1
f 70/94/1 69/83/1 76/86/1 75/95/1
f 55/81/1 80/96/1 81/82/1
f 80/96/1 79/97/1 82/98/1 81/82/1
f 79/97/1 78/99/1 83/100/1 82/98/1
f 78/99/1 77/87/1 84/90/1 83/100/1
f 33/101/7 71/102/7 72/103/7 34/104/7
f 24/25/3 14/28/3 86/105/3 88/106/3
f 44/107/8 82/108/8 83/109/8 45/110/8
f 11/111/4 49/112/4 81/113/4 43/114/4
f 45/110/9 83/109/9 84/115/9 46/116/9
f 26/117/10 64/118/10 63/119/10 25/120/10
f 35/121/11 73/122/11 74/123/11 36/124/11
f 13/29/3 23/32/3 87/125/3 85/126/3
f 36/124/12 74/123/12 75/127/12 37/128/12
f 62/63/1 61/68/1 91/129/1 92/130/1
f 37/128/9 75/127/9 76/131/9 38/132/9
f 9/133/4 47/134/4 49/112/4 11/111/4
f 30/135/13 68/136/13 65/137/13 27/138/13
f 18/139/14 56/140/14 50/141/14 12/142/14
f 28/143/13 66/144/13 67/145/13 29/146/13
f 22/147/10 60/148/10 59/149/10 21/150/10
f 12/142/2 50/141/2 48/151/2 10/152/2
f 34/153/2 72/154/2 56/140/2 18/139/2
f 13/155/4 51/156/4 53/157/4 15/158/4
f 38/159/15 76/160/15 66/144/15 28/143/15
f 21/5/16 59/161/16 73/162/16 35/163/16
f 20/164/17 58/165/17 57/166/17 19/167/17
f 25/168/4 63/169/4 58/170/4 20/171/4
f 42/172/18 80/173/18 55/174/18 17/175/18
f 27/176/19 65/177/19 77/178/19 39/179/19
f 16/180/2 54/181/2 52/182/2 14/183/2
f 46/184/15 84/185/15 68/136/15 30/135/15
f 39/179/20 77/178/20 78/186/20 40/187/20
f 17/175/2 55/174/2 60/188/2 22/189/2
f 29/190/19 67/191/19 69/192/19 31/193/19
f 40/187/21 78/186/21 79/194/21 41/195/21
f 15/158/4 53/157/4 47/134/4 9/133/4
f 31/193/20 69/192/20 70/196/20 32/197/20
f 41/198/22 79/199/22 80/173/22 42/172/22
f 10/152/2 48/151/2 54/181/2 16/180/2
f 32/197/23 70/196/23 71/102/23 33/101/23
f 43/195/24 81/200/24 82/108/24 44/107/24
f 19/201/2 57/202/2 64/203/2 26/204/2
f 86/205/25 90/188/25 92/206/25 88/207/25
f 87/208/25 91/209/25 89/120/25 85/119/25
f 88/207/17 92/206/17 91/209/17 87/208/17
f 51/156/26 13/155/26 85/210/26 89/211/26
f 61/68/1 51/67/1 89/212/1 91/129/1
f 52/64/1 62/63/1 92/130/1 90/213/1
f 23/32/3 24/25/3 88/106/3 87/125/3
f 14/183/27 52/182/27 90/214/27 86/215/27
f 108/216/6 99/217/6 115/218/6 124/219/6
f 104/220/6 95/221/6 111/222/6 120/223/6
f 99/224/1 100/225/1 116/226/1 115/227/1
f 95/228/1 96/229/1 112/230/1 111/231/1
f 100/232/2 99/233/2 108/234/2 107/235/2
f 96/236/2 95/237/2 104/238/2 103/239/2
f 98/240/2 97/236/2 106/241/2 105/242/2
f 94/243/2 93/244/2 102/245/2 101/246/2
f 109/247/4 110/248/4 117/249/4 118/250/4
f 111/251/4 112/252/4 119/253/4 120/254/4
f 113/255/4 114/256/4 121/257/4 122/258/4
f 115/259/4 116/260/4 123/261/4 124/262/4
f 103/263/3 104/264/3 120/265/3 119/266/3
f 107/267/3 108/268/3 124/269/3 123/270/3
f 96/271/5 103/272/5 119/273/5 112/274/5
f 93/275/1 94/276/1 110/277/1 109/278/1
f 100/279/5 107/280/5 123/281/5 116/282/5
f 97/283/1 98/284/1 114/285/1 113/286/1
f 102/287/6 93/288/6 109/289/6 118/290/6
f 106/221/6 97/291/6 113/292/6 122/222/6
f 101/293/3 102/294/3 118/295/3 117/296/3
f 105/297/3 106/298/3 122/293/3 121/299/3
f 94/300/5 101/301/5 117/302/5 110/303/5
f 98/272/5 105/304/5 121/305/5 114/273/5
f 128/288/6 125/306/6 129/307/6 132/289/6
f 125/308/1 126/309/1 130/310/1 129/311/1
f 126/312/2 125/313/2 128/314/2 127/315/2
f 129/316/4 130/317/4 131/244/4 132/318/4
f 127/319/3 128/320/3 132/321/3 131/322/3
f 126/301/5 127/323/5 131/324/5 130/302/5
