# Blender 4.4.3
# www.blender.org
o LVL2-BannerL
v -0.214080 0.000000 4.489222
v 0.214080 0.000000 4.489222
v -0.214080 0.000000 -4.489222
v 0.214080 0.000000 -4.489222
v -0.214080 -1.115224 -4.489222
v -0.214080 -1.115224 4.489222
v 0.214080 -1.115224 4.489222
v 0.214080 -1.115224 -4.489222
v 0.409086 -0.149007 4.489222
v 0.409086 -0.149007 -4.489222
v 0.409086 -0.966217 4.489222
v 0.409086 -0.966217 -4.489222
v 0.096755 0.000000 4.489222
v 0.096755 0.000000 -4.489222
v 0.096755 -1.115224 4.489222
v 0.096755 -1.115224 -4.489222
v 0.096755 -34.744823 3.514628
v 0.096755 -34.744823 -3.514628
v 0.247163 -34.590893 -3.231083
v 0.247163 -34.214916 2.677710
v -0.214080 -34.951527 4.088442
v 0.096755 -34.951527 4.088442
v 0.096755 -34.951527 -4.088442
v -0.214080 -34.951527 -4.088442
v -0.214080 0.000000 -4.088442
v -0.214080 0.000000 4.088442
v 0.214080 0.000000 -4.088442
v 0.214080 0.000000 4.088442
v -0.214080 -1.115224 4.088442
v -0.214080 -1.115224 -4.088442
v 0.214080 -1.115224 4.088442
v 0.214080 -1.115224 -4.088442
v 0.409086 -0.149007 4.088442
v 0.409086 -0.149007 -4.088442
v 0.409086 -0.966218 -4.088442
v 0.409086 -0.966218 4.088442
v 0.096755 -1.115224 -4.088442
v 0.096755 -1.115224 4.088442
v 0.096755 0.000000 3.987358
v 0.096755 0.000000 -3.987358
v 0.409086 -0.966218 -3.514628
v 0.409086 -0.966218 3.514628
v 0.247163 -1.977896 2.677711
v 0.247163 -1.977896 -2.677712
v 0.409086 -0.149007 -3.514628
v 0.409086 -0.149007 3.514628
v 0.214080 0.000000 3.514628
v 0.214080 0.000000 -3.514628
v 0.096755 -1.115224 -3.514628
v 0.096755 -1.115224 3.514628
v -0.214080 -1.115224 3.514628
v -0.214080 -1.115224 -3.514628
v -0.214080 0.000000 -3.514628
v -0.214080 0.000000 3.514628
v 0.096755 0.000000 3.615712
v 0.096755 0.000000 -3.615712
v -0.214080 -34.744823 3.514628
v -0.214080 -34.744823 -3.514628
v 0.096755 -37.734676 0.320083
v -0.214080 -37.734676 0.320083
v 0.096755 -37.734676 -0.320083
v 0.096755 -38.092903 -0.893897
v 0.096755 -38.092903 0.893897
v -0.214080 -38.092903 0.893897
v 0.247163 -36.447456 0.221823
v -0.214080 -37.734676 -0.320083
v -0.214080 -38.092903 -0.893897
v 0.247163 -36.447456 -0.221825
v 0.096755 -38.381420 0.592640
v 0.096755 -38.750832 0.212210
v 0.096755 -38.750832 -0.212210
v 0.096755 -38.381420 -0.592640
v -0.214080 -38.750832 0.212210
v -0.214080 -38.381420 0.592640
v -0.214080 -38.750832 -0.212210
v -0.214080 -38.381420 -0.592640
v 0.096755 1.884427 -2.300773
v -0.214080 1.912274 -2.339522
v -0.214080 1.912274 2.339522
v 0.096755 1.884427 2.300773
v -0.214080 1.697786 2.041060
v 0.096755 1.725633 2.079809
v 0.096755 1.725633 -2.079809
v -0.214080 1.697786 -2.041060
v -0.214768 1.930068 -1.275677
v -0.214768 1.930068 1.275677
v 0.096053 1.962325 -1.299896
v 0.096053 1.962325 1.299896
v 0.097528 2.146045 -1.436061
v 0.097528 2.146045 1.436061
v -0.213294 2.178298 -1.460247
v -0.213294 2.178298 1.460247
v 0.247163 -1.115227 3.231084
v 0.247163 -1.115227 -3.231084
v 0.247163 -37.437405 0.294260
v 0.247163 -37.437405 -0.294260
v 0.247163 -34.590893 3.231083
v 0.247163 -34.214916 -2.677712
vn 0.6072 0.7946 -0.0000
vn 1.0000 -0.0000 -0.0000
vn -0.0000 -0.0000 -1.0000
vn -0.0000 -0.0000 1.0000
vn -0.0000 -1.0000 -0.0000
vn 0.6072 -0.7946 -0.0000
vn -1.0000 -0.0000 -0.0000
vn -0.0000 1.0000 -0.0000
vn 0.1931 0.6583 0.7275
vn 0.6340 -0.7732 0.0147
vn 0.6772 -0.7358 -0.0000
vn 0.6340 -0.7732 -0.0147
vn 0.8736 -0.3524 0.3355
vn 0.8834 -0.0000 0.4686
vn 0.8834 -0.0000 -0.4686
vn -0.0000 -0.7222 -0.6917
vn 0.8923 -0.4515 -0.0000
vn -0.0000 -0.7130 0.7011
vn 0.8736 -0.3524 -0.3355
vn -0.0000 -0.7130 -0.7011
vn -0.0000 -0.7174 -0.6966
vn -0.0000 -0.7174 0.6966
vn -0.0000 -0.7222 0.6917
vn 0.1032 -0.9947 -0.0000
vn 0.1210 -0.9498 0.2884
vn 0.1931 0.6583 -0.7275
vn 0.1947 -0.6476 0.7367
vn 0.1947 -0.6476 -0.7367
vn 0.1210 -0.9498 -0.2884
vn 1.0000 -0.0033 0.0010
vn 1.0000 -0.0080 -0.0000
vn 1.0000 -0.0033 -0.0010
vn 0.1210 0.9501 -0.2876
vn 0.1032 0.9947 -0.0000
vn 0.1210 0.9501 0.2876
vn -1.0000 0.0025 -0.0007
vn -1.0000 0.0059 -0.0000
vn -1.0000 0.0025 0.0007
vt 0.838366 0.942249
vt 0.845227 0.942249
vt 0.845227 0.964682
vt 0.838366 0.964682
vt 0.846315 0.516712
vt 0.909111 0.516712
vt 0.909111 0.518894
vt 0.846315 0.518894
vt 0.931723 0.146573
vt 0.846315 0.146525
vt 0.857727 0.124281
vt 0.920312 0.124316
vt 0.691542 0.942249
vt 0.698402 0.942249
vt 0.698402 0.964682
vt 0.691542 0.964682
vt 0.846315 0.159912
vt 0.931723 0.159960
vt 0.931723 0.195427
vt 0.846315 0.195379
vt 0.931723 0.231404
vt 0.846315 0.231452
vt 0.846315 0.218065
vt 0.931723 0.218017
vt 0.846315 0.470028
vt 0.909111 0.470028
vt 0.909111 0.472210
vt 0.846315 0.472210
vt 1.000000 0.035829
vt 0.993140 0.035829
vt 0.993140 0.022496
vt 1.000000 0.022496
vt 1.000000 0.071155
vt 0.993140 0.071155
vt 0.857727 0.195808
vt 0.920312 0.195773
vt 0.931723 0.266871
vt 0.846315 0.266919
vt 0.853175 0.022496
vt 0.846315 0.022496
vt 0.846315 0.000000
vt 0.853175 0.000000
vt 0.006860 0.053221
vt 0.006860 0.080469
vt 0.000000 0.080469
vt 0.000000 0.053221
vt 0.153685 0.053221
vt 0.153685 0.080469
vt 0.146825 0.080469
vt 0.146825 0.053221
vt 0.853175 0.071155
vt 0.846315 0.071155
vt 0.846315 0.035829
vt 0.853175 0.035829
vt 0.845227 0.928882
vt 0.836636 0.928882
vt 0.698402 0.893470
vt 0.700132 0.928882
vt 0.691542 0.928882
vt 0.691542 0.893470
vt 0.993140 0.000000
vt 1.000000 0.000000
vt 0.154773 0.826704
vt 0.164595 0.821654
vt 0.219277 0.894704
vt 0.209455 0.903456
vt 0.016682 0.053221
vt 0.016682 0.080469
vt 0.828544 0.942249
vt 0.830275 0.928882
vt 0.983318 0.035829
vt 0.978464 0.018736
vt 0.846315 0.513589
vt 0.909111 0.513589
vt 0.957895 0.319138
vt 0.846315 0.318851
vt 0.846769 0.273716
vt 0.958341 0.273352
vt 0.867851 0.018736
vt 0.862997 0.035829
vt 0.706494 0.928882
vt 0.708224 0.942249
vt 0.845227 0.893470
vt 0.838366 0.893470
vt 0.828544 0.964682
vt 0.137003 0.080469
vt 0.137003 0.053221
vt 0.983318 0.000000
vt 0.909111 0.475333
vt 0.846315 0.475333
vt 0.708224 0.964682
vt 0.533140 0.021077
vt 0.624809 0.021077
vt 0.624809 0.808707
vt 0.533140 0.808707
vt 0.982819 0.123935
vt 0.976458 0.123935
vt 0.950167 0.081773
vt 0.953950 0.077894
vt 0.828544 0.893470
vt 0.708224 0.893470
vt 0.862997 0.000000
vt 0.411033 0.000045
vt 0.522579 0.000000
vt 0.521293 0.823929
vt 0.409747 0.823974
vt 0.146825 0.907174
vt 0.137003 0.902123
vt 0.092143 0.983925
vt 0.082321 0.975173
vt 0.636369 0.815250
vt 0.690453 0.818896
vt 0.689363 0.893124
vt 0.635369 0.885873
vt 0.016682 0.902123
vt 0.071364 0.975173
vt 0.635370 0.000103
vt 0.689449 0.000000
vt 0.692545 0.000000
vt 0.746625 0.000103
vt 0.745626 0.815250
vt 0.691542 0.818896
vt 0.284916 0.000000
vt 0.294738 0.000000
vt 0.294738 0.826704
vt 0.284916 0.821654
vt 0.006860 0.907174
vt 0.154773 0.000000
vt 0.164595 0.000000
vt 0.410806 0.901892
vt 0.522353 0.901847
vt 0.522453 0.909007
vt 0.410907 0.909052
vt 0.080475 1.000000
vt 0.073210 1.000000
vt 0.086987 0.990974
vt 0.856831 0.626458
vt 0.857273 0.644217
vt 0.846315 0.644217
vt 0.846757 0.626458
vt 0.297112 0.823929
vt 0.408659 0.823974
vt 0.407599 0.901892
vt 0.296053 0.901847
vt 0.582771 0.863254
vt 0.575177 0.863254
vt 0.746625 0.885873
vt 0.692632 0.893124
vt 0.061542 0.983925
vt 0.240057 0.903456
vt 0.230235 0.894704
vt 0.522579 0.918172
vt 0.411033 0.918217
vt 0.407372 0.918217
vt 0.295826 0.918172
vt 0.295953 0.909007
vt 0.407499 0.909052
vt 0.853580 0.590786
vt 0.853580 0.626112
vt 0.846315 0.626112
vt 0.846315 0.590786
vt 0.221123 0.919531
vt 0.214611 0.910505
vt 0.066698 0.990974
vt 0.234900 0.910505
vt 0.228388 0.919531
vt 0.295826 0.000000
vt 0.407372 0.000045
vt 0.846730 0.590440
vt 0.846315 0.555043
vt 0.890816 0.555043
vt 0.890401 0.590440
vt 0.957889 0.427449
vt 0.846315 0.426978
vt 0.846718 0.420866
vt 0.958284 0.421450
vt 0.958341 0.371070
vt 0.846762 0.371357
vt 0.846315 0.325571
vt 0.957887 0.325934
vt 0.111780 0.011740
vt 0.116888 0.006500
vt 0.958284 0.469448
vt 0.846703 0.469682
vt 0.957896 0.420519
vt 0.846315 0.420285
vt 0.846711 0.378286
vt 0.958284 0.377815
vt 0.852677 0.123935
vt 0.846315 0.123935
vt 0.875184 0.077894
vt 0.878967 0.081773
vt 0.036797 0.006500
vt 0.041905 0.011740
vt 0.846315 0.372288
vt 0.957881 0.371703
vt 0.889986 0.071501
vt 0.892317 0.075991
vt 0.939148 0.071501
vt 0.936818 0.075991
vt 0.846777 0.319484
vt 0.958341 0.319948
vt 0.846729 0.554697
vt 0.846315 0.519240
vt 0.896305 0.519240
vt 0.895891 0.554697
vt 0.846315 0.267729
vt 0.957880 0.267265
vt 0.098678 0.006065
vt 0.101838 0.000000
vt 0.055007 0.006065
vt 0.051847 0.000000
vt 0.523667 0.000000
vt 0.634281 0.000000
vt 0.584011 0.887441
vt 0.573937 0.887441
vt 0.634281 0.817893
vt 0.523667 0.817893
s 0
f 28/1/1 2/2/1 9/3/1 33/4/1
f 34/5/2 35/6/2 12/7/2 10/8/2
f 8/9/3 4/10/3 10/11/3 12/12/3
f 4/13/1 27/14/1 34/15/1 10/16/1
f 14/17/3 16/18/3 5/19/3 3/20/3
f 13/21/4 15/22/4 7/23/4 2/24/4
f 9/25/2 11/26/2 36/27/2 33/28/2
f 15/29/5 38/30/5 31/31/5 7/32/5
f 6/33/5 29/34/5 38/30/5 15/29/5
f 2/24/4 7/23/4 11/35/4 9/36/4
f 1/37/4 6/38/4 15/22/4 13/21/4
f 4/10/3 8/9/3 16/18/3 14/17/3
f 32/39/6 8/40/6 12/41/6 35/42/6
f 26/43/7 29/44/7 6/45/7 1/46/7
f 3/47/7 5/48/7 30/49/7 25/50/7
f 30/51/5 5/52/5 16/53/5 37/54/5
f 13/55/8 2/2/8 28/1/8 39/56/8
f 37/54/5 16/53/5 8/40/5 32/39/5
f 25/57/8 40/58/8 14/59/8 3/60/8
f 7/32/6 31/31/6 36/61/6 11/62/6
f 40/58/8 27/14/8 4/13/8 14/59/8
f 23/63/2 18/64/2 61/65/2 62/66/2
f 29/44/7 26/43/7 54/67/7 51/68/7
f 47/69/8 55/70/8 39/56/8 28/1/8
f 50/71/5 93/72/5 31/31/5 38/30/5
f 35/6/2 34/5/2 45/73/2 41/74/2
f 26/75/9 39/76/9 80/77/9 79/78/9
f 37/54/5 32/39/5 94/79/5 49/80/5
f 27/14/8 40/58/8 56/81/8 48/82/8
f 1/83/8 13/55/8 39/56/8 26/84/8
f 28/1/1 33/4/1 46/85/1 47/69/1
f 52/86/7 53/87/7 25/50/7 30/49/7
f 93/72/10 42/88/10 36/61/10 31/31/10
f 42/89/2 46/90/2 33/28/2 36/27/2
f 48/82/1 45/91/1 34/15/1 27/14/1
f 44/92/2 43/93/2 20/94/2 98/95/2
f 39/96/2 55/97/2 82/98/2 80/99/2
f 54/100/8 55/70/8 56/81/8 53/101/8
f 42/88/11 93/72/11 94/79/11 41/102/11
f 55/70/8 47/69/8 48/82/8 56/81/8
f 30/103/3 37/104/3 23/105/3 24/106/3
f 46/90/2 42/89/2 41/74/2 45/73/2
f 45/91/1 48/82/1 47/69/1 46/85/1
f 53/87/7 52/86/7 51/68/7 54/67/7
f 52/86/7 30/49/7 24/107/7 58/108/7
f 32/39/12 35/42/12 41/102/12 94/79/12
f 58/108/7 24/107/7 67/109/7 66/110/7
f 97/111/13 17/112/13 59/113/13 95/114/13
f 57/115/7 58/108/7 66/110/7 60/116/7
f 93/117/14 50/118/14 17/112/14 97/111/14
f 49/119/15 94/120/15 19/121/15 18/122/15
f 50/123/2 38/124/2 22/125/2 17/126/2
f 51/68/7 52/86/7 58/108/7 57/115/7
f 29/44/7 51/68/7 57/115/7 21/127/7
f 37/128/2 49/129/2 18/64/2 23/63/2
f 67/130/16 62/131/16 72/132/16 76/133/16
f 60/116/7 66/110/7 75/134/7 73/135/7
f 66/110/7 67/109/7 76/136/7 75/134/7
f 95/137/17 59/138/17 61/139/17 96/140/17
f 22/141/18 21/142/18 64/143/18 63/144/18
f 98/95/2 20/94/2 65/145/2 68/146/2
f 18/122/19 19/121/19 96/147/19 61/148/19
f 21/127/7 57/115/7 60/116/7 64/149/7
f 24/106/20 23/105/20 62/131/20 67/130/20
f 17/126/2 22/125/2 63/150/2 59/151/2
f 76/133/21 72/132/21 71/152/21 75/153/21
f 73/154/22 70/155/22 69/156/22 74/157/22
f 70/158/5 73/159/5 75/160/5 71/161/5
f 63/144/23 64/143/23 74/157/23 69/156/23
f 62/66/2 61/65/2 71/162/2 72/163/2
f 64/149/7 60/116/7 73/135/7 74/164/7
f 59/151/2 63/150/2 69/165/2 70/166/2
f 61/65/2 59/151/2 70/166/2 71/162/2
f 38/167/4 29/168/4 21/142/4 22/141/4
f 85/169/24 87/170/24 88/171/24 86/172/24
f 84/173/25 83/174/25 87/175/25 85/176/25
f 40/177/26 25/178/26 78/179/26 77/180/26
f 25/50/7 53/87/7 84/181/7 78/182/7
f 53/183/27 56/184/27 83/174/27 84/173/27
f 55/185/28 54/186/28 81/187/28 82/188/28
f 56/189/2 40/190/2 77/191/2 83/192/2
f 54/67/7 26/43/7 79/193/7 81/194/7
f 86/195/29 88/196/29 82/188/29 81/187/29
f 83/192/30 77/191/30 89/197/30 87/198/30
f 87/198/31 89/197/31 90/199/31 88/200/31
f 88/200/32 90/199/32 80/99/32 82/98/32
f 77/180/33 78/179/33 91/201/33 89/202/33
f 89/203/34 91/204/34 92/205/34 90/206/34
f 90/207/35 92/208/35 79/78/35 80/77/35
f 78/182/36 84/181/36 85/209/36 91/210/36
f 91/210/37 85/209/37 86/211/37 92/212/37
f 92/212/38 86/211/38 81/194/38 79/193/38
f 43/93/2 44/92/2 94/213/2 93/214/2
f 68/146/2 65/145/2 95/215/2 96/216/2
f 65/145/2 20/94/2 97/217/2 95/215/2
f 98/95/2 68/146/2 96/216/2 19/218/2
f 44/92/2 98/95/2 19/218/2 94/213/2
f 20/94/2 43/93/2 93/214/2 97/217/2
