# Blender 4.4.3
# www.blender.org
o LVL2-PaintingA
v 0.114378 -4.180145 2.910965
v 0.114036 4.216560 2.910969
v 0.114378 -4.180145 -3.090134
v 0.114036 4.216564 -3.090130
v 0.313923 4.560696 -3.386410
v 0.314266 -4.524279 -3.386414
v 0.314266 -4.524279 3.207241
v 0.313923 4.560696 3.207245
v -0.314265 5.147938 3.701736
v 0.001175 -4.180145 -3.090134
v -0.313922 -5.111523 3.701736
v 0.001175 -4.180145 2.910965
v 0.000833 4.216564 -3.090130
v 0.000833 4.216560 2.910969
v -0.313922 -5.111523 -3.880905
v -0.314265 5.147938 -3.880901
v 0.313923 5.147938 -3.880901
v 0.314266 -5.111523 -3.880905
v 0.314266 -5.111523 3.701736
v 0.313923 5.147938 3.701736
v -0.115575 -5.382713 -4.090969
v -0.313922 -5.382671 -4.091003
v -0.313922 -5.382671 3.911835
v -0.314265 5.419189 3.911755
v -0.314265 5.419189 -4.090919
v -0.115918 5.419147 3.911789
v -0.115575 -5.382713 3.911800
v -0.115918 5.419147 -4.090950
vn 1.0000 -0.0000 -0.0000
vn 0.7454 -0.6666 -0.0000
vn 0.7454 0.6666 -0.0000
vn -0.0000 -0.0000 -1.0000
vn -0.0000 -0.0000 1.0000
vn 0.8290 -0.0000 -0.5593
vn 0.8290 -0.0000 0.5593
vn 0.5336 0.8457 -0.0000
vn -1.0000 -0.0000 -0.0000
vn 0.5336 -0.8457 -0.0000
vn 0.4391 -0.0000 0.8985
vn 0.0002 1.0000 -0.0000
vn -0.0002 -1.0000 -0.0000
vn 0.4391 -0.0000 -0.8985
vt -0.011918 0.736179
vt 0.223379 0.736179
vt 0.223379 0.995989
vt -0.011918 0.995989
vt 0.671562 0.983097
vt 0.502036 0.971519
vt 0.469195 0.971519
vt 0.469215 0.737007
vt 0.502049 0.737007
vt 0.671599 0.725429
vt 0.351277 0.971520
vt 0.227592 0.983097
vt 0.222689 0.725429
vt 0.349420 0.737007
vt 0.377062 0.737007
vt 0.380266 0.971520
vt 0.887625 0.729542
vt 0.887817 0.989352
vt 0.824519 0.989352
vt 0.824327 0.729542
vt 0.742600 0.989352
vt 0.742792 0.729542
vt 0.806089 0.729542
vt 0.805897 0.989352
vt 0.920287 0.989352
vt 0.920102 0.729542
vt 1.032283 0.718893
vt 1.032471 1.000000
vt 0.970913 0.298148
vt 0.970913 0.017042
vt 0.990302 -0.001129
vt 0.990302 0.316319
vt 0.712382 0.017042
vt 0.712382 0.298148
vt 0.692994 0.316319
vt 0.692994 -0.001129
vt 0.663692 0.729541
vt 0.663510 0.989352
vt 0.551326 1.000000
vt 0.551510 0.718893
vt -0.003683 0.709945
vt -0.011918 0.470100
vt 0.301861 0.470100
vt 0.293625 0.709945
vt 0.712382 0.298149
vt 0.970913 0.298149
vt 0.990302 0.316319
vt 0.692994 0.316319
vt 0.970913 0.017042
vt 0.712382 0.017042
vt 0.692994 -0.001129
vt 0.990302 -0.001129
vt 0.633761 0.693455
vt 0.931069 0.693455
vt 0.939307 0.701845
vt 0.625523 0.701845
vt 0.931068 0.376007
vt 0.633761 0.376007
vt 0.625527 0.367614
vt 0.939303 0.367614
vt 0.311526 0.368743
vt 0.608834 0.368743
vt 0.617070 0.608588
vt 0.303289 0.608588
vt 0.008419 0.027468
vt 0.326929 0.027652
vt 0.335349 0.267491
vt -0.000000 0.267306
vt 0.301861 0.479285
vt -0.011918 0.479285
vt -0.011917 0.368743
vt 0.301860 0.368743
vt 0.303289 0.608588
vt 0.617070 0.608588
vt 0.617071 0.719130
vt 0.303288 0.719130
vt 0.000000 0.239838
vt 0.335349 0.240021
vt 0.335350 0.350557
vt 0.000001 0.350375
vt 0.351325 0.240022
vt 0.686674 0.239838
vt 0.686673 0.350375
vt 0.351324 0.350557
vt 0.633761 0.376007
vt 0.625523 0.701845
vt 0.625526 0.367614
vt 0.931069 0.693455
vt 0.931069 0.376007
vt 0.939304 0.367614
vt 0.939306 0.701845
vt 0.678255 0.066905
vt 0.686674 0.306743
vt 0.351325 0.306928
vt 0.359745 0.067089
s 0
f 13/1/1 14/2/1 12/3/1 10/4/1
f 8/5/2 2/6/2 14/7/2 13/8/2 4/9/2 5/10/2
f 1/11/3 7/12/3 6/13/3 3/14/3 10/15/3 12/16/3
f 2/17/4 1/18/4 12/19/4 14/20/4
f 3/21/5 4/22/5 13/23/5 10/24/5
f 1/25/6 2/26/6 8/27/6 7/28/6
f 7/29/1 8/30/1 20/31/1 19/32/1
f 5/33/1 6/34/1 18/35/1 17/36/1
f 4/37/7 3/38/7 6/39/7 5/40/7
f 17/41/8 28/42/8 26/43/8 20/44/8
f 6/45/1 7/46/1 19/47/1 18/48/1
f 8/49/1 5/50/1 17/51/1 20/52/1
f 11/53/9 15/54/9 22/55/9 23/56/9
f 16/57/9 9/58/9 24/59/9 25/60/9
f 18/61/10 19/62/10 27/63/10 21/64/10
f 19/65/11 20/66/11 26/67/11 27/68/11
f 26/69/12 28/70/12 25/71/12 24/72/12
f 21/73/13 27/74/13 23/75/13 22/76/13
f 27/77/5 26/78/5 24/79/5 23/80/5
f 28/81/4 21/82/4 22/83/4 25/84/4
f 9/85/9 11/53/9 23/86/9 24/87/9
f 15/88/9 16/89/9 25/90/9 22/91/9
f 18/92/14 21/93/14 28/94/14 17/95/14
