# Blender 4.4.3
# www.blender.org
o LVL2-OuterPathPartsTopRight
v -3.333267 18.132195 -45.696777
v 3.127270 21.143227 -46.855591
v 3.333267 18.132195 -156.491516
v -3.333267 18.132195 -156.491516
v 3.333267 21.143204 -156.491516
v -3.333267 21.143204 -156.491516
v 3.333267 53.547424 -233.682617
v -3.333267 53.547424 -233.682617
v 3.333267 57.702881 -233.682617
v -3.333267 53.547424 -251.028564
v 3.333267 18.132195 -45.696777
v -3.539263 6.795158 -4.188660
v 3.333267 1.755890 -3.141113
v -3.333267 1.755890 -3.141113
v 3.333267 5.389236 -1.110046
v -3.333267 5.389236 -1.110046
v 3.333267 18.132195 -61.760681
v 3.127272 6.795158 -4.188660
v 3.127270 21.143227 -43.867920
v -3.333267 18.132195 -61.760681
v -3.333265 3.161774 -6.017517
v 3.333269 3.161774 -6.017517
v -3.539265 21.143227 -60.207397
v 3.127270 21.143227 -60.207397
v -3.333267 18.132195 -48.634094
v 3.333267 18.132195 -48.634094
v -11.657436 21.143204 -43.665710
v -11.657436 18.132195 -156.491516
v -11.657436 21.143204 -156.491516
v -11.657436 21.143204 -46.653381
v -11.657436 18.132195 -48.634094
v -11.643652 53.547424 -233.682617
v 3.333267 53.547424 -251.028564
v -11.657436 1.755890 -3.141113
v -11.657436 5.389236 -1.110046
v -11.657434 3.161774 -6.017517
v -11.657436 21.143204 -60.005188
v -11.657436 18.132195 -61.760681
v -11.657434 6.795135 -3.986450
v -3.539265 21.143227 -43.867920
v -3.539265 21.143227 -46.855591
v -3.333267 1.432381 0.800720
v -11.657436 1.432381 0.800720
v -3.333267 0.000000 0.000000
v 3.333267 0.000000 0.000000
v 3.333267 1.432381 0.800720
v -11.657436 0.000000 0.000000
v -3.333267 1.194008 -2.135986
v -11.657436 1.194008 -2.135986
v 3.333267 3.525482 -0.808167
v 3.333267 1.194008 -2.135986
v -3.333267 3.525482 -0.808167
v -11.657436 3.525482 -0.808167
v -26.442142 21.143181 -43.463501
v -26.442142 1.755867 -2.938904
v -26.442142 5.389214 -0.907837
v -26.442141 3.161751 -5.815308
v -26.442141 6.795113 -3.784241
v -26.442142 -0.000023 0.202209
v -26.442142 1.432358 1.002930
v -26.442142 1.193985 -1.933777
v -26.442142 3.525459 -0.605957
v -26.442142 18.132195 -156.491516
v -26.442142 21.143204 -156.491516
v -26.428358 53.547424 -233.682617
v -26.428358 57.702881 -233.682617
v -26.442142 21.143204 -60.005188
v -26.442142 18.132195 -61.760681
v -26.442142 21.143204 -46.653381
v -26.442142 18.132195 -48.634094
v -3.333267 25.407547 -160.177429
v 0.743574 25.407547 -160.177429
v -3.333267 60.071854 -233.682617
v 0.743574 60.071854 -233.682617
v -11.656604 25.407547 -160.177429
v -11.643652 60.071854 -233.682617
v -26.428358 60.071854 -233.682617
v -26.441311 25.407547 -160.177429
v 3.333267 53.547424 -248.898743
v -3.333267 53.547424 -248.898743
v 3.333267 57.702881 -248.898743
v -3.333267 57.702881 -248.898743
v -11.643652 53.547424 -248.898743
v -11.643652 57.702881 -248.898743
v -26.428360 53.547424 -248.898743
v -26.428360 57.702881 -248.898743
v -3.333267 60.071854 -247.023254
v 0.743574 60.071854 -247.023254
v -11.643652 60.071854 -247.023254
v -26.428360 60.071854 -247.023254
v 3.333267 55.858261 -251.028564
v -3.333267 55.858261 -251.028564
v -11.643652 53.547424 -251.028564
v -11.643652 55.858261 -251.028564
v -26.428360 53.547424 -251.028564
v -26.428360 55.858261 -251.028564
v -11.657436 18.132195 -45.646423
v -26.442142 18.132172 -45.444214
vn 0.9994 0.0339 0.0011
vn 1.0000 -0.0000 -0.0000
vn -0.0000 1.0000 -0.0000
vn -0.0000 -0.9089 -0.4170
vn -0.0000 -1.0000 -0.0000
vn -0.0000 0.6539 0.7566
vn -0.0000 -0.8729 -0.4879
vn -0.0000 -0.8984 -0.4391
vn 0.9992 0.0373 -0.0169
vn -0.0000 0.9096 0.4154
vn 0.9977 0.0683 -0.0000
vn 0.9985 0.0514 0.0190
vn -0.0000 -0.9356 -0.3530
vn -1.0000 -0.0000 -0.0002
vn 0.0060 0.8984 0.4391
vn -0.0060 -0.8984 -0.4391
vn 0.0085 0.9404 0.3400
vn 0.6750 0.7379 -0.0000
vn 0.0052 0.9043 0.4268
vn -0.0011 -0.9355 -0.3532
vn -0.0000 0.9404 0.3401
vn -0.0000 -0.4879 0.8729
vn -0.0000 0.6094 0.7928
vn 0.0119 -0.4879 0.8728
vn -0.0048 -0.9355 -0.3534
vn -0.0000 0.1599 0.9871
vn -1.0000 -0.0000 -0.0000
vn -0.0067 -0.8729 -0.4879
vn 0.0135 0.1599 0.9870
vn 0.0046 0.9404 0.3400
vn 0.0108 0.6094 0.7928
vn -0.0000 0.9045 0.4265
vn 0.6493 0.6876 0.3250
vn -0.0000 0.7559 -0.6547
vn -0.0000 0.6207 -0.7840
vn -0.0000 -0.0000 -1.0000
vt 0.344271 0.506829
vt 0.336485 0.504539
vt 0.293573 0.281816
vt 0.300652 0.280454
vt 0.293573 0.281816
vt 0.341900 0.084296
vt 0.351674 0.082414
vt 0.300655 0.280453
vt 0.484033 0.273900
vt 0.468101 0.273975
vt 0.466049 0.043558
vt 0.481981 0.043484
vt 0.186531 0.265616
vt 0.151166 0.265898
vt 0.153771 0.078332
vt 0.189135 0.078051
vt 0.225503 0.498975
vt 0.209556 0.499102
vt 0.207358 0.272421
vt 0.223304 0.272294
vt 0.965009 0.503902
vt 0.965009 0.523833
vt 0.955118 0.523798
vt 0.955118 0.503870
vt 0.209556 0.499102
vt 0.189645 0.499261
vt 0.187447 0.272580
vt 0.209013 0.077892
vt 0.206442 0.265457
vt 0.186531 0.265616
vt 0.189135 0.078051
vt 0.484143 0.455432
vt 0.474403 0.455666
vt 0.473567 0.423751
vt 0.483308 0.423517
vt 0.484298 0.313003
vt 0.484250 0.305853
vt 0.503654 0.306246
vt 0.503702 0.313396
vt 0.323662 0.652392
vt 0.329747 0.654458
vt 0.325553 0.659188
vt 0.321821 0.657955
vt 0.187895 0.633632
vt 0.207806 0.633474
vt 0.207708 0.638681
vt 0.187797 0.638840
vt 0.208047 0.625937
vt 0.223993 0.625810
vt 0.223887 0.632806
vt 0.207941 0.632933
vt 0.326558 0.642356
vt 0.335940 0.645005
vt 0.334021 0.652885
vt 0.324564 0.649749
vt 0.465576 0.402176
vt 0.481508 0.402101
vt 0.480841 0.409577
vt 0.464909 0.409652
vt 0.225807 0.530386
vt 0.209861 0.530513
vt 0.209557 0.499102
vt 0.225503 0.498975
vt 0.222388 0.265330
vt 0.206442 0.265457
vt 0.209013 0.077892
vt 0.224959 0.077765
vt 0.350320 0.538220
vt 0.342435 0.535401
vt 0.336489 0.504539
vt 0.344271 0.506829
vt 0.343715 0.542302
vt 0.351625 0.545241
vt 0.335856 0.645028
vt 0.326485 0.642371
vt 0.209142 0.532636
vt 0.225088 0.532509
vt 0.224165 0.628664
vt 0.208219 0.628791
vt 0.484033 0.273900
vt 0.481981 0.043484
vt 0.501875 0.043391
vt 0.503438 0.274293
vt 0.351674 0.545245
vt 0.343766 0.542307
vt 0.342435 0.535401
vt 0.350320 0.538220
vt 0.225875 0.537414
vt 0.209929 0.537541
vt 0.209861 0.530512
vt 0.225807 0.530385
vt 0.503438 0.274293
vt 0.501875 0.043391
vt 0.537208 0.043226
vt 0.538771 0.274128
vt 0.391154 0.280881
vt 0.343098 0.082101
vt 0.352843 0.084128
vt 0.398214 0.282350
vt 0.500793 0.408630
vt 0.500972 0.401641
vt 0.536308 0.401960
vt 0.536130 0.408949
vt 0.189645 0.499261
vt 0.189950 0.530672
vt 0.154586 0.530953
vt 0.154281 0.499543
vt 0.188022 0.626097
vt 0.187915 0.633093
vt 0.152556 0.633859
vt 0.152662 0.626863
vt 0.190020 0.537821
vt 0.154660 0.538587
vt 0.209861 0.530512
vt 0.209929 0.537540
vt 0.190019 0.537820
vt 0.189950 0.530671
vt 0.208047 0.625937
vt 0.207941 0.632933
vt 0.188030 0.633091
vt 0.188136 0.626095
vt 0.484249 0.305852
vt 0.484033 0.273900
vt 0.503438 0.274293
vt 0.503654 0.306245
vt 0.209557 0.499102
vt 0.209861 0.530513
vt 0.189950 0.530671
vt 0.189646 0.499261
vt 0.481816 0.404482
vt 0.483466 0.308440
vt 0.502870 0.308834
vt 0.501221 0.404876
vt 0.474403 0.455666
vt 0.467840 0.456002
vt 0.466888 0.419599
vt 0.473567 0.423751
vt 0.480910 0.409165
vt 0.481583 0.401731
vt 0.500977 0.402053
vt 0.500806 0.409085
vt 0.209142 0.532636
vt 0.208219 0.628792
vt 0.188308 0.628950
vt 0.189230 0.532902
vt 0.483341 0.308441
vt 0.481692 0.404483
vt 0.465760 0.404557
vt 0.467409 0.308515
vt 0.484250 0.305853
vt 0.484298 0.313003
vt 0.468366 0.313077
vt 0.468318 0.305927
vt 0.484033 0.273900
vt 0.484249 0.305852
vt 0.468317 0.305927
vt 0.468101 0.273974
vt 0.907766 0.153976
vt 0.904268 0.153982
vt 0.904273 0.134051
vt 0.907771 0.134045
vt 0.907763 0.169938
vt 0.904266 0.169944
vt 0.904269 0.153982
vt 0.907767 0.153976
vt 0.938492 0.169964
vt 0.938496 0.154002
vt 0.943368 0.154018
vt 0.943364 0.169980
vt 0.938496 0.154002
vt 0.938501 0.134072
vt 0.943372 0.134088
vt 0.943368 0.154019
vt 0.907774 0.133595
vt 0.904276 0.133601
vt 0.904268 0.098203
vt 0.907765 0.098198
vt 0.207806 0.633474
vt 0.223752 0.633346
vt 0.223655 0.638554
vt 0.207708 0.638681
vt 0.207853 0.631023
vt 0.223799 0.630895
vt 0.223754 0.633346
vt 0.207807 0.633474
vt 0.189156 0.532903
vt 0.188234 0.628951
vt 0.152875 0.629717
vt 0.153797 0.533668
vt 0.920531 0.153936
vt 0.920536 0.134005
vt 0.924971 0.134010
vt 0.924966 0.153941
vt 0.920527 0.169898
vt 0.920531 0.153936
vt 0.924967 0.153941
vt 0.924963 0.169902
vt 0.187942 0.631180
vt 0.207853 0.631021
vt 0.207807 0.633471
vt 0.187896 0.633630
vt 0.324528 0.649774
vt 0.333994 0.652905
vt 0.329748 0.654459
vt 0.323662 0.652392
vt 0.886213 0.751916
vt 0.896096 0.750604
vt 0.896685 0.758248
vt 0.886802 0.759559
vt 0.889322 0.650938
vt 0.897775 0.649189
vt 0.896096 0.750604
vt 0.886213 0.751916
vt 0.890685 0.761877
vt 0.897049 0.760980
vt 0.897820 0.766788
vt 0.893924 0.767305
vt 0.886802 0.759559
vt 0.896686 0.758246
vt 0.897050 0.760979
vt 0.890686 0.761876
vt 0.187754 0.633633
vt 0.187656 0.638841
vt 0.152297 0.639607
vt 0.152394 0.634399
vt 0.924970 0.133434
vt 0.920535 0.133429
vt 0.920526 0.098032
vt 0.924961 0.098036
vt 0.187801 0.631182
vt 0.187755 0.633632
vt 0.152395 0.634398
vt 0.152441 0.631948
vt 0.501165 0.404876
vt 0.502814 0.308834
vt 0.538151 0.309152
vt 0.536501 0.405194
vt 0.943370 0.133716
vt 0.938498 0.133700
vt 0.938490 0.098303
vt 0.943362 0.098319
vt 0.337543 0.538352
vt 0.345571 0.535178
vt 0.344014 0.542655
vt 0.335986 0.545829
vt 0.351977 0.504408
vt 0.344060 0.507054
vt 0.391154 0.280881
vt 0.398214 0.282350
vt 0.352843 0.084128
vt 0.343098 0.082101
vt 0.350525 0.046433
vt 0.360269 0.048460
vt 0.344060 0.507054
vt 0.503654 0.306245
vt 0.538987 0.306080
vt 0.539039 0.313714
vt 0.503702 0.313395
vt 0.187447 0.272580
vt 0.189645 0.499261
vt 0.154281 0.499543
vt 0.152083 0.272862
vt 0.538771 0.274128
vt 0.503998 0.454954
vt 0.484143 0.455432
vt 0.483308 0.423517
vt 0.503163 0.423039
vt 0.965009 0.523833
vt 0.965009 0.539795
vt 0.955118 0.533560
vt 0.955118 0.523798
vt 0.472210 0.626931
vt 0.473094 0.448353
vt 0.482834 0.448119
vt 0.481951 0.626697
vt 0.501837 0.626218
vt 0.502689 0.447641
vt 0.538013 0.446791
vt 0.537160 0.625369
vt 0.482834 0.448119
vt 0.502689 0.447641
vt 0.501837 0.626218
vt 0.965009 0.468503
vt 0.965009 0.503903
vt 0.955118 0.503870
vt 0.955118 0.468470
vt 0.475143 0.639132
vt 0.476270 0.451493
vt 0.482803 0.451173
vt 0.481792 0.629820
vt 0.539322 0.454104
vt 0.503998 0.454954
vt 0.503163 0.423039
vt 0.538486 0.422189
vt 0.225876 0.084729
vt 0.209929 0.084856
vt 0.209576 0.048446
vt 0.225522 0.048319
vt 0.343098 0.082101
vt 0.391154 0.280881
vt 0.382953 0.270160
vt 0.337543 0.080945
vt 0.994817 0.417699
vt 0.994818 0.433625
vt 0.989857 0.433931
vt 0.989856 0.418005
vt 0.344781 0.046640
vt 0.335007 0.048521
vt 0.334042 0.043514
vt 0.339477 0.042467
vt 0.699199 0.766268
vt 0.699199 0.750307
vt 0.704877 0.750328
vt 0.704877 0.760089
vt 0.360270 0.048460
vt 0.350525 0.046433
vt 0.355890 0.042340
vt 0.361309 0.043468
vt 0.699198 0.750307
vt 0.699199 0.730409
vt 0.704877 0.730431
vt 0.704877 0.750328
vt 0.699198 0.730409
vt 0.699198 0.695010
vt 0.704877 0.695031
vt 0.704877 0.730430
vt 0.343098 0.082101
vt 0.337543 0.080945
vt 0.344054 0.049673
vt 0.350525 0.046433
vt 0.209929 0.084856
vt 0.190051 0.085015
vt 0.189698 0.048604
vt 0.209576 0.048446
vt 0.351674 0.082414
vt 0.341900 0.084296
vt 0.335007 0.048521
vt 0.344780 0.046640
vt 0.190051 0.085015
vt 0.154687 0.085297
vt 0.154334 0.048886
vt 0.189698 0.048604
vt 0.953143 0.950034
vt 0.953143 0.934072
vt 0.958678 0.934072
vt 0.958678 0.950034
vt 0.953143 0.914174
vt 0.958678 0.914174
vt 0.953143 0.878775
vt 0.958678 0.878775
vt 0.189698 0.048605
vt 0.154333 0.048886
vt 0.154284 0.043790
vt 0.189648 0.043508
vt 0.994818 0.397845
vt 0.994818 0.417699
vt 0.989857 0.418005
vt 0.989857 0.398151
vt 0.209576 0.048446
vt 0.189698 0.048605
vt 0.189648 0.043508
vt 0.209527 0.043350
vt 0.225522 0.048319
vt 0.209576 0.048446
vt 0.209527 0.043350
vt 0.225473 0.043223
vt 0.994818 0.362525
vt 0.994818 0.397846
vt 0.989857 0.398151
vt 0.989857 0.362831
s 0
f 24/1/1 17/2/1 3/3/1 5/4/1
f 3/5/2 7/6/2 9/7/2 5/8/2
f 23/9/3 24/10/3 5/11/3 6/12/3
f 28/13/4 63/14/4 65/15/4 32/16/4
f 17/17/5 20/18/5 4/19/5 3/20/5
f 29/21/6 6/22/6 71/23/6 75/24/6
f 4/19/5 20/25/5 38/26/5 28/27/5
f 8/28/4 4/29/4 28/30/4 32/31/4
f 73/32/3 74/33/3 88/34/3 87/35/3
f 40/36/3 41/37/3 30/38/3 27/39/3
f 51/40/2 50/41/2 46/42/2 45/43/2
f 49/44/7 48/45/7 44/46/7 47/47/7
f 21/48/8 22/49/8 13/50/8 14/51/8
f 22/52/9 18/53/9 15/54/9 13/55/9
f 18/56/10 12/57/10 16/58/10 15/59/10
f 26/60/5 25/61/5 20/62/5 17/63/5
f 3/64/4 4/65/4 8/66/4 7/67/4
f 2/68/11 26/69/11 17/70/11 24/71/11
f 11/72/12 19/73/12 18/74/12 22/75/12
f 1/76/13 11/77/13 22/78/13 21/79/13
f 23/80/3 6/81/3 29/82/3 37/83/3
f 19/84/11 11/85/11 26/86/11 2/87/11
f 11/88/5 1/89/5 25/90/5 26/91/5
f 37/92/3 29/93/3 64/94/3 67/95/3
f 64/96/14 66/97/14 65/98/14 63/99/14
f 35/100/15 39/101/15 58/102/15 56/103/15
f 38/104/5 31/105/5 70/106/5 68/107/5
f 36/108/16 34/109/16 55/110/16 57/111/16
f 70/106/5 31/105/5 97/112/5 98/113/5
f 25/114/5 1/115/5 97/116/5 31/117/5
f 21/118/8 14/119/8 34/120/8 36/121/8
f 41/122/3 23/123/3 37/124/3 30/125/3
f 20/126/5 25/127/5 31/128/5 38/129/5
f 12/130/17 40/131/17 27/132/17 39/133/17
f 74/134/18 9/135/18 81/136/18 88/137/18
f 16/138/19 12/139/19 39/140/19 35/141/19
f 1/142/20 21/143/20 36/144/20 97/145/20
f 40/146/21 12/147/21 18/148/21 19/149/21
f 41/150/3 40/151/3 19/152/3 2/153/3
f 23/154/3 41/155/3 2/156/3 24/157/3
f 44/158/22 42/159/22 43/160/22 47/161/22
f 45/162/22 46/163/22 42/164/22 44/165/22
f 50/166/23 52/167/23 42/168/23 46/169/23
f 52/170/23 53/171/23 43/172/23 42/173/23
f 47/174/24 43/175/24 60/176/24 59/177/24
f 48/178/7 51/179/7 45/180/7 44/181/7
f 14/182/7 13/183/7 51/184/7 48/185/7
f 97/186/25 36/187/25 57/188/25 98/189/25
f 16/190/26 35/191/26 53/192/26 52/193/26
f 15/194/26 16/195/26 52/196/26 50/197/26
f 34/198/7 14/199/7 48/200/7 49/201/7
f 13/202/2 15/203/2 50/204/2 51/205/2
f 58/206/27 57/207/27 55/208/27 56/209/27
f 54/210/27 98/211/27 57/212/27 58/213/27
f 62/214/27 61/215/27 59/216/27 60/217/27
f 56/218/27 55/219/27 61/220/27 62/221/27
f 49/222/28 47/223/28 59/224/28 61/225/28
f 53/226/29 35/227/29 56/228/29 62/229/29
f 34/230/28 49/231/28 61/232/28 55/233/28
f 39/234/30 27/235/30 54/236/30 58/237/30
f 43/238/31 53/239/31 62/240/31 60/241/31
f 69/242/27 70/243/27 98/244/27 54/245/27
f 68/246/27 67/247/27 64/248/27 63/249/27
f 65/250/27 66/251/27 86/252/27 85/253/27
f 70/243/27 69/242/27 67/254/27 68/246/27
f 30/255/3 69/256/3 54/257/3 27/258/3
f 28/259/5 38/260/5 68/261/5 63/262/5
f 30/255/3 37/124/3 67/263/3 69/256/3
f 76/264/3 73/265/3 87/266/3 89/267/3
f 6/268/6 5/269/6 72/270/6 71/271/6
f 72/272/32 74/273/32 73/274/32 71/275/32
f 75/276/32 76/277/32 77/278/32 78/279/32
f 71/275/32 73/280/32 76/281/32 75/282/32
f 64/283/6 29/284/6 75/285/6 78/286/6
f 5/287/33 9/288/33 74/289/33 72/290/33
f 77/291/3 76/292/3 89/293/3 90/294/3
f 7/295/5 8/296/5 80/297/5 79/298/5
f 66/299/14 64/300/14 78/301/14 77/302/14
f 82/303/34 81/304/34 91/305/34 92/306/34
f 81/307/2 79/308/2 33/309/2 91/310/2
f 81/311/35 82/312/35 87/313/35 88/314/35
f 85/315/27 86/316/27 96/317/27 95/318/27
f 82/319/35 84/320/35 89/321/35 87/322/35
f 84/323/35 86/324/35 90/325/35 89/326/35
f 66/327/27 77/328/27 90/329/27 86/330/27
f 8/331/5 32/332/5 83/333/5 80/334/5
f 9/335/2 7/336/2 79/337/2 81/338/2
f 32/339/5 65/340/5 85/341/5 83/342/5
f 33/343/36 10/344/36 92/345/36 91/346/36
f 92/345/36 10/344/36 93/347/36 94/348/36
f 94/348/36 93/347/36 95/349/36 96/350/36
f 83/351/5 85/352/5 95/353/5 93/354/5
f 84/355/34 82/356/34 92/357/34 94/358/34
f 80/359/5 83/360/5 93/361/5 10/362/5
f 79/363/5 80/364/5 10/365/5 33/366/5
f 86/367/34 84/368/34 94/369/34 96/370/34
