# Blender 4.4.3
# www.blender.org
o LVL3-FanWallBarrier
v 4.038237 20.157604 -4.449119
v -4.038237 20.157604 -4.449119
v 2.910158 20.157604 -4.972943
v -2.910166 20.157604 -4.972943
v -4.559410 20.157604 -0.000012
v 4.559409 20.157604 -0.000012
v 4.038237 20.157604 -1.797239
v -4.038237 20.157604 -1.797239
v 4.559409 20.157604 -1.379297
v -4.559410 20.157604 -1.379297
v 3.474197 20.157604 -4.972943
v -3.474202 20.157604 -4.972943
v -4.038237 20.157604 -3.838650
v -4.038237 20.157604 -3.066962
v 4.038237 20.157604 -3.838650
v 4.038237 20.157604 -3.066962
v -4.038237 20.157604 -3.594686
v -4.038237 20.157604 -3.310927
v 2.346115 20.157604 -4.972936
v -2.346132 20.157604 -4.972943
v -4.038237 20.157604 -0.000014
v 4.038237 20.157604 -0.000014
v -2.910161 20.157604 -0.000008
v 2.910163 20.157604 -0.000008
v 2.910163 20.157604 -1.797236
v -2.910161 20.157604 -1.797236
v 3.474203 20.157604 -0.000008
v 3.474203 20.157604 -1.797236
v -3.474197 20.157604 -0.000008
v -3.474197 20.157604 -1.797236
v -2.910161 20.157604 -3.074817
v -2.910161 20.157604 -3.846503
v 2.910163 20.157604 -3.846503
v 2.910163 20.157604 -3.074817
v 3.474203 20.157604 -3.846503
v 3.474203 20.157604 -3.074817
v -3.474197 20.157604 -3.846503
v -3.474197 20.157604 -3.074817
v -3.474197 20.157604 -3.318781
v -3.474197 20.157604 -3.602540
v -2.910161 20.157604 -3.602540
v -2.910161 20.157604 -3.318781
v 3.474203 20.157604 -3.318781
v 3.474203 20.157604 -3.602540
v 2.910163 20.157604 -3.318781
v 2.910163 20.157604 -3.602540
v -2.346126 20.157604 -0.000008
v 2.346121 20.157604 -0.000001
v -2.346126 20.157604 -1.797236
v 2.346121 20.157604 -1.797236
v -2.346126 20.157604 -3.074817
v 2.346121 20.157604 -3.074809
v 2.346121 20.157604 -3.846496
v -2.346126 20.157604 -3.846503
v 2.346121 20.157604 -3.602532
v -2.346126 20.157604 -3.602540
v -2.346126 20.157604 -3.318781
v 2.346121 20.157604 -3.318773
v 3.735746 20.157604 -3.366057
v 3.735746 20.157604 -3.539560
v 3.735746 20.157604 -3.216887
v 3.735746 20.157604 -3.688730
v 4.038237 0.000003 -4.449119
v -4.038237 0.000003 -4.449119
v 2.910158 0.000003 -4.972943
v -2.910166 0.000003 -4.972943
v -4.559410 0.000003 -0.000012
v 4.559409 0.000003 -0.000012
v 4.038237 0.000003 -1.797239
v -4.038237 0.000003 -1.797239
v 4.559409 0.000003 -1.379297
v -4.559410 0.000003 -1.379297
v 3.474197 0.000003 -4.972943
v -3.474202 0.000003 -4.972943
v -4.038237 0.000003 -3.838650
v -4.038237 0.000003 -3.066962
v 4.038237 0.000003 -3.838650
v 4.038237 0.000003 -3.066962
v -4.038237 0.000003 -3.594686
v -4.038237 0.000003 -3.310927
v 2.346115 0.000003 -4.972936
v -2.346132 0.000003 -4.972943
v -4.038237 0.000003 -0.000014
v 4.038237 0.000003 -0.000014
v -2.910161 0.000003 -0.000008
v 2.910163 0.000003 -0.000008
v 2.910163 0.000003 -1.797236
v -2.910161 0.000003 -1.797236
v 3.474203 0.000003 -0.000008
v 3.474203 0.000003 -1.797236
v -3.474197 0.000003 -0.000008
v -3.474197 0.000003 -1.797236
v -2.910161 0.000003 -3.074817
v -2.910161 0.000003 -3.846503
v 2.910163 0.000003 -3.846503
v 2.910163 0.000003 -3.074817
v 3.474203 0.000003 -3.846503
v 3.474203 0.000003 -3.074817
v -3.474197 0.000003 -3.846503
v -3.474197 0.000003 -3.074817
v -3.474197 0.000003 -3.318781
v -3.474197 0.000003 -3.602540
v -2.910161 0.000003 -3.602540
v -2.910161 0.000003 -3.318781
v 3.474203 0.000003 -3.318781
v 3.474203 0.000003 -3.602540
v 2.910163 0.000003 -3.318781
v 2.910163 0.000003 -3.602540
v -2.346126 0.000003 -0.000008
v 2.346121 0.000003 -0.000001
v -2.346126 0.000003 -1.797236
v 2.346121 0.000003 -1.797236
v -2.346126 0.000003 -3.074817
v 2.346121 0.000003 -3.074809
v 2.346121 0.000003 -3.846496
v -2.346126 0.000003 -3.846503
v 2.346121 0.000003 -3.602532
v -2.346126 0.000003 -3.602540
v -2.346126 0.000003 -3.318781
v 2.346121 0.000003 -3.318773
v 3.735746 0.000003 -3.366057
v 3.735746 0.000003 -3.539560
v 3.735746 0.000003 -3.216887
v 3.735746 0.000003 -3.688730
vn -0.0000 1.0000 -0.0000
vn -0.0000 -1.0000 -0.0000
vn -0.0000 -0.0000 1.0000
vn -0.0000 -0.0000 -1.0000
vn -0.6805 -0.0000 -0.7327
vn -1.0000 -0.0000 -0.0000
vn 1.0000 -0.0000 -0.0000
vn 0.4441 -0.0000 0.8960
vn 0.4441 -0.0000 -0.8960
vn 0.6805 -0.0000 -0.7327
vn 0.6256 -0.0000 -0.7801
vn -0.6256 -0.0000 -0.7801
vt 0.728490 0.109799
vt 0.785435 0.109799
vt 0.785435 0.342577
vt 0.728490 0.342577
vt 0.728490 0.081818
vt 0.728490 0.053836
vt 0.785435 0.053836
vt 0.785435 0.081818
vt 0.728490 0.426521
vt 0.785435 0.426521
vt 0.785435 0.452376
vt 0.741732 0.452376
vt 0.785435 0.025855
vt 0.728490 0.025855
vt 0.741732 0.000000
vt 0.785435 0.000000
vt 0.728490 0.398540
vt 0.728490 0.370559
vt 0.785435 0.370559
vt 0.785435 0.398540
vt 0.688259 0.426521
vt 0.683508 0.411515
vt 0.680280 0.398540
vt 0.688010 0.398540
vt 0.671289 0.109799
vt 0.671289 0.081818
vt 0.680280 0.081818
vt 0.680280 0.109799
vt 0.688010 0.081818
vt 0.688010 0.053836
vt 0.627868 0.398540
vt 0.627868 0.370558
vt 0.663559 0.370559
vt 0.663559 0.398540
vt 0.627868 0.053836
vt 0.644465 0.025855
vt 0.663808 0.025855
vt 0.663559 0.053836
vt 0.644465 0.426521
vt 0.663808 0.426521
vt 0.688010 0.370559
vt 0.627868 0.081817
vt 0.663559 0.081818
vt 0.688259 0.025855
vt 0.627868 0.109799
vt 0.663559 0.109799
vt 0.680280 0.370559
vt 0.688010 0.109799
vt 0.671289 0.053836
vt 0.671289 0.370559
vt 0.671289 0.398540
vt 0.671289 0.342577
vt 0.680280 0.342577
vt 0.680280 0.053836
vt 0.671538 0.025855
vt 0.668558 0.411515
vt 0.678782 0.411515
vt 0.688010 0.342577
vt 0.680529 0.025855
vt 0.627868 0.342577
vt 0.663559 0.342577
vt 0.673284 0.411515
vt 0.728490 0.794953
vt 0.728490 0.562175
vt 0.785435 0.562175
vt 0.785435 0.794953
vt 0.728490 0.822935
vt 0.785435 0.822935
vt 0.785435 0.850916
vt 0.728490 0.850916
vt 0.728490 0.478231
vt 0.741732 0.452376
vt 0.785435 0.452376
vt 0.785435 0.478231
vt 0.785435 0.878897
vt 0.785435 0.904752
vt 0.741732 0.904752
vt 0.728490 0.878897
vt 0.728490 0.506212
vt 0.785435 0.506212
vt 0.785435 0.534194
vt 0.728490 0.534194
vt 0.688259 0.478231
vt 0.688010 0.506212
vt 0.680280 0.506212
vt 0.683508 0.493237
vt 0.671289 0.794953
vt 0.680280 0.794953
vt 0.680280 0.822935
vt 0.671289 0.822935
vt 0.688010 0.822935
vt 0.688010 0.850916
vt 0.627868 0.506212
vt 0.663559 0.506212
vt 0.663559 0.534194
vt 0.627868 0.534194
vt 0.627868 0.850916
vt 0.663559 0.850916
vt 0.663808 0.878897
vt 0.644465 0.878897
vt 0.644465 0.478231
vt 0.663808 0.478231
vt 0.688010 0.534194
vt 0.627868 0.822935
vt 0.663559 0.822935
vt 0.688259 0.878897
vt 0.627868 0.794954
vt 0.663559 0.794953
vt 0.680280 0.534194
vt 0.688010 0.794953
vt 0.671289 0.850916
vt 0.671289 0.534194
vt 0.671289 0.506212
vt 0.680280 0.562175
vt 0.671289 0.562175
vt 0.680280 0.850916
vt 0.671538 0.878897
vt 0.668558 0.493237
vt 0.678782 0.493237
vt 0.688010 0.562175
vt 0.680529 0.878897
vt 0.663559 0.562175
vt 0.627868 0.562176
vt 0.673284 0.493237
vt 0.254289 0.000000
vt 0.272143 0.000000
vt 0.272143 1.000000
vt 0.254289 1.000000
vt 0.324281 0.000000
vt 0.472535 0.000000
vt 0.472535 1.000000
vt 0.324281 1.000000
vt 0.490357 0.000000
vt 0.508178 0.000000
vt 0.508178 1.000000
vt 0.490357 1.000000
vt 0.611270 0.000000
vt 0.627868 0.000000
vt 0.627868 1.000000
vt 0.611270 1.000000
vt 0.306460 0.000000
vt 0.306460 1.000000
vt 0.591927 0.000000
vt 0.591927 1.000000
vt 0.527245 0.000000
vt 0.567477 0.000000
vt 0.567477 1.000000
vt 0.527245 1.000000
vt 0.034350 0.000000
vt 0.052204 0.000000
vt 0.052204 1.000000
vt 0.034350 1.000000
vt 0.872841 0.000000
vt 0.913072 0.000000
vt 0.913072 1.000000
vt 0.872841 1.000000
vt 0.990212 0.000000
vt 1.000000 0.000000
vt 1.000000 1.000000
vt 0.990212 1.000000
vt 0.932414 0.000000
vt 0.932414 1.000000
vt 0.016497 0.000000
vt 0.016497 1.000000
vt 0.070058 0.000000
vt 0.218582 0.000000
vt 0.218582 1.000000
vt 0.070058 1.000000
vt 0.980298 0.000000
vt 0.990212 0.000000
vt 0.990212 1.000000
vt 0.980298 1.000000
vt 0.575207 0.000000
vt 0.584197 0.000000
vt 0.584197 1.000000
vt 0.575207 1.000000
vt 0.236435 0.000000
vt 0.236435 1.000000
vt 0.965348 0.000000
vt 0.970074 0.000000
vt 0.970074 1.000000
vt 0.965348 1.000000
vt 0.527245 0.000000
vt 0.527245 1.000000
vt 0.975572 0.000000
vt 0.975572 1.000000
vt 0.288639 0.000000
vt 0.288639 1.000000
vt 0.980298 0.000000
vt 0.980298 1.000000
vt 0.785435 0.000000
vt 0.829138 0.000000
vt 0.829138 1.000000
vt 0.785435 1.000000
vt 0.288639 1.000000
vt 0.872841 0.000000
vt 0.872841 1.000000
vt 0.932414 0.000000
vt 0.949876 0.000000
vt 0.949876 1.000000
vt 0.932414 1.000000
vt 0.000000 0.000000
vt 0.000000 1.000000
vt 0.949876 0.000000
vt 0.965348 0.000000
vt 0.965348 1.000000
vt 0.949876 1.000000
s 0
f 49/1/1 47/2/1 48/3/1 50/4/1
f 26/5/1 30/6/1 29/7/1 23/8/1
f 7/9/1 22/10/1 6/11/1 9/12/1
f 21/13/1 8/14/1 10/15/1 5/16/1
f 49/1/1 26/5/1 23/8/1 47/2/1
f 28/17/1 25/18/1 24/19/1 27/20/1
f 25/18/1 50/4/1 48/3/1 24/19/1
f 7/9/1 28/17/1 27/20/1 22/10/1
f 30/6/1 8/14/1 21/13/1 29/7/1
f 16/21/1 61/22/1 43/23/1 36/24/1
f 16/21/1 36/24/1 28/17/1 7/9/1
f 56/25/1 41/26/1 42/27/1 57/28/1
f 31/29/1 38/30/1 30/6/1 26/5/1
f 11/31/1 3/32/1 33/33/1 35/34/1
f 12/35/1 2/36/1 13/37/1 37/38/1
f 1/39/1 11/31/1 35/34/1 15/40/1
f 36/24/1 34/41/1 25/18/1 28/17/1
f 4/42/1 12/35/1 37/38/1 32/43/1
f 38/30/1 14/44/1 8/14/1 30/6/1
f 20/45/1 4/42/1 32/43/1 54/46/1
f 34/41/1 36/24/1 43/23/1 45/47/1
f 31/29/1 51/48/1 57/28/1 42/27/1
f 40/49/1 41/26/1 32/43/1 37/38/1
f 46/50/1 44/51/1 35/34/1 33/33/1
f 46/50/1 55/52/1 58/53/1 45/47/1
f 44/51/1 46/50/1 45/47/1 43/23/1
f 41/26/1 40/49/1 39/54/1 42/27/1
f 38/30/1 31/29/1 42/27/1 39/54/1
f 17/55/1 40/49/1 37/38/1 13/37/1
f 15/40/1 35/34/1 44/51/1 62/56/1
f 43/23/1 61/22/1 59/57/1
f 52/58/1 34/41/1 45/47/1 58/53/1
f 34/41/1 52/58/1 50/4/1 25/18/1
f 14/44/1 38/30/1 39/54/1 18/59/1
f 18/59/1 39/54/1 40/49/1 17/55/1
f 41/26/1 56/25/1 54/46/1 32/43/1
f 3/32/1 19/60/1 53/61/1 33/33/1
f 51/48/1 31/29/1 26/5/1 49/1/1
f 55/52/1 46/50/1 33/33/1 53/61/1
f 56/25/1 57/28/1 58/53/1 55/52/1
f 52/58/1 58/53/1 57/28/1 51/48/1
f 55/52/1 53/61/1 54/46/1 56/25/1
f 51/48/1 49/1/1 50/4/1 52/58/1
f 20/45/1 54/46/1 53/61/1 19/60/1
f 60/62/1 44/51/1 43/23/1 59/57/1
f 62/56/1 44/51/1 60/62/1
f 111/63/2 112/64/2 110/65/2 109/66/2
f 88/67/2 85/68/2 91/69/2 92/70/2
f 69/71/2 71/72/2 68/73/2 84/74/2
f 83/75/2 67/76/2 72/77/2 70/78/2
f 111/63/2 109/66/2 85/68/2 88/67/2
f 90/79/2 89/80/2 86/81/2 87/82/2
f 87/82/2 86/81/2 110/65/2 112/64/2
f 69/71/2 84/74/2 89/80/2 90/79/2
f 92/70/2 91/69/2 83/75/2 70/78/2
f 78/83/2 98/84/2 105/85/2 123/86/2
f 78/83/2 69/71/2 90/79/2 98/84/2
f 118/87/2 119/88/2 104/89/2 103/90/2
f 93/91/2 88/67/2 92/70/2 100/92/2
f 73/93/2 97/94/2 95/95/2 65/96/2
f 74/97/2 99/98/2 75/99/2 64/100/2
f 63/101/2 77/102/2 97/94/2 73/93/2
f 98/84/2 90/79/2 87/82/2 96/103/2
f 66/104/2 94/105/2 99/98/2 74/97/2
f 100/92/2 92/70/2 70/78/2 76/106/2
f 82/107/2 116/108/2 94/105/2 66/104/2
f 96/103/2 107/109/2 105/85/2 98/84/2
f 93/91/2 104/89/2 119/88/2 113/110/2
f 102/111/2 99/98/2 94/105/2 103/90/2
f 108/112/2 95/95/2 97/94/2 106/113/2
f 108/112/2 107/109/2 120/114/2 117/115/2
f 106/113/2 105/85/2 107/109/2 108/112/2
f 103/90/2 104/89/2 101/116/2 102/111/2
f 100/92/2 101/116/2 104/89/2 93/91/2
f 79/117/2 75/99/2 99/98/2 102/111/2
f 77/102/2 124/118/2 106/113/2 97/94/2
f 105/85/2 121/119/2 123/86/2
f 114/120/2 120/114/2 107/109/2 96/103/2
f 96/103/2 87/82/2 112/64/2 114/120/2
f 76/106/2 80/121/2 101/116/2 100/92/2
f 80/121/2 79/117/2 102/111/2 101/116/2
f 103/90/2 94/105/2 116/108/2 118/87/2
f 65/96/2 95/95/2 115/122/2 81/123/2
f 113/110/2 111/63/2 88/67/2 93/91/2
f 117/115/2 115/122/2 95/95/2 108/112/2
f 118/87/2 117/115/2 120/114/2 119/88/2
f 114/120/2 113/110/2 119/88/2 120/114/2
f 117/115/2 118/87/2 116/108/2 115/122/2
f 113/110/2 114/120/2 112/64/2 111/63/2
f 82/107/2 81/123/2 115/122/2 116/108/2
f 122/124/2 121/119/2 105/85/2 106/113/2
f 124/118/2 122/124/2 106/113/2
f 29/125/3 21/126/3 83/127/3 91/128/3
f 20/129/4 19/130/4 81/131/4 82/132/4
f 3/133/4 11/134/4 73/135/4 65/136/4
f 19/130/4 3/133/4 65/136/4 81/131/4
f 2/137/5 12/138/5 74/139/5 64/140/5
f 4/141/4 20/129/4 82/132/4 66/142/4
f 13/143/6 2/137/6 64/140/6 75/144/6
f 8/145/6 14/146/6 76/147/6 70/148/6
f 27/149/3 24/150/3 86/151/3 89/152/3
f 16/153/7 7/154/7 69/155/7 78/156/7
f 15/157/8 62/158/8 124/159/8 77/160/8
f 1/154/7 15/161/7 77/162/7 63/155/7
f 22/163/3 27/149/3 89/152/3 84/164/3
f 48/165/3 47/166/3 109/167/3 110/168/3
f 61/169/9 16/170/9 78/171/9 123/172/9
f 18/173/6 17/174/6 79/175/6 80/176/6
f 23/177/3 29/125/3 91/128/3 85/178/3
f 62/179/7 60/180/7 122/181/7 124/182/7
f 47/166/3 23/177/3 85/178/3 109/167/3
f 11/134/10 1/183/10 63/184/10 73/135/10
f 60/180/7 59/185/7 121/186/7 122/181/7
f 24/150/3 48/165/3 110/168/3 86/151/3
f 12/187/4 4/141/4 66/142/4 74/188/4
f 59/185/7 61/189/7 123/190/7 121/186/7
f 9/191/7 6/192/7 68/193/7 71/194/7
f 21/126/3 5/187/3 67/195/3 83/127/3
f 14/146/6 18/173/6 80/176/6 76/147/6
f 5/192/6 10/196/6 72/197/6 67/193/6
f 17/174/6 13/143/6 75/144/6 79/175/6
f 7/198/11 9/199/11 71/200/11 69/201/11
f 6/202/3 22/163/3 84/164/3 68/203/3
f 10/204/12 8/205/12 70/206/12 72/207/12
